Drafting-Regular.ufo
<glyph name="exclam" format="2">
  <advance width="1200"/>
  <unicode hex="0021"/>
  <outline>
    <contour>
      <point x="451" y="130" type="curve" smooth="yes"/>
      <point x="451" y="218"/>
      <point x="512" y="280"/>
      <point x="600" y="280" type="curve" smooth="yes"/>
      <point x="688" y="280"/>
      <point x="749" y="218"/>
      <point x="749" y="130" type="curve" smooth="yes"/>
      <point x="749" y="42"/>
      <point x="693" y="-20"/>
      <point x="605" y="-20" type="curve" smooth="yes"/>
      <point x="517" y="-20"/>
      <point x="451" y="42"/>
    </contour>
    <contour>
      <point x="550" y="490" type="line"/>
      <point x="490" y="1340" type="line"/>
      <point x="710" y="1340" type="line"/>
      <point x="650" y="490" type="line"/>
    </contour>
  </outline>
</glyph>
<glyph name="quotedbl" format="2">
  <advance width="1200"/>
  <unicode hex="0022"/>
  <outline>
    <contour>
      <point x="755" y="730" type="line"/>
      <point x="725" y="1340" type="line"/>
      <point x="935" y="1340" type="line"/>
      <point x="875" y="730" type="line"/>
    </contour>
    <contour>
      <point x="295" y="730" type="line"/>
      <point x="265" y="1340" type="line"/>
      <point x="475" y="1340" type="line"/>
      <point x="415" y="730" type="line"/>
    </contour>
  </outline>
</glyph>
<glyph name="numbersign" format="2">
  <advance width="1200"/>
  <unicode hex="0023"/>
  <outline>
    <contour>
      <point x="99" y="935" type="line"/>
      <point x="1191" y="935" type="line"/>
      <point x="1191" y="810" type="line"/>
      <point x="99" y="810" type="line"/>
    </contour>
    <contour>
      <point x="39" y="540" type="line"/>
      <point x="1131" y="540" type="line"/>
      <point x="1131" y="415" type="line"/>
      <point x="39" y="415" type="line"/>
    </contour>
    <contour>
      <point x="910" y="1310" type="line"/>
      <point x="1039" y="1290" type="line"/>
      <point x="729" y="-10" type="line"/>
      <point x="600" y="10" type="line"/>
    </contour>
    <contour>
      <point x="480" y="1310" type="line"/>
      <point x="609" y="1290" type="line"/>
      <point x="299" y="-10" type="line"/>
      <point x="170" y="10" type="line"/>
    </contour>
  </outline>
</glyph>
<glyph name="dollar" format="2">
  <advance width="1200"/>
  <unicode hex="0024"/>
  <outline>
    <contour>
      <point x="630" y="40" type="line"/>
      <point x="670" y="-260" type="line"/>
      <point x="490" y="-260" type="line"/>
      <point x="530" y="40" type="line"/>
    </contour>
    <contour>
      <point x="530" y="1260" type="line"/>
      <point x="490" y="1560" type="line"/>
      <point x="670" y="1560" type="line"/>
      <point x="630" y="1260" type="line"/>
    </contour>
    <contour>
      <point x="928" y="996" type="line"/>
      <point x="798" y="1109"/>
      <point x="702" y="1180"/>
      <point x="564" y="1180" type="curve" smooth="yes"/>
      <point x="433" y="1180"/>
      <point x="319" y="1114"/>
      <point x="319" y="1001" type="curve" smooth="yes"/>
      <point x="319" y="861"/>
      <point x="505" y="802"/>
      <point x="661" y="742" type="curve" smooth="yes"/>
      <point x="877" y="659"/>
      <point x="1089" y="593"/>
      <point x="1089" y="350" type="curve" smooth="yes"/>
      <point x="1089" y="100"/>
      <point x="842" y="-29"/>
      <point x="620" y="-29" type="curve" smooth="yes"/>
      <point x="393" y="-29"/>
      <point x="202" y="71"/>
      <point x="52" y="221" type="curve"/>
      <point x="160" y="321" type="line"/>
      <point x="280" y="202"/>
      <point x="437" y="111"/>
      <point x="600" y="111" type="curve" smooth="yes"/>
      <point x="812" y="111"/>
      <point x="929" y="202"/>
      <point x="929" y="341" type="curve" smooth="yes"/>
      <point x="929" y="505"/>
      <point x="765" y="538"/>
      <point x="611" y="599" type="curve" smooth="yes"/>
      <point x="431" y="670"/>
      <point x="159" y="748"/>
      <point x="159" y="1000" type="curve" smooth="yes"/>
      <point x="159" y="1191"/>
      <point x="348" y="1320"/>
      <point x="574" y="1320" type="curve" smooth="yes"/>
      <point x="760" y="1320"/>
      <point x="917" y="1229"/>
      <point x="1037" y="1089" type="curve"/>
    </contour>
  </outline>
</glyph>
<glyph name="percent" format="2">
  <advance width="1200"/>
  <unicode hex="0025"/>
  <outline>
    <contour>
      <point x="928" y="280" type="curve" smooth="yes"/>
      <point x="928" y="393"/>
      <point x="902" y="455"/>
      <point x="824" y="455" type="curve" smooth="yes"/>
      <point x="746" y="455"/>
      <point x="710" y="393"/>
      <point x="710" y="280" type="curve" smooth="yes"/>
      <point x="710" y="167"/>
      <point x="736" y="105"/>
      <point x="814" y="105" type="curve" smooth="yes"/>
      <point x="892" y="105"/>
      <point x="928" y="167"/>
    </contour>
    <contour>
      <point x="574" y="280" type="curve" smooth="yes"/>
      <point x="574" y="456"/>
      <point x="657" y="580"/>
      <point x="814" y="580" type="curve" smooth="yes"/>
      <point x="981" y="580"/>
      <point x="1064" y="456"/>
      <point x="1064" y="280" type="curve" smooth="yes"/>
      <point x="1064" y="94"/>
      <point x="991" y="-20"/>
      <point x="824" y="-20" type="curve" smooth="yes"/>
      <point x="667" y="-20"/>
      <point x="574" y="94"/>
    </contour>
    <contour>
      <point x="400" y="1020" type="curve" smooth="yes"/>
      <point x="400" y="1133"/>
      <point x="384" y="1205"/>
      <point x="296" y="1205" type="curve" smooth="yes"/>
      <point x="218" y="1205"/>
      <point x="182" y="1133"/>
      <point x="182" y="1020" type="curve" smooth="yes"/>
      <point x="182" y="907"/>
      <point x="208" y="845"/>
      <point x="286" y="845" type="curve" smooth="yes"/>
      <point x="364" y="845"/>
      <point x="400" y="907"/>
    </contour>
    <contour>
      <point x="46" y="1020" type="curve" smooth="yes"/>
      <point x="46" y="1196"/>
      <point x="129" y="1320"/>
      <point x="286" y="1320" type="curve" smooth="yes"/>
      <point x="412" y="1320"/>
      <point x="499" y="1246"/>
      <point x="605" y="1246" type="curve" smooth="yes"/>
      <point x="715" y="1246"/>
      <point x="800" y="1302"/>
      <point x="924" y="1440" type="curve"/>
      <point x="1016" y="1370" type="line"/>
      <point x="216" y="-100" type="line"/>
      <point x="104" y="-50" type="line"/>
      <point x="869" y="1344" type="line"/>
      <point x="889" y="1276" type="line"/>
      <point x="810" y="1187"/>
      <point x="702" y="1141"/>
      <point x="609" y="1141" type="curve" smooth="yes"/>
      <point x="535" y="1141"/>
      <point x="461" y="1178"/>
      <point x="439" y="1204" type="curve"/>
      <point x="471" y="1201" type="line"/>
      <point x="504" y="1164"/>
      <point x="536" y="1076"/>
      <point x="536" y="990" type="curve" smooth="yes"/>
      <point x="536" y="874"/>
      <point x="463" y="720"/>
      <point x="296" y="720" type="curve" smooth="yes"/>
      <point x="139" y="720"/>
      <point x="46" y="834"/>
    </contour>
  </outline>
</glyph>
<glyph name="ampersand" format="2">
  <advance width="1200"/>
  <unicode hex="0026"/>
  <outline>
    <contour>
      <point x="529" y="740" type="line"/>
      <point x="1091" y="740" type="line"/>
      <point x="1091" y="610" type="line"/>
      <point x="529" y="610" type="line"/>
    </contour>
    <contour>
      <point x="878" y="650" type="line"/>
      <point x="1018" y="234"/>
      <point x="854" y="-20"/>
      <point x="528" y="-20" type="curve"/>
      <point x="528" y="120" type="line"/>
      <point x="736" y="120"/>
      <point x="858" y="307"/>
      <point x="718" y="650" type="curve"/>
    </contour>
    <contour>
      <point x="746" y="1069" type="line"/>
      <point x="676" y="1142"/>
      <point x="606" y="1170"/>
      <point x="518" y="1170" type="curve"/>
      <point x="518" y="1300" type="line"/>
      <point x="684" y="1300"/>
      <point x="777" y="1249"/>
      <point x="857" y="1159" type="curve"/>
    </contour>
    <contour>
      <point x="618" y="740" type="curve"/>
      <point x="548" y="610" type="line"/>
      <point x="330" y="610"/>
      <point x="259" y="498"/>
      <point x="259" y="365" type="curve" smooth="yes"/>
      <point x="259" y="242"/>
      <point x="330" y="120"/>
      <point x="528" y="120" type="curve"/>
      <point x="528" y="-20" type="line"/>
      <point x="241" y="-20"/>
      <point x="89" y="134"/>
      <point x="89" y="350" type="curve" smooth="yes"/>
      <point x="89" y="555"/>
      <point x="244" y="661"/>
      <point x="436" y="685" type="curve"/>
      <point x="310" y="708"/>
      <point x="159" y="809"/>
      <point x="159" y="990" type="curve" smooth="yes"/>
      <point x="159" y="1196"/>
      <point x="312" y="1300"/>
      <point x="518" y="1300" type="curve"/>
      <point x="518" y="1170" type="line"/>
      <point x="390" y="1170"/>
      <point x="329" y="1103"/>
      <point x="329" y="1000" type="curve" smooth="yes"/>
      <point x="329" y="857"/>
      <point x="430" y="740"/>
    </contour>
  </outline>
</glyph>
<glyph name="quotesingle" format="2">
  <advance width="1200"/>
  <unicode hex="0027"/>
  <outline>
    <contour>
      <point x="535" y="730" type="line"/>
      <point x="495" y="1340" type="line"/>
      <point x="705" y="1340" type="line"/>
      <point x="655" y="730" type="line"/>
    </contour>
  </outline>
</glyph>
<glyph name="parenleft" format="2">
  <advance width="1200"/>
  <unicode hex="0028"/>
  <outline>
    <contour>
      <point x="862" y="1420" type="curve"/>
      <point x="924" y="1350" type="line"/>
      <point x="599" y="1190"/>
      <point x="458" y="990"/>
      <point x="458" y="649" type="curve" smooth="yes"/>
      <point x="458" y="308"/>
      <point x="599" y="115"/>
      <point x="924" y="-50" type="curve"/>
      <point x="862" y="-130" type="line"/>
      <point x="527" y="25"/>
      <point x="276" y="228"/>
      <point x="276" y="649" type="curve" smooth="yes"/>
      <point x="276" y="1070"/>
      <point x="527" y="1270"/>
    </contour>
  </outline>
</glyph>
<glyph name="parenright" format="2">
  <advance width="1200"/>
  <unicode hex="0029"/>
  <outline>
    <contour>
      <point x="338" y="-130" type="curve"/>
      <point x="276" y="-60" type="line"/>
      <point x="601" y="100"/>
      <point x="742" y="300"/>
      <point x="742" y="641" type="curve" smooth="yes"/>
      <point x="742" y="982"/>
      <point x="601" y="1175"/>
      <point x="276" y="1340" type="curve"/>
      <point x="338" y="1420" type="line"/>
      <point x="673" y="1265"/>
      <point x="924" y="1062"/>
      <point x="924" y="641" type="curve" smooth="yes"/>
      <point x="924" y="220"/>
      <point x="673" y="20"/>
    </contour>
  </outline>
</glyph>
<glyph name="asterisk" format="2">
  <advance width="1200"/>
  <unicode hex="002A"/>
  <outline>
    <contour>
      <point x="574" y="876" type="line"/>
      <point x="446" y="598" type="line"/>
      <point x="284" y="715" type="line"/>
      <point x="509" y="923" type="line"/>
    </contour>
    <contour>
      <point x="683" y="1049" type="line"/>
      <point x="950" y="1199" type="line"/>
      <point x="1011" y="1009" type="line"/>
      <point x="707" y="973" type="line"/>
    </contour>
    <contour>
      <point x="493" y="973" type="line"/>
      <point x="189" y="1009" type="line"/>
      <point x="250" y="1199" type="line"/>
      <point x="517" y="1049" type="line"/>
    </contour>
    <contour>
      <point x="691" y="923" type="line"/>
      <point x="916" y="715" type="line"/>
      <point x="754" y="598" type="line"/>
      <point x="626" y="876" type="line"/>
    </contour>
    <contour>
      <point x="560" y="1080" type="line"/>
      <point x="500" y="1380" type="line"/>
      <point x="700" y="1380" type="line"/>
      <point x="640" y="1080" type="line"/>
    </contour>
  </outline>
</glyph>
<glyph name="plus" format="2">
  <advance width="1200"/>
  <unicode hex="002B"/>
  <outline>
    <contour>
      <point x="539" y="1030" type="line"/>
      <point x="661" y="1030" type="line"/>
      <point x="661" y="320" type="line"/>
      <point x="539" y="320" type="line"/>
    </contour>
    <contour>
      <point x="229" y="730" type="line"/>
      <point x="971" y="730" type="line"/>
      <point x="971" y="620" type="line"/>
      <point x="229" y="620" type="line"/>
    </contour>
  </outline>
</glyph>
<glyph name="comma" format="2">
  <advance width="1200"/>
  <unicode hex="002C"/>
  <outline>
    <contour>
      <point x="460" y="-320" type="line"/>
      <point x="500" y="290" type="line"/>
      <point x="710" y="290" type="line"/>
      <point x="580" y="-320" type="line"/>
    </contour>
  </outline>
</glyph>
<glyph name="hyphen" format="2">
  <advance width="1200"/>
  <unicode hex="002D"/>
  <outline>
    <contour>
      <point x="269" y="740" type="line"/>
      <point x="931" y="740" type="line"/>
      <point x="931" y="610" type="line"/>
      <point x="269" y="610" type="line"/>
    </contour>
  </outline>
</glyph>
<glyph name="period" format="2">
  <advance width="1200"/>
  <unicode hex="002E"/>
  <outline>
    <contour>
      <point x="451" y="130" type="curve" smooth="yes"/>
      <point x="451" y="218"/>
      <point x="512" y="280"/>
      <point x="600" y="280" type="curve" smooth="yes"/>
      <point x="688" y="280"/>
      <point x="749" y="218"/>
      <point x="749" y="130" type="curve" smooth="yes"/>
      <point x="749" y="42"/>
      <point x="693" y="-20"/>
      <point x="605" y="-20" type="curve" smooth="yes"/>
      <point x="517" y="-20"/>
      <point x="451" y="42"/>
    </contour>
  </outline>
</glyph>
<glyph name="slash" format="2">
  <advance width="1200"/>
  <unicode hex="002F"/>
  <outline>
    <contour>
      <point x="814" y="1350" type="line"/>
      <point x="956" y="1300" type="line"/>
      <point x="326" y="-160" type="line"/>
      <point x="184" y="-110" type="line"/>
    </contour>
  </outline>
</glyph>
<glyph name="zero" format="2">
  <advance width="1200"/>
  <unicode hex="0030"/>
  <outline>
    <contour>
      <point x="599" y="-20" type="curve" smooth="yes"/>
      <point x="303" y="-20"/>
      <point x="120" y="154"/>
      <point x="120" y="650" type="curve" smooth="yes"/>
      <point x="120" y="1116"/>
      <point x="322" y="1320"/>
      <point x="599" y="1320" type="curve" smooth="yes"/>
      <point x="876" y="1320"/>
      <point x="1079" y="1116"/>
      <point x="1079" y="650" type="curve" smooth="yes"/>
      <point x="1079" y="154"/>
      <point x="895" y="-20"/>
    </contour>
    <contour>
      <point x="599" y="1190" type="curve" smooth="yes"/>
      <point x="411" y="1190"/>
      <point x="280" y="1033"/>
      <point x="280" y="650" type="curve" smooth="yes"/>
      <point x="280" y="257"/>
      <point x="391" y="110"/>
      <point x="599" y="110" type="curve" smooth="yes"/>
      <point x="807" y="110"/>
      <point x="919" y="257"/>
      <point x="919" y="650" type="curve" smooth="yes"/>
      <point x="919" y="1033"/>
      <point x="787" y="1190"/>
    </contour>
  </outline>
</glyph>
<glyph name="one" format="2">
  <advance width="1200"/>
  <unicode hex="0031"/>
  <outline>
    <contour>
      <point x="180" y="0" type="line"/>
      <point x="180" y="130" type="line"/>
      <point x="570" y="130" type="line"/>
      <point x="570" y="1170" type="line"/>
      <point x="190" y="1170" type="line"/>
      <point x="190" y="1300" type="line"/>
      <point x="739" y="1300" type="line"/>
      <point x="739" y="130" type="line"/>
      <point x="1080" y="130" type="line"/>
      <point x="1080" y="0" type="line"/>
    </contour>
  </outline>
</glyph>
<glyph name="two" format="2">
  <advance width="1200"/>
  <unicode hex="0032"/>
  <outline>
    <contour>
      <point x="110" y="929" type="line"/>
      <point x="180" y="1139"/>
      <point x="362" y="1320"/>
      <point x="638" y="1320" type="curve" smooth="yes"/>
      <point x="854" y="1320"/>
      <point x="983" y="1191"/>
      <point x="983" y="1020" type="curve" smooth="yes"/>
      <point x="983" y="798"/>
      <point x="763" y="637"/>
      <point x="601" y="521" type="curve" smooth="yes"/>
      <point x="483" y="437"/>
      <point x="298" y="295"/>
      <point x="218" y="130" type="curve"/>
      <point x="999" y="130" type="line"/>
      <point x="999" y="0" type="line"/>
      <point x="109" y="0" type="line"/>
      <point x="59" y="100" type="line"/>
      <point x="99" y="273"/>
      <point x="340" y="505"/>
      <point x="541" y="642" type="curve" smooth="yes"/>
      <point x="689" y="742"/>
      <point x="833" y="871"/>
      <point x="833" y="1011" type="curve" smooth="yes"/>
      <point x="833" y="1124"/>
      <point x="742" y="1180"/>
      <point x="611" y="1180" type="curve" smooth="yes"/>
      <point x="433" y="1180"/>
      <point x="303" y="1032"/>
      <point x="243" y="889" type="curve"/>
    </contour>
  </outline>
</glyph>
<glyph name="three" format="2">
  <advance width="1200"/>
  <unicode hex="0033"/>
  <outline>
    <contour>
      <point x="562" y="780" type="line" smooth="yes"/>
      <point x="739" y="843"/>
      <point x="841" y="907"/>
      <point x="841" y="1030" type="curve" smooth="yes"/>
      <point x="841" y="1143"/>
      <point x="740" y="1194"/>
      <point x="602" y="1194" type="curve"/>
      <point x="602" y="1320" type="line"/>
      <point x="848" y="1320"/>
      <point x="1001" y="1196"/>
      <point x="1001" y="1040" type="curve" smooth="yes"/>
      <point x="1001" y="909"/>
      <point x="890" y="813"/>
      <point x="764" y="760" type="curve"/>
      <point x="966" y="758"/>
      <point x="1071" y="635"/>
      <point x="1071" y="470" type="curve" smooth="yes"/>
      <point x="1071" y="144"/>
      <point x="729" y="-73"/>
      <point x="182" y="-233" type="curve"/>
      <point x="137" y="-105" type="line"/>
      <point x="605" y="45"/>
      <point x="911" y="192"/>
      <point x="911" y="485" type="curve" smooth="yes"/>
      <point x="911" y="628"/>
      <point x="813" y="692"/>
      <point x="642" y="650" type="curve" smooth="yes"/>
      <point x="479" y="610" type="line"/>
      <point x="449" y="740" type="line"/>
    </contour>
    <contour>
      <point x="276" y="993" type="curve"/>
      <point x="153" y="1049" type="line"/>
      <point x="223" y="1189"/>
      <point x="386" y="1320"/>
      <point x="602" y="1320" type="curve"/>
      <point x="602" y="1194" type="line"/>
      <point x="454" y="1194"/>
      <point x="328" y="1096"/>
    </contour>
  </outline>
</glyph>
<glyph name="four" format="2">
  <advance width="1200"/>
  <unicode hex="0034"/>
  <outline>
    <contour>
      <point x="735" y="-220" type="line"/>
      <point x="785" y="610" type="line"/>
      <point x="929" y="610" type="line"/>
      <point x="879" y="-220" type="line"/>
    </contour>
    <contour>
      <point x="179" y="200" type="curve"/>
      <point x="1110" y="200" type="line"/>
      <point x="1110" y="70" type="line"/>
      <point x="70" y="70" type="line"/>
      <point x="0" y="200" type="line"/>
      <point x="290" y="560"/>
      <point x="510" y="850"/>
      <point x="590" y="1360" type="curve"/>
      <point x="750" y="1360" type="line"/>
      <point x="670" y="850"/>
      <point x="469" y="560"/>
    </contour>
  </outline>
</glyph>
<glyph name="five" format="2">
  <advance width="1200"/>
  <unicode hex="0035"/>
  <outline>
    <contour>
      <point x="724" y="845" type="line"/>
      <point x="957" y="844"/>
      <point x="1091" y="725"/>
      <point x="1091" y="510" type="curve" smooth="yes"/>
      <point x="1091" y="154"/>
      <point x="679" y="-110"/>
      <point x="172" y="-220" type="curve"/>
      <point x="142" y="-90" type="line"/>
      <point x="570" y="0"/>
      <point x="931" y="252"/>
      <point x="931" y="495" type="curve" smooth="yes"/>
      <point x="931" y="628"/>
      <point x="862" y="705"/>
      <point x="694" y="705" type="curve"/>
    </contour>
    <contour>
      <point x="300" y="1300" type="line"/>
      <point x="1040" y="1300" type="line"/>
      <point x="1040" y="1160" type="line"/>
      <point x="300" y="1160" type="line"/>
    </contour>
    <contour>
      <point x="165" y="564" type="line"/>
      <point x="300" y="1300" type="line"/>
      <point x="439" y="1270" type="line"/>
      <point x="306" y="573" type="line"/>
      <point x="237" y="546" type="line"/>
      <point x="357" y="706"/>
      <point x="510" y="845"/>
      <point x="724" y="845" type="curve"/>
      <point x="694" y="705" type="line"/>
      <point x="536" y="705"/>
      <point x="393" y="606"/>
      <point x="303" y="513" type="curve"/>
    </contour>
  </outline>
</glyph>
<glyph name="six" format="2">
  <advance width="1200"/>
  <unicode hex="0036"/>
  <outline>
    <contour>
      <point x="903" y="1406" type="line"/>
      <point x="589" y="1224"/>
      <point x="264" y="934"/>
      <point x="264" y="540" type="curve"/>
      <point x="223" y="529" type="line"/>
      <point x="290" y="733"/>
      <point x="440" y="900"/>
      <point x="682" y="900" type="curve" smooth="yes"/>
      <point x="904" y="900"/>
      <point x="1130" y="760"/>
      <point x="1130" y="440" type="curve" smooth="yes"/>
      <point x="1130" y="160"/>
      <point x="900" y="-20"/>
      <point x="618" y="-20" type="curve" smooth="yes"/>
      <point x="316" y="-20"/>
      <point x="120" y="190"/>
      <point x="120" y="530" type="curve" smooth="yes"/>
      <point x="120" y="1032"/>
      <point x="516" y="1340"/>
      <point x="813" y="1520" type="curve"/>
    </contour>
    <contour>
      <point x="971" y="450" type="curve" smooth="yes"/>
      <point x="971" y="678"/>
      <point x="816" y="762"/>
      <point x="648" y="762" type="curve" smooth="yes"/>
      <point x="462" y="762"/>
      <point x="297" y="600"/>
      <point x="297" y="440" type="curve" smooth="yes"/>
      <point x="297" y="242"/>
      <point x="420" y="120"/>
      <point x="638" y="120" type="curve" smooth="yes"/>
      <point x="826" y="120"/>
      <point x="971" y="252"/>
    </contour>
  </outline>
</glyph>
<glyph name="seven" format="2">
  <advance width="1200"/>
  <unicode hex="0037"/>
  <outline>
    <contour>
      <point x="1090" y="1300" type="line"/>
      <point x="1150" y="1190" type="line"/>
      <point x="860" y="830"/>
      <point x="530" y="290"/>
      <point x="460" y="-220" type="curve"/>
      <point x="320" y="-190" type="line"/>
      <point x="400" y="320"/>
      <point x="671" y="810"/>
      <point x="961" y="1170" type="curve"/>
      <point x="289" y="1170" type="line"/>
      <point x="219" y="860" type="line"/>
      <point x="100" y="860" type="line"/>
      <point x="140" y="1300" type="line"/>
    </contour>
  </outline>
</glyph>
<glyph name="eight" format="2">
  <advance width="1200"/>
  <unicode hex="0038"/>
  <outline>
    <contour>
      <point x="594" y="711" type="curve" smooth="yes"/>
      <point x="358" y="711"/>
      <point x="176" y="795"/>
      <point x="176" y="1001" type="curve" smooth="yes"/>
      <point x="176" y="1217"/>
      <point x="377" y="1321"/>
      <point x="594" y="1321" type="curve" smooth="yes"/>
      <point x="811" y="1321"/>
      <point x="1024" y="1217"/>
      <point x="1024" y="1001" type="curve" smooth="yes"/>
      <point x="1024" y="785"/>
      <point x="830" y="711"/>
    </contour>
    <contour>
      <point x="594" y="1196" type="curve" smooth="yes"/>
      <point x="466" y="1196"/>
      <point x="330" y="1124"/>
      <point x="330" y="991" type="curve" smooth="yes"/>
      <point x="330" y="878"/>
      <point x="466" y="796"/>
      <point x="594" y="796" type="curve" smooth="yes"/>
      <point x="732" y="796"/>
      <point x="870" y="868"/>
      <point x="870" y="991" type="curve" smooth="yes"/>
      <point x="870" y="1124"/>
      <point x="732" y="1196"/>
    </contour>
    <contour>
      <point x="594" y="-20" type="curve" smooth="yes"/>
      <point x="318" y="-20"/>
      <point x="96" y="114"/>
      <point x="96" y="360" type="curve" smooth="yes"/>
      <point x="96" y="606"/>
      <point x="337" y="756"/>
      <point x="594" y="756" type="curve" smooth="yes"/>
      <point x="851" y="756"/>
      <point x="1094" y="606"/>
      <point x="1094" y="360" type="curve" smooth="yes"/>
      <point x="1094" y="114"/>
      <point x="870" y="-20"/>
    </contour>
    <contour>
      <point x="594" y="661" type="curve" smooth="yes"/>
      <point x="426" y="661"/>
      <point x="260" y="553"/>
      <point x="260" y="380" type="curve" smooth="yes"/>
      <point x="260" y="197"/>
      <point x="406" y="115"/>
      <point x="594" y="115" type="curve" smooth="yes"/>
      <point x="782" y="115"/>
      <point x="930" y="197"/>
      <point x="930" y="380" type="curve" smooth="yes"/>
      <point x="930" y="553"/>
      <point x="762" y="661"/>
    </contour>
  </outline>
</glyph>
<glyph name="colon" format="2">
  <advance width="1200"/>
  <unicode hex="003A"/>
  <outline>
    <contour>
      <point x="451" y="790" type="curve" smooth="yes"/>
      <point x="451" y="878"/>
      <point x="512" y="940"/>
      <point x="600" y="940" type="curve" smooth="yes"/>
      <point x="688" y="940"/>
      <point x="749" y="878"/>
      <point x="749" y="790" type="curve" smooth="yes"/>
      <point x="749" y="702"/>
      <point x="693" y="640"/>
      <point x="605" y="640" type="curve" smooth="yes"/>
      <point x="517" y="640"/>
      <point x="451" y="702"/>
    </contour>
    <contour>
      <point x="451" y="130" type="curve" smooth="yes"/>
      <point x="451" y="218"/>
      <point x="512" y="280"/>
      <point x="600" y="280" type="curve" smooth="yes"/>
      <point x="688" y="280"/>
      <point x="749" y="218"/>
      <point x="749" y="130" type="curve" smooth="yes"/>
      <point x="749" y="42"/>
      <point x="693" y="-20"/>
      <point x="605" y="-20" type="curve" smooth="yes"/>
      <point x="517" y="-20"/>
      <point x="451" y="42"/>
    </contour>
  </outline>
</glyph>
<glyph name="semicolon" format="2">
  <advance width="1200"/>
  <unicode hex="003B"/>
  <outline>
    <contour>
      <point x="460" y="-320" type="line"/>
      <point x="500" y="290" type="line"/>
      <point x="710" y="290" type="line"/>
      <point x="580" y="-320" type="line"/>
    </contour>
    <contour>
      <point x="451" y="790" type="curve" smooth="yes"/>
      <point x="451" y="878"/>
      <point x="512" y="940"/>
      <point x="600" y="940" type="curve" smooth="yes"/>
      <point x="688" y="940"/>
      <point x="749" y="878"/>
      <point x="749" y="790" type="curve" smooth="yes"/>
      <point x="749" y="702"/>
      <point x="693" y="640"/>
      <point x="605" y="640" type="curve" smooth="yes"/>
      <point x="517" y="640"/>
      <point x="451" y="702"/>
    </contour>
  </outline>
</glyph>
<glyph name="less" format="2">
  <advance width="1200"/>
  <unicode hex="003C"/>
  <outline>
    <contour>
      <point x="229" y="770" type="line"/>
      <point x="931" y="1060" type="line"/>
      <point x="971" y="930" type="line"/>
      <point x="330" y="675" type="line"/>
      <point x="971" y="420" type="line"/>
      <point x="931" y="290" type="line"/>
      <point x="229" y="580" type="line"/>
    </contour>
  </outline>
</glyph>
<glyph name="equal" format="2">
  <advance width="1200"/>
  <unicode hex="003D"/>
  <outline>
    <contour>
      <point x="229" y="910" type="line"/>
      <point x="971" y="910" type="line"/>
      <point x="971" y="780" type="line"/>
      <point x="229" y="780" type="line"/>
    </contour>
    <contour>
      <point x="229" y="570" type="line"/>
      <point x="971" y="570" type="line"/>
      <point x="971" y="440" type="line"/>
      <point x="229" y="440" type="line"/>
    </contour>
  </outline>
</glyph>
<glyph name="greater" format="2">
  <advance width="1200"/>
  <unicode hex="003E"/>
  <outline>
    <contour>
      <point x="971" y="770" type="line"/>
      <point x="971" y="580" type="line"/>
      <point x="269" y="290" type="line"/>
      <point x="229" y="420" type="line"/>
      <point x="870" y="675" type="line"/>
      <point x="229" y="930" type="line"/>
      <point x="269" y="1060" type="line"/>
    </contour>
  </outline>
</glyph>
<glyph name="question" format="2">
  <advance width="1200"/>
  <unicode hex="003F"/>
  <outline>
    <contour>
      <point x="238" y="933" type="curve"/>
      <point x="123" y="999" type="line"/>
      <point x="223" y="1149"/>
      <point x="446" y="1320"/>
      <point x="742" y="1320" type="curve"/>
      <point x="692" y="1180" type="line"/>
      <point x="524" y="1180"/>
      <point x="350" y="1076"/>
    </contour>
    <contour>
      <point x="451" y="130" type="curve" smooth="yes"/>
      <point x="451" y="218"/>
      <point x="512" y="280"/>
      <point x="600" y="280" type="curve" smooth="yes"/>
      <point x="688" y="280"/>
      <point x="749" y="218"/>
      <point x="749" y="130" type="curve" smooth="yes"/>
      <point x="749" y="42"/>
      <point x="693" y="-20"/>
      <point x="605" y="-20" type="curve" smooth="yes"/>
      <point x="517" y="-20"/>
      <point x="451" y="42"/>
    </contour>
    <contour>
      <point x="871" y="1040" type="curve" smooth="yes"/>
      <point x="871" y="1143"/>
      <point x="800" y="1180"/>
      <point x="692" y="1180" type="curve"/>
      <point x="742" y="1320" type="line"/>
      <point x="968" y="1320"/>
      <point x="1071" y="1236"/>
      <point x="1071" y="1060" type="curve" smooth="yes"/>
      <point x="1071" y="896"/>
      <point x="956" y="771"/>
      <point x="794" y="669" type="curve" smooth="yes"/>
      <point x="682" y="598"/>
      <point x="624" y="546"/>
      <point x="591" y="431" type="curve"/>
      <point x="471" y="482" type="line"/>
      <point x="492" y="596"/>
      <point x="574" y="682"/>
      <point x="676" y="750" type="curve" smooth="yes"/>
      <point x="801" y="834"/>
      <point x="871" y="930"/>
    </contour>
  </outline>
</glyph>
<glyph name="at" format="2">
  <advance width="1200"/>
  <unicode hex="0040"/>
  <outline>
    <contour>
      <point x="60" y="530" type="curve" smooth="yes"/>
      <point x="60" y="938"/>
      <point x="312" y="1320"/>
      <point x="720" y="1320" type="curve" smooth="yes"/>
      <point x="1048" y="1320"/>
      <point x="1130" y="1098"/>
      <point x="1130" y="810" type="curve" smooth="yes"/>
      <point x="1130" y="548"/>
      <point x="1042" y="300"/>
      <point x="872" y="300" type="curve" smooth="yes"/>
      <point x="750" y="300"/>
      <point x="702" y="408"/>
      <point x="722" y="540" type="curve"/>
      <point x="739" y="540" type="line"/>
      <point x="719" y="442"/>
      <point x="646" y="320"/>
      <point x="526" y="320" type="curve" smooth="yes"/>
      <point x="420" y="320"/>
      <point x="320" y="386"/>
      <point x="320" y="554" type="curve" smooth="yes"/>
      <point x="320" y="832"/>
      <point x="581" y="1040"/>
      <point x="821" y="1040" type="curve"/>
      <point x="887" y="991" type="line"/>
      <point x="828" y="578" type="line" smooth="yes"/>
      <point x="812" y="466"/>
      <point x="813" y="412"/>
      <point x="872" y="412" type="curve" smooth="yes"/>
      <point x="972" y="412"/>
      <point x="1010" y="648"/>
      <point x="1010" y="830" type="curve" smooth="yes"/>
      <point x="1010" y="1056"/>
      <point x="936" y="1210"/>
      <point x="730" y="1210" type="curve" smooth="yes"/>
      <point x="384" y="1210"/>
      <point x="190" y="876"/>
      <point x="190" y="550" type="curve" smooth="yes"/>
      <point x="190" y="274"/>
      <point x="294" y="100"/>
      <point x="580" y="100" type="curve" smooth="yes"/>
      <point x="690" y="100"/>
      <point x="822" y="120"/>
      <point x="924" y="194" type="curve"/>
      <point x="982" y="100" type="line"/>
      <point x="882" y="28"/>
      <point x="708" y="-20"/>
      <point x="570" y="-20" type="curve" smooth="yes"/>
      <point x="192" y="-20"/>
      <point x="60" y="202"/>
    </contour>
    <contour>
      <point x="720" y="696" type="curve" smooth="yes"/>
      <point x="757" y="948" type="line"/>
      <point x="553" y="927"/>
      <point x="462" y="742"/>
      <point x="462" y="580" type="curve" smooth="yes"/>
      <point x="462" y="478"/>
      <point x="506" y="450"/>
      <point x="556" y="450" type="curve" smooth="yes"/>
      <point x="612" y="450"/>
      <point x="693" y="515"/>
    </contour>
  </outline>
</glyph>
<glyph name="A" format="2">
  <advance width="1200"/>
  <unicode hex="0041"/>
  <anchor x="599" y="1300" name="Anchor-0"/>
  <anchor x="599" y="0" name="Anchor-2"/>
  <anchor x="1049" y="-20" name="Anchor-3"/>
  <outline>
    <contour>
      <point x="231" y="1300" type="line"/>
      <point x="530" y="1300" type="line"/>
      <point x="530" y="1190" type="line"/>
      <point x="231" y="1170" type="line"/>
    </contour>
    <contour>
      <point x="239" y="-20" type="line"/>
      <point x="67" y="-20" type="line"/>
      <point x="530" y="1300" type="line"/>
      <point x="730" y="1300" type="line"/>
      <point x="1133" y="-20" type="line"/>
      <point x="961" y="-20" type="line"/>
      <point x="610" y="1230" type="line"/>
      <point x="650" y="1230" type="line"/>
    </contour>
    <contour>
      <point x="319" y="500" type="line"/>
      <point x="882" y="500" type="line"/>
      <point x="882" y="370" type="line"/>
      <point x="319" y="370" type="line"/>
    </contour>
  </outline>
</glyph>
<glyph name="B" format="2">
  <advance width="1200"/>
  <unicode hex="0042"/>
  <anchor x="586" y="0" name="Anchor-2"/>
  <anchor x="514" y="1300" name="Anchor-0"/>
  <outline>
    <contour>
      <point x="250" y="1170" type="line"/>
      <point x="80" y="1170" type="line"/>
      <point x="80" y="1300" type="line"/>
      <point x="572" y="1300" type="line" smooth="yes"/>
      <point x="878" y="1300"/>
      <point x="1031" y="1196"/>
      <point x="1031" y="990" type="curve" smooth="yes"/>
      <point x="1031" y="754"/>
      <point x="859" y="670"/>
      <point x="572" y="670" type="curve"/>
      <point x="642" y="690" type="line"/>
      <point x="948" y="690"/>
      <point x="1101" y="586"/>
      <point x="1101" y="350" type="curve" smooth="yes"/>
      <point x="1101" y="134"/>
      <point x="929" y="0"/>
      <point x="642" y="0" type="curve" smooth="yes"/>
      <point x="80" y="0" type="line"/>
      <point x="80" y="130" type="line"/>
      <point x="250" y="130" type="line"/>
    </contour>
    <contour>
      <point x="409" y="130" type="line"/>
      <point x="642" y="130" type="line" smooth="yes"/>
      <point x="850" y="130"/>
      <point x="931" y="242"/>
      <point x="931" y="365" type="curve" smooth="yes"/>
      <point x="931" y="498"/>
      <point x="860" y="610"/>
      <point x="642" y="610" type="curve" smooth="yes"/>
      <point x="409" y="610" type="line"/>
    </contour>
    <contour>
      <point x="572" y="740" type="line" smooth="yes"/>
      <point x="760" y="740"/>
      <point x="861" y="827"/>
      <point x="861" y="950" type="curve" smooth="yes"/>
      <point x="861" y="1083"/>
      <point x="780" y="1170"/>
      <point x="572" y="1170" type="curve" smooth="yes"/>
      <point x="409" y="1170" type="line"/>
      <point x="409" y="740" type="line"/>
    </contour>
  </outline>
</glyph>
<glyph name="C" format="2">
  <advance width="1200"/>
  <unicode hex="0043"/>
  <anchor x="606" y="0" name="Anchor-3"/>
  <anchor x="607" y="0" name="Anchor-2"/>
  <anchor x="646" y="1300" name="Anchor-0"/>
  <outline>
    <contour>
      <point x="928" y="380" type="curve"/>
      <point x="1078" y="350" type="line"/>
      <point x="1028" y="154"/>
      <point x="886" y="-20"/>
      <point x="599" y="-20" type="curve" smooth="yes"/>
      <point x="303" y="-20"/>
      <point x="120" y="214"/>
      <point x="120" y="650" type="curve" smooth="yes"/>
      <point x="120" y="1076"/>
      <point x="332" y="1320"/>
      <point x="579" y="1320" type="curve" smooth="yes"/>
      <point x="856" y="1320"/>
      <point x="938" y="1106"/>
      <point x="958" y="900" type="curve"/>
      <point x="898" y="950" type="line"/>
      <point x="927" y="1300" type="line"/>
      <point x="1057" y="1300" type="line"/>
      <point x="1057" y="870" type="line"/>
      <point x="898" y="870" type="line"/>
      <point x="848" y="1063"/>
      <point x="777" y="1180"/>
      <point x="619" y="1180" type="curve" smooth="yes"/>
      <point x="441" y="1180"/>
      <point x="280" y="1023"/>
      <point x="280" y="650" type="curve" smooth="yes"/>
      <point x="280" y="267"/>
      <point x="431" y="130"/>
      <point x="629" y="130" type="curve" smooth="yes"/>
      <point x="817" y="130"/>
      <point x="888" y="256"/>
    </contour>
  </outline>
</glyph>
<glyph name="D" format="2">
  <advance width="1200"/>
  <unicode hex="0044"/>
  <anchor x="513" y="0" name="Anchor-2"/>
  <anchor x="514" y="1300" name="Anchor-0"/>
  <outline>
    <contour>
      <point x="40" y="0" type="line"/>
      <point x="40" y="130" type="line"/>
      <point x="210" y="130" type="line"/>
      <point x="210" y="1170" type="line"/>
      <point x="40" y="1170" type="line"/>
      <point x="40" y="1300" type="line"/>
      <point x="552" y="1300" type="line" smooth="yes"/>
      <point x="888" y="1300"/>
      <point x="1101" y="1026"/>
      <point x="1101" y="650" type="curve" smooth="yes"/>
      <point x="1101" y="284"/>
      <point x="869" y="0"/>
      <point x="552" y="0" type="curve" smooth="yes"/>
    </contour>
    <contour>
      <point x="369" y="130" type="line"/>
      <point x="512" y="130" type="line" smooth="yes"/>
      <point x="750" y="130"/>
      <point x="931" y="327"/>
      <point x="931" y="650" type="curve" smooth="yes"/>
      <point x="931" y="983"/>
      <point x="770" y="1170"/>
      <point x="512" y="1170" type="curve" smooth="yes"/>
      <point x="369" y="1170" type="line"/>
    </contour>
  </outline>
</glyph>
<glyph name="E" format="2">
  <advance width="1200"/>
  <unicode hex="0045"/>
  <anchor x="956" y="0" name="Anchor-3"/>
  <anchor x="546" y="0" name="Anchor-2"/>
  <anchor x="574" y="1300" name="Anchor-0"/>
  <outline>
    <contour>
      <point x="781" y="740" type="line"/>
      <point x="781" y="605" type="line"/>
      <point x="419" y="615" type="line"/>
      <point x="419" y="130" type="line"/>
      <point x="908" y="130" type="line"/>
      <point x="941" y="450" type="line"/>
      <point x="1060" y="450" type="line"/>
      <point x="1060" y="0" type="line"/>
      <point x="70" y="0" type="line"/>
      <point x="70" y="130" type="line"/>
      <point x="250" y="130" type="line"/>
      <point x="250" y="1170" type="line"/>
      <point x="70" y="1170" type="line"/>
      <point x="70" y="1300" type="line"/>
      <point x="1020" y="1300" type="line"/>
      <point x="1060" y="900" type="line"/>
      <point x="941" y="900" type="line"/>
      <point x="871" y="1170" type="line"/>
      <point x="419" y="1170" type="line"/>
      <point x="419" y="730" type="line"/>
    </contour>
  </outline>
</glyph>
<glyph name="F" format="2">
  <advance width="1200"/>
  <unicode hex="0046"/>
  <anchor x="376" y="0" name="Anchor-2"/>
  <anchor x="604" y="1300" name="Anchor-0"/>
  <outline>
    <contour>
      <point x="811" y="710" type="line"/>
      <point x="811" y="575" type="line"/>
      <point x="439" y="585" type="line"/>
      <point x="439" y="130" type="line"/>
      <point x="699" y="130" type="line"/>
      <point x="699" y="0" type="line"/>
      <point x="100" y="0" type="line"/>
      <point x="100" y="130" type="line"/>
      <point x="270" y="130" type="line"/>
      <point x="270" y="1170" type="line"/>
      <point x="100" y="1170" type="line"/>
      <point x="100" y="1300" type="line"/>
      <point x="1050" y="1300" type="line"/>
      <point x="1090" y="860" type="line"/>
      <point x="971" y="860" type="line"/>
      <point x="901" y="1170" type="line"/>
      <point x="439" y="1170" type="line"/>
      <point x="439" y="700" type="line"/>
    </contour>
  </outline>
</glyph>
<glyph name="G" format="2">
  <advance width="1200"/>
  <unicode hex="0047"/>
  <anchor x="637" y="0" name="Anchor-2"/>
  <anchor x="686" y="1300" name="Anchor-0"/>
  <outline>
    <contour>
      <point x="898" y="500" type="curve"/>
      <point x="988" y="440" type="line"/>
      <point x="968" y="224"/>
      <point x="866" y="-20"/>
      <point x="579" y="-20" type="curve" smooth="yes"/>
      <point x="283" y="-20"/>
      <point x="100" y="214"/>
      <point x="100" y="650" type="curve" smooth="yes"/>
      <point x="100" y="1076"/>
      <point x="312" y="1320"/>
      <point x="559" y="1320" type="curve" smooth="yes"/>
      <point x="836" y="1320"/>
      <point x="918" y="1106"/>
      <point x="938" y="900" type="curve"/>
      <point x="878" y="950" type="line"/>
      <point x="907" y="1300" type="line"/>
      <point x="1037" y="1300" type="line"/>
      <point x="1037" y="870" type="line"/>
      <point x="878" y="870" type="line"/>
      <point x="828" y="1063"/>
      <point x="757" y="1180"/>
      <point x="599" y="1180" type="curve" smooth="yes"/>
      <point x="421" y="1180"/>
      <point x="270" y="1023"/>
      <point x="270" y="650" type="curve" smooth="yes"/>
      <point x="270" y="267"/>
      <point x="421" y="120"/>
      <point x="599" y="120" type="curve" smooth="yes"/>
      <point x="767" y="120"/>
      <point x="898" y="216"/>
    </contour>
    <contour>
      <point x="617" y="620" type="line"/>
      <point x="1057" y="620" type="line"/>
      <point x="1057" y="0" type="line"/>
      <point x="947" y="0" type="line"/>
      <point x="898" y="500" type="line"/>
      <point x="617" y="500" type="line"/>
    </contour>
  </outline>
</glyph>
<glyph name="H" format="2">
  <advance width="1200"/>
  <unicode hex="0048"/>
  <anchor x="596" y="0" name="Anchor-2"/>
  <anchor x="596" y="1300" name="Anchor-0"/>
  <outline>
    <contour>
      <point x="851" y="610" type="line"/>
      <point x="349" y="610" type="line"/>
      <point x="349" y="130" type="line"/>
      <point x="508" y="130" type="line"/>
      <point x="508" y="0" type="line"/>
      <point x="40" y="0" type="line"/>
      <point x="40" y="130" type="line"/>
      <point x="190" y="130" type="line"/>
      <point x="190" y="1170" type="line"/>
      <point x="40" y="1170" type="line"/>
      <point x="40" y="1300" type="line"/>
      <point x="508" y="1300" type="line"/>
      <point x="508" y="1170" type="line"/>
      <point x="349" y="1170" type="line"/>
      <point x="349" y="740" type="line"/>
      <point x="851" y="740" type="line"/>
      <point x="851" y="1170" type="line"/>
      <point x="692" y="1170" type="line"/>
      <point x="692" y="1300" type="line"/>
      <point x="1160" y="1300" type="line"/>
      <point x="1160" y="1170" type="line"/>
      <point x="1010" y="1170" type="line"/>
      <point x="1010" y="130" type="line"/>
      <point x="1160" y="130" type="line"/>
      <point x="1160" y="0" type="line"/>
      <point x="692" y="0" type="line"/>
      <point x="692" y="130" type="line"/>
      <point x="851" y="130" type="line"/>
    </contour>
  </outline>
</glyph>
<glyph name="I" format="2">
  <advance width="1200"/>
  <unicode hex="0049"/>
  <anchor x="602" y="0" name="Anchor-3"/>
  <anchor x="602" y="0" name="Anchor-2"/>
  <anchor x="586" y="1300" name="Anchor-0"/>
  <outline>
    <contour>
      <point x="150" y="0" type="line"/>
      <point x="150" y="130" type="line"/>
      <point x="515" y="130" type="line"/>
      <point x="515" y="1170" type="line"/>
      <point x="160" y="1170" type="line"/>
      <point x="160" y="1300" type="line"/>
      <point x="1040" y="1300" type="line"/>
      <point x="1040" y="1170" type="line"/>
      <point x="685" y="1170" type="line"/>
      <point x="685" y="130" type="line"/>
      <point x="1050" y="130" type="line"/>
      <point x="1050" y="0" type="line"/>
    </contour>
  </outline>
</glyph>
<glyph name="J" format="2">
  <advance width="1200"/>
  <unicode hex="004A"/>
  <anchor x="498" y="0" name="Anchor-2"/>
  <anchor x="766" y="1300" name="Anchor-0"/>
  <outline>
    <contour>
      <point x="100" y="350" type="curve"/>
      <point x="260" y="350" type="line"/>
      <point x="280" y="217"/>
      <point x="356" y="124"/>
      <point x="494" y="124" type="curve" smooth="yes"/>
      <point x="642" y="124"/>
      <point x="759" y="217"/>
      <point x="759" y="430" type="curve" smooth="yes"/>
      <point x="760" y="1170" type="line"/>
      <point x="541" y="1170" type="line"/>
      <point x="541" y="1300" type="line"/>
      <point x="1110" y="1300" type="line"/>
      <point x="1110" y="1170" type="line"/>
      <point x="920" y="1170" type="line"/>
      <point x="919" y="430" type="line" smooth="yes"/>
      <point x="919" y="174"/>
      <point x="765" y="-20"/>
      <point x="499" y="-20" type="curve" smooth="yes"/>
      <point x="253" y="-20"/>
      <point x="110" y="144"/>
    </contour>
  </outline>
</glyph>
<glyph name="K" format="2">
  <advance width="1200"/>
  <unicode hex="004B"/>
  <anchor x="661" y="0" name="Anchor-2"/>
  <anchor x="626" y="1300" name="Anchor-0"/>
  <outline>
    <contour>
      <point x="661" y="1300" type="line"/>
      <point x="1140" y="1300" type="line"/>
      <point x="1140" y="1170" type="line"/>
      <point x="972" y="1170" type="line"/>
      <point x="635" y="750" type="line"/>
      <point x="1025" y="130" type="line"/>
      <point x="1180" y="130" type="line"/>
      <point x="1180" y="0" type="line"/>
      <point x="711" y="0" type="line"/>
      <point x="711" y="130" type="line"/>
      <point x="846" y="130" type="line"/>
      <point x="530" y="648" type="line"/>
      <point x="370" y="460" type="line"/>
      <point x="370" y="130" type="line"/>
      <point x="529" y="130" type="line"/>
      <point x="529" y="0" type="line"/>
      <point x="70" y="0" type="line"/>
      <point x="70" y="130" type="line"/>
      <point x="220" y="130" type="line"/>
      <point x="220" y="1170" type="line"/>
      <point x="70" y="1170" type="line"/>
      <point x="70" y="1300" type="line"/>
      <point x="509" y="1300" type="line"/>
      <point x="509" y="1170" type="line"/>
      <point x="370" y="1170" type="line"/>
      <point x="370" y="634" type="line"/>
      <point x="802" y="1170" type="line"/>
      <point x="661" y="1170" type="line"/>
    </contour>
  </outline>
</glyph>
<glyph name="L" format="2">
  <advance width="1200"/>
  <unicode hex="004C"/>
  <anchor x="616" y="0" name="Anchor-2"/>
  <anchor x="789" y="943" name="Anchor-1"/>
  <anchor x="344" y="1300" name="Anchor-0"/>
  <outline>
    <contour>
      <point x="991" y="550" type="line"/>
      <point x="1100" y="550" type="line"/>
      <point x="1080" y="0" type="line"/>
      <point x="70" y="0" type="line"/>
      <point x="70" y="130" type="line"/>
      <point x="260" y="130" type="line"/>
      <point x="260" y="1180" type="line"/>
      <point x="90" y="1180" type="line"/>
      <point x="90" y="1300" type="line"/>
      <point x="619" y="1300" type="line"/>
      <point x="619" y="1180" type="line"/>
      <point x="419" y="1180" type="line"/>
      <point x="419" y="130" type="line"/>
      <point x="925" y="130" type="line"/>
    </contour>
  </outline>
</glyph>
<glyph name="M" format="2">
  <advance width="1200"/>
  <unicode hex="004D"/>
  <anchor x="606" y="0" name="Anchor-2"/>
  <anchor x="606" y="1300" name="Anchor-0"/>
  <outline>
    <contour>
      <point x="158" y="1170" type="line"/>
      <point x="0" y="1170" type="line"/>
      <point x="0" y="1300" type="line"/>
      <point x="383" y="1300" type="line"/>
      <point x="645" y="480" type="line"/>
      <point x="555" y="480" type="line"/>
      <point x="817" y="1300" type="line"/>
      <point x="1200" y="1300" type="line"/>
      <point x="1200" y="1170" type="line"/>
      <point x="1042" y="1170" type="line"/>
      <point x="1058" y="130" type="line"/>
      <point x="1200" y="130" type="line"/>
      <point x="1200" y="0" type="line"/>
      <point x="731" y="0" type="line"/>
      <point x="731" y="130" type="line"/>
      <point x="914" y="130" type="line"/>
      <point x="899" y="724" type="line"/>
      <point x="934" y="1204" type="line"/>
      <point x="630" y="350" type="line"/>
      <point x="570" y="350" type="line"/>
      <point x="266" y="1204" type="line"/>
      <point x="301" y="724" type="line"/>
      <point x="286" y="130" type="line"/>
      <point x="469" y="130" type="line"/>
      <point x="469" y="0" type="line"/>
      <point x="0" y="0" type="line"/>
      <point x="0" y="130" type="line"/>
      <point x="142" y="130" type="line"/>
    </contour>
  </outline>
</glyph>
<glyph name="N" format="2">
  <advance width="1200"/>
  <unicode hex="004E"/>
  <anchor x="626" y="0" name="Anchor-2"/>
  <anchor x="636" y="1300" name="Anchor-0"/>
  <outline>
    <contour>
      <point x="220" y="1160" type="line"/>
      <point x="62" y="1160" type="line"/>
      <point x="62" y="1300" type="line"/>
      <point x="220" y="1300" type="line"/>
    </contour>
    <contour>
      <point x="220" y="1300" type="line"/>
      <point x="478" y="1300" type="line"/>
      <point x="921" y="313" type="line"/>
      <point x="921" y="1320" type="line"/>
      <point x="1070" y="1320" type="line"/>
      <point x="1070" y="-20" type="line"/>
      <point x="932" y="-20" type="line"/>
      <point x="472" y="987" type="line"/>
      <point x="347" y="1197" type="line"/>
      <point x="359" y="997" type="line"/>
      <point x="359" y="-20" type="line"/>
      <point x="220" y="-20" type="line"/>
    </contour>
  </outline>
</glyph>
<glyph name="O" format="2">
  <advance width="1200"/>
  <unicode hex="004F"/>
  <anchor x="599" y="0" name="Anchor-2"/>
  <anchor x="599" y="1300" name="Anchor-0"/>
  <outline>
    <contour>
      <point x="599" y="-20" type="curve" smooth="yes"/>
      <point x="283" y="-20"/>
      <point x="100" y="214"/>
      <point x="100" y="650" type="curve" smooth="yes"/>
      <point x="100" y="1076"/>
      <point x="302" y="1320"/>
      <point x="599" y="1320" type="curve" smooth="yes"/>
      <point x="896" y="1320"/>
      <point x="1099" y="1076"/>
      <point x="1099" y="650" type="curve" smooth="yes"/>
      <point x="1099" y="214"/>
      <point x="915" y="-20"/>
    </contour>
    <contour>
      <point x="599" y="1180" type="curve" smooth="yes"/>
      <point x="411" y="1180"/>
      <point x="260" y="1003"/>
      <point x="260" y="650" type="curve" smooth="yes"/>
      <point x="260" y="287"/>
      <point x="391" y="120"/>
      <point x="599" y="120" type="curve" smooth="yes"/>
      <point x="807" y="120"/>
      <point x="939" y="287"/>
      <point x="939" y="650" type="curve" smooth="yes"/>
      <point x="939" y="1003"/>
      <point x="787" y="1180"/>
    </contour>
  </outline>
</glyph>
<glyph name="P" format="2">
  <advance width="1200"/>
  <unicode hex="0050"/>
  <anchor x="362" y="0" name="Anchor-2"/>
  <anchor x="566" y="1300" name="Anchor-0"/>
  <outline>
    <contour>
      <point x="100" y="0" type="line"/>
      <point x="100" y="130" type="line"/>
      <point x="270" y="130" type="line"/>
      <point x="270" y="1170" type="line"/>
      <point x="100" y="1170" type="line"/>
      <point x="100" y="1300" type="line"/>
      <point x="662" y="1300" type="line" smooth="yes"/>
      <point x="948" y="1300"/>
      <point x="1121" y="1166"/>
      <point x="1121" y="910" type="curve" smooth="yes"/>
      <point x="1121" y="664"/>
      <point x="929" y="530"/>
      <point x="662" y="530" type="curve" smooth="yes"/>
      <point x="429" y="530" type="line"/>
      <point x="429" y="130" type="line"/>
      <point x="669" y="130" type="line"/>
      <point x="669" y="0" type="line"/>
    </contour>
    <contour>
      <point x="429" y="660" type="line"/>
      <point x="662" y="660" type="line" smooth="yes"/>
      <point x="880" y="660"/>
      <point x="961" y="787"/>
      <point x="961" y="910" type="curve" smooth="yes"/>
      <point x="961" y="1043"/>
      <point x="900" y="1170"/>
      <point x="662" y="1170" type="curve" smooth="yes"/>
      <point x="429" y="1170" type="line"/>
    </contour>
  </outline>
</glyph>
<glyph name="Q" format="2">
  <advance width="1200"/>
  <unicode hex="0051"/>
  <anchor x="599" y="1300" name="Anchor-0"/>
  <outline>
    <contour>
      <point x="251" y="227" type="line"/>
      <point x="271" y="373"/>
      <point x="390" y="472"/>
      <point x="511" y="472" type="curve" smooth="yes"/>
      <point x="880" y="472"/>
      <point x="696" y="-158"/>
      <point x="960" y="-158" type="curve" smooth="yes"/>
      <point x="1029" y="-158"/>
      <point x="1060" y="-71"/>
      <point x="1090" y="1" type="curve"/>
      <point x="1200" y="-39" type="line"/>
      <point x="1150" y="-171"/>
      <point x="1073" y="-278"/>
      <point x="943" y="-278" type="curve" smooth="yes"/>
      <point x="583" y="-278"/>
      <point x="721" y="342"/>
      <point x="500" y="342" type="curve" smooth="yes"/>
      <point x="397" y="342"/>
      <point x="331" y="228"/>
      <point x="331" y="127" type="curve"/>
    </contour>
    <contour>
      <point x="599" y="-20" type="curve" smooth="yes"/>
      <point x="293" y="-20"/>
      <point x="100" y="214"/>
      <point x="100" y="650" type="curve" smooth="yes"/>
      <point x="100" y="1076"/>
      <point x="312" y="1320"/>
      <point x="599" y="1320" type="curve" smooth="yes"/>
      <point x="886" y="1320"/>
      <point x="1099" y="1076"/>
      <point x="1099" y="650" type="curve" smooth="yes"/>
      <point x="1099" y="214"/>
      <point x="905" y="-20"/>
    </contour>
    <contour>
      <point x="599" y="1180" type="curve" smooth="yes"/>
      <point x="411" y="1180"/>
      <point x="260" y="1023"/>
      <point x="260" y="650" type="curve" smooth="yes"/>
      <point x="260" y="267"/>
      <point x="391" y="110"/>
      <point x="599" y="110" type="curve" smooth="yes"/>
      <point x="807" y="110"/>
      <point x="939" y="267"/>
      <point x="939" y="650" type="curve" smooth="yes"/>
      <point x="939" y="1023"/>
      <point x="787" y="1180"/>
    </contour>
  </outline>
</glyph>
<glyph name="R" format="2">
  <advance width="1200"/>
  <unicode hex="0052"/>
  <anchor x="586" y="0" name="Anchor-2"/>
  <anchor x="546" y="1300" name="Anchor-0"/>
  <outline>
    <contour>
      <point x="40" y="0" type="line"/>
      <point x="40" y="130" type="line"/>
      <point x="200" y="130" type="line"/>
      <point x="200" y="1170" type="line"/>
      <point x="40" y="1170" type="line"/>
      <point x="40" y="1300" type="line"/>
      <point x="552" y="1300" type="line" smooth="yes"/>
      <point x="858" y="1300"/>
      <point x="1011" y="1181"/>
      <point x="1011" y="935" type="curve" smooth="yes"/>
      <point x="1011" y="689"/>
      <point x="809" y="585"/>
      <point x="522" y="585" type="curve"/>
      <point x="512" y="640" type="line"/>
      <point x="758" y="640"/>
      <point x="884" y="525"/>
      <point x="901" y="290" type="curve" smooth="yes"/>
      <point x="909" y="177"/>
      <point x="885" y="110"/>
      <point x="961" y="110" type="curve" smooth="yes"/>
      <point x="1044" y="110"/>
      <point x="1036" y="237"/>
      <point x="1046" y="350" type="curve"/>
      <point x="1171" y="320" type="line"/>
      <point x="1161" y="184"/>
      <point x="1147" y="-40"/>
      <point x="971" y="-40" type="curve" smooth="yes"/>
      <point x="795" y="-40"/>
      <point x="760" y="80"/>
      <point x="741" y="275" type="curve" smooth="yes"/>
      <point x="721" y="478"/>
      <point x="660" y="540"/>
      <point x="482" y="540" type="curve" smooth="yes"/>
      <point x="359" y="540" type="line"/>
      <point x="359" y="130" type="line"/>
      <point x="562" y="130" type="line"/>
      <point x="562" y="0" type="line"/>
    </contour>
    <contour>
      <point x="359" y="670" type="line"/>
      <point x="522" y="670" type="line" smooth="yes"/>
      <point x="690" y="670"/>
      <point x="841" y="742"/>
      <point x="841" y="915" type="curve" smooth="yes"/>
      <point x="841" y="1098"/>
      <point x="720" y="1170"/>
      <point x="552" y="1170" type="curve" smooth="yes"/>
      <point x="359" y="1170" type="line"/>
    </contour>
  </outline>
</glyph>
<glyph name="S" format="2">
  <advance width="1200"/>
  <unicode hex="0053"/>
  <anchor x="636" y="0" name="Anchor-3"/>
  <anchor x="635" y="0" name="Anchor-2"/>
  <anchor x="606" y="1300" name="Anchor-0"/>
  <outline>
    <contour>
      <point x="912" y="1310" type="line"/>
      <point x="1032" y="1310" type="line"/>
      <point x="1032" y="909" type="line"/>
      <point x="882" y="909" type="line"/>
      <point x="842" y="1062"/>
      <point x="692" y="1180"/>
      <point x="554" y="1180" type="curve" smooth="yes"/>
      <point x="433" y="1180"/>
      <point x="319" y="1124"/>
      <point x="319" y="1001" type="curve" smooth="yes"/>
      <point x="319" y="861"/>
      <point x="501" y="789"/>
      <point x="661" y="742" type="curve" smooth="yes"/>
      <point x="877" y="679"/>
      <point x="1089" y="593"/>
      <point x="1089" y="350" type="curve" smooth="yes"/>
      <point x="1089" y="100"/>
      <point x="892" y="-29"/>
      <point x="660" y="-29" type="curve" smooth="yes"/>
      <point x="393" y="-29"/>
      <point x="182" y="181"/>
      <point x="182" y="441" type="curve"/>
      <point x="267" y="311" type="line"/>
      <point x="232" y="-10" type="line"/>
      <point x="107" y="-10" type="line"/>
      <point x="107" y="481" type="line"/>
      <point x="252" y="481" type="line"/>
      <point x="292" y="253"/>
      <point x="467" y="111"/>
      <point x="640" y="111" type="curve" smooth="yes"/>
      <point x="792" y="111"/>
      <point x="929" y="202"/>
      <point x="929" y="341" type="curve" smooth="yes"/>
      <point x="929" y="505"/>
      <point x="765" y="558"/>
      <point x="611" y="599" type="curve" smooth="yes"/>
      <point x="424" y="649"/>
      <point x="159" y="748"/>
      <point x="159" y="1000" type="curve" smooth="yes"/>
      <point x="159" y="1191"/>
      <point x="318" y="1320"/>
      <point x="544" y="1320" type="curve" smooth="yes"/>
      <point x="750" y="1320"/>
      <point x="937" y="1149"/>
      <point x="937" y="959" type="curve"/>
      <point x="867" y="1079" type="line"/>
    </contour>
  </outline>
</glyph>
<glyph name="T" format="2">
  <advance width="1200"/>
  <unicode hex="0054"/>
  <anchor x="601" y="0" name="Anchor-3"/>
  <anchor x="599" y="1300" name="Anchor-0"/>
  <anchor x="599" y="0" name="Anchor-2"/>
  <outline>
    <contour>
      <point x="179" y="840" type="line"/>
      <point x="70" y="840" type="line"/>
      <point x="70" y="1300" type="line"/>
      <point x="1130" y="1300" type="line"/>
      <point x="1130" y="840" type="line"/>
      <point x="1021" y="840" type="line"/>
      <point x="985" y="1170" type="line"/>
      <point x="679" y="1170" type="line"/>
      <point x="679" y="130" type="line"/>
      <point x="869" y="130" type="line"/>
      <point x="869" y="0" type="line"/>
      <point x="320" y="0" type="line"/>
      <point x="320" y="130" type="line"/>
      <point x="510" y="130" type="line"/>
      <point x="510" y="1170" type="line"/>
      <point x="215" y="1170" type="line"/>
    </contour>
  </outline>
</glyph>
<glyph name="U" format="2">
  <advance width="1200"/>
  <unicode hex="0055"/>
  <anchor x="599" y="1300" name="Anchor-0"/>
  <anchor x="599" y="0" name="Anchor-2"/>
  <anchor x="791" y="80" name="Anchor-3"/>
  <outline>
    <contour>
      <point x="200" y="430" type="curve" smooth="yes"/>
      <point x="200" y="1170" type="line"/>
      <point x="40" y="1170" type="line"/>
      <point x="40" y="1300" type="line"/>
      <point x="529" y="1300" type="line"/>
      <point x="529" y="1170" type="line"/>
      <point x="360" y="1170" type="line"/>
      <point x="360" y="430" type="line" smooth="yes"/>
      <point x="360" y="217"/>
      <point x="461" y="120"/>
      <point x="599" y="120" type="curve" smooth="yes"/>
      <point x="737" y="120"/>
      <point x="839" y="217"/>
      <point x="839" y="430" type="curve" smooth="yes"/>
      <point x="840" y="1170" type="line"/>
      <point x="671" y="1170" type="line"/>
      <point x="671" y="1300" type="line"/>
      <point x="1160" y="1300" type="line"/>
      <point x="1160" y="1170" type="line"/>
      <point x="1000" y="1170" type="line"/>
      <point x="999" y="430" type="line" smooth="yes"/>
      <point x="999" y="174"/>
      <point x="865" y="-20"/>
      <point x="599" y="-20" type="curve" smooth="yes"/>
      <point x="333" y="-20"/>
      <point x="200" y="174"/>
    </contour>
  </outline>
</glyph>
<glyph name="V" format="2">
  <advance width="1200"/>
  <unicode hex="0056"/>
  <anchor x="599" y="1300" name="Anchor-0"/>
  <anchor x="599" y="0" name="Anchor-2"/>
  <outline>
    <contour>
      <point x="861" y="1170" type="line"/>
      <point x="701" y="1170" type="line"/>
      <point x="701" y="1300" type="line"/>
      <point x="1170" y="1300" type="line"/>
      <point x="1170" y="1170" type="line"/>
      <point x="1043" y="1170" type="line"/>
      <point x="670" y="-20" type="line"/>
      <point x="530" y="-20" type="line"/>
      <point x="157" y="1170" type="line"/>
      <point x="30" y="1170" type="line"/>
      <point x="30" y="1300" type="line"/>
      <point x="499" y="1300" type="line"/>
      <point x="499" y="1170" type="line"/>
      <point x="339" y="1170" type="line"/>
      <point x="630" y="110" type="line"/>
      <point x="570" y="110" type="line"/>
    </contour>
  </outline>
</glyph>
<glyph name="W" format="2">
  <advance width="1200"/>
  <unicode hex="0057"/>
  <anchor x="599" y="1300" name="Anchor-0"/>
  <anchor x="599" y="0" name="Anchor-2"/>
  <outline>
    <contour>
      <point x="266" y="1170" type="line"/>
      <point x="357" y="426" type="line"/>
      <point x="367" y="136" type="line"/>
      <point x="337" y="136" type="line"/>
      <point x="545" y="1000" type="line"/>
      <point x="655" y="1000" type="line"/>
      <point x="863" y="136" type="line"/>
      <point x="833" y="136" type="line"/>
      <point x="853" y="426" type="line"/>
      <point x="934" y="1170" type="line"/>
      <point x="731" y="1170" type="line"/>
      <point x="731" y="1300" type="line"/>
      <point x="1190" y="1300" type="line"/>
      <point x="1190" y="1170" type="line"/>
      <point x="1080" y="1170" type="line"/>
      <point x="935" y="0" type="line"/>
      <point x="752" y="0" type="line"/>
      <point x="560" y="890" type="line"/>
      <point x="640" y="890" type="line"/>
      <point x="448" y="0" type="line"/>
      <point x="265" y="0" type="line"/>
      <point x="120" y="1170" type="line"/>
      <point x="10" y="1170" type="line"/>
      <point x="10" y="1300" type="line"/>
      <point x="459" y="1300" type="line"/>
      <point x="459" y="1170" type="line"/>
    </contour>
  </outline>
</glyph>
<glyph name="X" format="2">
  <advance width="1200"/>
  <unicode hex="0058"/>
  <anchor x="599" y="1300" name="Anchor-0"/>
  <anchor x="599" y="0" name="Anchor-2"/>
  <outline>
    <contour>
      <point x="80" y="1300" type="line"/>
      <point x="529" y="1300" type="line"/>
      <point x="529" y="1170" type="line"/>
      <point x="379" y="1170" type="line"/>
      <point x="600" y="812" type="line"/>
      <point x="821" y="1170" type="line"/>
      <point x="671" y="1170" type="line"/>
      <point x="671" y="1300" type="line"/>
      <point x="1120" y="1300" type="line"/>
      <point x="1120" y="1170" type="line"/>
      <point x="991" y="1170" type="line"/>
      <point x="685" y="694" type="line"/>
      <point x="1011" y="130" type="line"/>
      <point x="1160" y="130" type="line"/>
      <point x="1160" y="0" type="line"/>
      <point x="691" y="0" type="line"/>
      <point x="691" y="130" type="line"/>
      <point x="841" y="130" type="line"/>
      <point x="600" y="546" type="line"/>
      <point x="359" y="130" type="line"/>
      <point x="509" y="130" type="line"/>
      <point x="509" y="0" type="line"/>
      <point x="40" y="0" type="line"/>
      <point x="40" y="130" type="line"/>
      <point x="189" y="130" type="line"/>
      <point x="515" y="684" type="line"/>
      <point x="209" y="1170" type="line"/>
      <point x="80" y="1170" type="line"/>
    </contour>
  </outline>
</glyph>
<glyph name="Y" format="2">
  <advance width="1200"/>
  <unicode hex="0059"/>
  <anchor x="599" y="1300" name="Anchor-0"/>
  <anchor x="599" y="0" name="Anchor-2"/>
  <outline>
    <contour>
      <point x="320" y="0" type="line"/>
      <point x="320" y="130" type="line"/>
      <point x="510" y="130" type="line"/>
      <point x="510" y="480" type="line"/>
      <point x="154" y="1170" type="line"/>
      <point x="30" y="1170" type="line"/>
      <point x="30" y="1300" type="line"/>
      <point x="508" y="1300" type="line"/>
      <point x="508" y="1170" type="line"/>
      <point x="319" y="1170" type="line"/>
      <point x="619" y="570" type="line"/>
      <point x="570" y="570" type="line"/>
      <point x="881" y="1170" type="line"/>
      <point x="710" y="1170" type="line"/>
      <point x="710" y="1300" type="line"/>
      <point x="1170" y="1300" type="line"/>
      <point x="1170" y="1170" type="line"/>
      <point x="1046" y="1170" type="line"/>
      <point x="679" y="480" type="line"/>
      <point x="679" y="130" type="line"/>
      <point x="869" y="130" type="line"/>
      <point x="869" y="0" type="line"/>
    </contour>
  </outline>
</glyph>
<glyph name="Z" format="2">
  <advance width="1200"/>
  <unicode hex="005A"/>
  <anchor x="599" y="1300" name="Anchor-0"/>
  <anchor x="599" y="0" name="Anchor-2"/>
  <outline>
    <contour>
      <point x="941" y="460" type="line"/>
      <point x="1050" y="460" type="line"/>
      <point x="1010" y="0" type="line"/>
      <point x="140" y="0" type="line"/>
      <point x="120" y="100" type="line"/>
      <point x="792" y="1160" type="line"/>
      <point x="299" y="1160" type="line"/>
      <point x="269" y="900" type="line"/>
      <point x="160" y="900" type="line"/>
      <point x="160" y="1300" type="line"/>
      <point x="980" y="1300" type="line"/>
      <point x="1000" y="1200" type="line"/>
      <point x="328" y="140" type="line"/>
      <point x="858" y="140" type="line"/>
    </contour>
  </outline>
</glyph>
<glyph name="backslash" format="2">
  <advance width="1200"/>
  <unicode hex="005C"/>
  <outline>
    <contour>
      <point x="386" y="1350" type="line"/>
      <point x="1016" y="-110" type="line"/>
      <point x="874" y="-160" type="line"/>
      <point x="244" y="1300" type="line"/>
    </contour>
  </outline>
</glyph>
<glyph name="bracketright" format="2">
  <advance width="1200"/>
  <unicode hex="005D"/>
  <outline>
    <contour>
      <point x="921" y="1350" type="line"/>
      <point x="921" y="-51" type="line"/>
      <point x="279" y="-51" type="line"/>
      <point x="279" y="79" type="line"/>
      <point x="739" y="79" type="line"/>
      <point x="739" y="1220" type="line"/>
      <point x="279" y="1220" type="line"/>
      <point x="279" y="1350" type="line"/>
    </contour>
  </outline>
</glyph>
<glyph name="asciicircum" format="2">
  <advance width="1200"/>
  <unicode hex="005E"/>
  <outline>
    <contour>
      <point x="254" y="731" type="line"/>
      <point x="142" y="801" type="line"/>
      <point x="522" y="1300" type="line"/>
      <point x="689" y="1300" type="line"/>
      <point x="1058" y="801" type="line"/>
      <point x="947" y="731" type="line"/>
      <point x="572" y="1200" type="line"/>
      <point x="639" y="1200" type="line"/>
    </contour>
  </outline>
</glyph>
<glyph name="underscore" format="2">
  <advance width="1200"/>
  <unicode hex="005F"/>
  <outline>
    <contour>
      <point x="219" y="0" type="line"/>
      <point x="981" y="0" type="line"/>
      <point x="981" y="-130" type="line"/>
      <point x="219" y="-130" type="line"/>
    </contour>
  </outline>
</glyph>
<glyph name="grave" format="2">
  <advance width="1200"/>
  <unicode hex="0060"/>
  <outline>
    <contour>
      <point x="758" y="1095" type="line"/>
      <point x="658" y="1025" type="line"/>
      <point x="420" y="1291" type="line"/>
      <point x="594" y="1391" type="line"/>
    </contour>
  </outline>
</glyph>
<glyph name="a" format="2">
  <advance width="1200"/>
  <unicode hex="0061"/>
  <anchor x="980" y="0" name="Anchor-3"/>
  <anchor x="526" y="0" name="Anchor-2"/>
  <anchor x="586" y="920" name="Anchor-0"/>
  <outline>
    <contour>
      <point x="942" y="630" type="curve" smooth="yes"/>
      <point x="942" y="155" type="line" smooth="yes"/>
      <point x="942" y="125"/>
      <point x="956" y="110"/>
      <point x="986" y="110" type="curve" smooth="yes"/>
      <point x="1026" y="110"/>
      <point x="1059" y="143"/>
      <point x="1079" y="173" type="curve"/>
      <point x="1169" y="93" type="line"/>
      <point x="1119" y="23"/>
      <point x="1052" y="-25"/>
      <point x="952" y="-25" type="curve" smooth="yes"/>
      <point x="852" y="-25"/>
      <point x="783" y="30"/>
      <point x="783" y="120" type="curve" smooth="yes"/>
      <point x="783" y="630" type="line" smooth="yes"/>
      <point x="783" y="723"/>
      <point x="745" y="800"/>
      <point x="607" y="800" type="curve" smooth="yes"/>
      <point x="489" y="800"/>
      <point x="376" y="740"/>
      <point x="281" y="667" type="curve"/>
      <point x="182" y="770" type="line"/>
      <point x="302" y="866"/>
      <point x="455" y="940"/>
      <point x="622" y="940" type="curve" smooth="yes"/>
      <point x="859" y="940"/>
      <point x="942" y="787"/>
    </contour>
    <contour>
      <point x="284" y="226" type="curve" smooth="yes"/>
      <point x="284" y="160"/>
      <point x="335" y="115"/>
      <point x="423" y="115" type="curve" smooth="yes"/>
      <point x="561" y="115"/>
      <point x="713" y="207"/>
      <point x="813" y="300" type="curve"/>
      <point x="873" y="210" type="line"/>
      <point x="743" y="94"/>
      <point x="600" y="-20"/>
      <point x="413" y="-20" type="curve" smooth="yes"/>
      <point x="227" y="-20"/>
      <point x="114" y="74"/>
      <point x="114" y="220" type="curve" smooth="yes"/>
      <point x="114" y="473"/>
      <point x="419" y="528"/>
      <point x="782" y="609" type="curve"/>
      <point x="822" y="498" type="line"/>
      <point x="486" y="423"/>
      <point x="284" y="370"/>
    </contour>
  </outline>
</glyph>
<glyph name="b" format="2">
  <advance width="1200"/>
  <unicode hex="0062"/>
  <anchor x="606" y="0" name="Anchor-2"/>
  <anchor x="736" y="920" name="Anchor-0"/>
  <outline>
    <contour>
      <point x="604" y="795" type="curve" smooth="yes"/>
      <point x="426" y="795"/>
      <point x="310" y="673"/>
      <point x="310" y="460" type="curve" smooth="yes"/>
      <point x="310" y="237"/>
      <point x="436" y="130"/>
      <point x="604" y="130" type="curve" smooth="yes"/>
      <point x="792" y="130"/>
      <point x="909" y="237"/>
      <point x="909" y="460" type="curve" smooth="yes"/>
      <point x="909" y="673"/>
      <point x="772" y="795"/>
    </contour>
    <contour>
      <point x="634" y="-20" type="curve" smooth="yes"/>
      <point x="348" y="-20"/>
      <point x="230" y="164"/>
      <point x="230" y="460" type="curve" smooth="yes"/>
      <point x="230" y="746"/>
      <point x="387" y="940"/>
      <point x="654" y="940" type="curve" smooth="yes"/>
      <point x="891" y="940"/>
      <point x="1079" y="756"/>
      <point x="1079" y="460" type="curve" smooth="yes"/>
      <point x="1079" y="154"/>
      <point x="900" y="-20"/>
    </contour>
    <contour>
      <point x="142" y="1330" type="line"/>
      <point x="142" y="1190" type="line"/>
      <point x="-48" y="1190" type="line"/>
      <point x="-48" y="1330" type="line"/>
    </contour>
    <contour>
      <point x="311" y="190" type="line"/>
      <point x="271" y="0" type="line"/>
      <point x="142" y="0" type="line"/>
      <point x="142" y="1330" type="line"/>
      <point x="311" y="1330" type="line"/>
    </contour>
  </outline>
</glyph>
<glyph name="c" format="2">
  <advance width="1200"/>
  <unicode hex="0063"/>
  <anchor x="636" y="2" name="Anchor-3"/>
  <anchor x="636" y="0" name="Anchor-2"/>
  <anchor x="656" y="920" name="Anchor-0"/>
  <outline>
    <contour>
      <point x="650" y="800" type="line"/>
      <point x="457" y="800"/>
      <point x="307" y="671"/>
      <point x="307" y="448" type="curve" smooth="yes"/>
      <point x="307" y="225"/>
      <point x="436" y="125"/>
      <point x="654" y="125" type="curve"/>
      <point x="644" y="-20" type="line"/>
      <point x="313" y="-20"/>
      <point x="135" y="164"/>
      <point x="135" y="430" type="curve" smooth="yes"/>
      <point x="135" y="736"/>
      <point x="348" y="940"/>
      <point x="660" y="940" type="curve"/>
    </contour>
    <contour>
      <point x="650" y="800" type="curve"/>
      <point x="660" y="940" type="line"/>
      <point x="900" y="940"/>
      <point x="1041" y="814"/>
      <point x="1041" y="667" type="curve" smooth="yes"/>
      <point x="1041" y="589"/>
      <point x="1035" y="530"/>
      <point x="1034" y="510" type="curve"/>
      <point x="881" y="510" type="line"/>
      <point x="883" y="531"/>
      <point x="884" y="551"/>
      <point x="884" y="581" type="curve" smooth="yes"/>
      <point x="884" y="746"/>
      <point x="791" y="800"/>
    </contour>
    <contour>
      <point x="1042" y="103" type="line"/>
      <point x="962" y="30"/>
      <point x="780" y="-20"/>
      <point x="644" y="-20" type="curve"/>
      <point x="654" y="125" type="line"/>
      <point x="761" y="125"/>
      <point x="917" y="177"/>
      <point x="967" y="220" type="curve"/>
    </contour>
  </outline>
</glyph>
<glyph name="d" format="2">
  <advance width="1200"/>
  <unicode hex="0064"/>
  <anchor x="656" y="0" name="Anchor-2"/>
  <anchor x="1149" y="920" name="Anchor-1"/>
  <anchor x="496" y="920" name="Anchor-0"/>
  <outline>
    <contour>
      <point x="598" y="805" type="curve" smooth="yes"/>
      <point x="430" y="805"/>
      <point x="278" y="673"/>
      <point x="278" y="460" type="curve" smooth="yes"/>
      <point x="278" y="237"/>
      <point x="410" y="125"/>
      <point x="598" y="125" type="curve" smooth="yes"/>
      <point x="766" y="125"/>
      <point x="902" y="237"/>
      <point x="902" y="460" type="curve" smooth="yes"/>
      <point x="902" y="673"/>
      <point x="776" y="805"/>
    </contour>
    <contour>
      <point x="558" y="-20" type="curve" smooth="yes"/>
      <point x="332" y="-20"/>
      <point x="113" y="134"/>
      <point x="113" y="460" type="curve" smooth="yes"/>
      <point x="113" y="756"/>
      <point x="341" y="940"/>
      <point x="578" y="940" type="curve" smooth="yes"/>
      <point x="845" y="940"/>
      <point x="982" y="746"/>
      <point x="982" y="460" type="curve" smooth="yes"/>
      <point x="982" y="164"/>
      <point x="844" y="-20"/>
    </contour>
    <contour>
      <point x="681" y="1330" type="line"/>
      <point x="901" y="1330" type="line"/>
      <point x="901" y="1190" type="line"/>
      <point x="681" y="1190" type="line"/>
    </contour>
    <contour>
      <point x="901" y="190" type="line"/>
      <point x="901" y="1330" type="line"/>
      <point x="1060" y="1330" type="line"/>
      <point x="1060" y="0" type="line"/>
      <point x="941" y="0" type="line"/>
    </contour>
  </outline>
</glyph>
<glyph name="e" format="2">
  <advance width="1200"/>
  <unicode hex="0065"/>
  <anchor x="736" y="2" name="Anchor-3"/>
  <anchor x="665" y="0" name="Anchor-2"/>
  <anchor x="645" y="920" name="Anchor-0"/>
  <outline>
    <contour>
      <point x="1041" y="109" type="line"/>
      <point x="961" y="43"/>
      <point x="820" y="-20"/>
      <point x="644" y="-20" type="curve"/>
      <point x="654" y="122" type="line"/>
      <point x="781" y="122"/>
      <point x="914" y="184"/>
      <point x="963" y="222" type="curve"/>
    </contour>
    <contour>
      <point x="644" y="-20" type="line"/>
      <point x="328" y="-20"/>
      <point x="136" y="154"/>
      <point x="136" y="440" type="curve" smooth="yes"/>
      <point x="136" y="736"/>
      <point x="362" y="940"/>
      <point x="649" y="940" type="curve" smooth="yes"/>
      <point x="876" y="940"/>
      <point x="1029" y="785"/>
      <point x="1029" y="602" type="curve" smooth="yes"/>
      <point x="1029" y="534"/>
      <point x="1022" y="487"/>
      <point x="1012" y="437" type="curve"/>
      <point x="273" y="407" type="line"/>
      <point x="273" y="517" type="line"/>
      <point x="870" y="557" type="line"/>
      <point x="903" y="767"/>
      <point x="719" y="805"/>
      <point x="619" y="805" type="curve" smooth="yes"/>
      <point x="431" y="805"/>
      <point x="293" y="653"/>
      <point x="293" y="460" type="curve" smooth="yes"/>
      <point x="293" y="217"/>
      <point x="436" y="122"/>
      <point x="654" y="122" type="curve"/>
    </contour>
  </outline>
</glyph>
<glyph name="g" format="2">
  <advance width="1200"/>
  <unicode hex="0067"/>
  <anchor x="545" y="-340" name="Anchor-2"/>
  <anchor x="689" y="920" name="Anchor-0"/>
  <outline>
    <contour>
      <point x="891" y="742" type="curve"/>
      <point x="835" y="809" type="line"/>
      <point x="907" y="871"/>
      <point x="998" y="930"/>
      <point x="1138" y="970" type="curve"/>
      <point x="1159" y="814" type="line"/>
      <point x="1074" y="804"/>
      <point x="954" y="785"/>
    </contour>
    <contour>
      <point x="572" y="815" type="curve" smooth="yes"/>
      <point x="444" y="815"/>
      <point x="368" y="728"/>
      <point x="368" y="625" type="curve" smooth="yes"/>
      <point x="368" y="512"/>
      <point x="434" y="435"/>
      <point x="572" y="435" type="curve" smooth="yes"/>
      <point x="710" y="435"/>
      <point x="787" y="512"/>
      <point x="787" y="625" type="curve" smooth="yes"/>
      <point x="787" y="728"/>
      <point x="700" y="815"/>
    </contour>
    <contour>
      <point x="572" y="300" type="curve" smooth="yes"/>
      <point x="346" y="300"/>
      <point x="203" y="419"/>
      <point x="203" y="625" type="curve" smooth="yes"/>
      <point x="203" y="821"/>
      <point x="365" y="950"/>
      <point x="572" y="950" type="curve" smooth="yes"/>
      <point x="779" y="950"/>
      <point x="952" y="821"/>
      <point x="952" y="625" type="curve" smooth="yes"/>
      <point x="952" y="419"/>
      <point x="798" y="300"/>
    </contour>
    <contour>
      <point x="472" y="330" type="line"/>
      <point x="361" y="310"/>
      <point x="327" y="264"/>
      <point x="327" y="221" type="curve" smooth="yes"/>
      <point x="327" y="173"/>
      <point x="361" y="145"/>
      <point x="437" y="145" type="curve" smooth="yes"/>
      <point x="757" y="145" type="line" smooth="yes"/>
      <point x="943" y="145"/>
      <point x="1067" y="83"/>
      <point x="1067" y="-80" type="curve" smooth="yes"/>
      <point x="1067" y="-270"/>
      <point x="840" y="-359"/>
      <point x="548" y="-359" type="curve" smooth="yes"/>
      <point x="221" y="-359"/>
      <point x="135" y="-269"/>
      <point x="135" y="-139" type="curve" smooth="yes"/>
      <point x="135" y="-39"/>
      <point x="252" y="51"/>
      <point x="399" y="71" type="curve"/>
      <point x="409" y="41" type="line"/>
      <point x="331" y="21"/>
      <point x="290" y="-29"/>
      <point x="290" y="-99" type="curve" smooth="yes"/>
      <point x="290" y="-177"/>
      <point x="375" y="-219"/>
      <point x="568" y="-219" type="curve" smooth="yes"/>
      <point x="770" y="-219"/>
      <point x="907" y="-184"/>
      <point x="907" y="-80" type="curve" smooth="yes"/>
      <point x="907" y="9"/>
      <point x="833" y="17"/>
      <point x="719" y="17" type="curve" smooth="yes"/>
      <point x="409" y="17" type="line" smooth="yes"/>
      <point x="257" y="17"/>
      <point x="187" y="98"/>
      <point x="187" y="185" type="curve" smooth="yes"/>
      <point x="187" y="306"/>
      <point x="296" y="357"/>
      <point x="482" y="377" type="curve"/>
    </contour>
  </outline>
</glyph>
<glyph name="h" format="2">
  <advance width="1200"/>
  <unicode hex="0068"/>
  <anchor x="618" y="0" name="Anchor-2"/>
  <anchor x="780" y="1030" name="Anchor-0"/>
  <outline>
    <contour>
      <point x="1048" y="570" type="curve" smooth="yes"/>
      <point x="1048" y="0" type="line"/>
      <point x="879" y="0" type="line"/>
      <point x="879" y="580" type="line" smooth="yes"/>
      <point x="879" y="733"/>
      <point x="816" y="810"/>
      <point x="668" y="810" type="curve" smooth="yes"/>
      <point x="480" y="810"/>
      <point x="389" y="653"/>
      <point x="389" y="390" type="curve" smooth="yes"/>
      <point x="389" y="0" type="line"/>
      <point x="220" y="0" type="line"/>
      <point x="220" y="1190" type="line"/>
      <point x="10" y="1190" type="line"/>
      <point x="10" y="1330" type="line"/>
      <point x="389" y="1330" type="line"/>
      <point x="389" y="750" type="line"/>
      <point x="349" y="550" type="line"/>
      <point x="349" y="706"/>
      <point x="431" y="940"/>
      <point x="708" y="940" type="curve" smooth="yes"/>
      <point x="935" y="940"/>
      <point x="1048" y="806"/>
    </contour>
  </outline>
</glyph>
<glyph name="i" format="2">
  <advance width="1200"/>
  <unicode hex="0069"/>
  <anchor x="640" y="0" name="Anchor-3"/>
  <anchor x="645" y="0" name="Anchor-2"/>
  <outline>
    <contour>
      <point x="520" y="1255" type="curve" smooth="yes"/>
      <point x="520" y="1328"/>
      <point x="571" y="1380"/>
      <point x="644" y="1380" type="curve" smooth="yes"/>
      <point x="717" y="1380"/>
      <point x="769" y="1328"/>
      <point x="769" y="1255" type="curve" smooth="yes"/>
      <point x="769" y="1182"/>
      <point x="722" y="1130"/>
      <point x="649" y="1130" type="curve" smooth="yes"/>
      <point x="576" y="1130"/>
      <point x="520" y="1182"/>
    </contour>
    <contour>
      <point x="200" y="0" type="line"/>
      <point x="200" y="130" type="line"/>
      <point x="560" y="130" type="line"/>
      <point x="560" y="780" type="line"/>
      <point x="260" y="780" type="line"/>
      <point x="260" y="920" type="line"/>
      <point x="739" y="920" type="line"/>
      <point x="739" y="130" type="line"/>
      <point x="1100" y="130" type="line"/>
      <point x="1100" y="0" type="line"/>
    </contour>
  </outline>
</glyph>
<glyph name="j" format="2">
  <advance width="1200"/>
  <unicode hex="006A"/>
  <anchor x="496" y="-400" name="Anchor-2"/>
  <outline>
    <contour>
      <point x="500" y="-290" type="curve"/>
      <point x="500" y="-430" type="line"/>
      <point x="313" y="-430"/>
      <point x="190" y="-331"/>
      <point x="115" y="-231" type="curve"/>
      <point x="241" y="-150" type="line"/>
      <point x="283" y="-200"/>
      <point x="372" y="-290"/>
    </contour>
    <contour>
      <point x="700" y="1255" type="curve" smooth="yes"/>
      <point x="700" y="1328"/>
      <point x="751" y="1380"/>
      <point x="824" y="1380" type="curve" smooth="yes"/>
      <point x="897" y="1380"/>
      <point x="949" y="1328"/>
      <point x="949" y="1255" type="curve" smooth="yes"/>
      <point x="949" y="1182"/>
      <point x="902" y="1130"/>
      <point x="829" y="1130" type="curve" smooth="yes"/>
      <point x="756" y="1130"/>
      <point x="700" y="1182"/>
    </contour>
    <contour>
      <point x="909" y="920" type="line"/>
      <point x="910" y="10" type="line" smooth="yes"/>
      <point x="910" y="-236"/>
      <point x="807" y="-430"/>
      <point x="500" y="-430" type="curve"/>
      <point x="500" y="-290" type="line"/>
      <point x="728" y="-290"/>
      <point x="740" y="-143"/>
      <point x="740" y="10" type="curve" smooth="yes"/>
      <point x="740" y="780" type="line"/>
      <point x="320" y="780" type="line"/>
      <point x="320" y="920" type="line"/>
    </contour>
  </outline>
</glyph>
<glyph name="k" format="2">
  <advance width="1200"/>
  <unicode hex="006B"/>
  <anchor x="596" y="0" name="Anchor-2"/>
  <anchor x="716" y="920" name="Anchor-0"/>
  <outline>
    <contour>
      <point x="980" y="0" type="line"/>
      <point x="550" y="470" type="line"/>
      <point x="670" y="550" type="line"/>
      <point x="1210" y="0" type="line"/>
    </contour>
    <contour>
      <point x="912" y="920" type="line"/>
      <point x="1132" y="920" type="line"/>
      <point x="380" y="220" type="line"/>
      <point x="380" y="0" type="line"/>
      <point x="220" y="0" type="line"/>
      <point x="220" y="1190" type="line"/>
      <point x="30" y="1190" type="line"/>
      <point x="30" y="1330" type="line"/>
      <point x="380" y="1330" type="line"/>
      <point x="380" y="404" type="line"/>
    </contour>
  </outline>
</glyph>
<glyph name="l" format="2">
  <advance width="1200"/>
  <unicode hex="006C"/>
  <anchor x="634" y="0" name="Anchor-2"/>
  <anchor x="623" y="920" name="Anchor-1"/>
  <anchor x="608" y="1330" name="Anchor-0"/>
  <outline>
    <contour>
      <point x="180" y="0" type="line"/>
      <point x="180" y="130" type="line"/>
      <point x="540" y="130" type="line"/>
      <point x="540" y="1190" type="line"/>
      <point x="240" y="1190" type="line"/>
      <point x="240" y="1330" type="line"/>
      <point x="709" y="1330" type="line"/>
      <point x="709" y="130" type="line"/>
      <point x="1090" y="130" type="line"/>
      <point x="1090" y="0" type="line"/>
    </contour>
  </outline>
</glyph>
<glyph name="m" format="2">
  <advance width="1200"/>
  <unicode hex="006D"/>
  <anchor x="615" y="0" name="Anchor-2"/>
  <anchor x="636" y="920" name="Anchor-0"/>
  <outline>
    <contour>
      <point x="120" y="780" type="line"/>
      <point x="0" y="780" type="line"/>
      <point x="0" y="920" type="line"/>
      <point x="120" y="920" type="line"/>
    </contour>
    <contour>
      <point x="698" y="600" type="curve" smooth="yes"/>
      <point x="698" y="0" type="line"/>
      <point x="539" y="0" type="line"/>
      <point x="539" y="650" type="line" smooth="yes"/>
      <point x="539" y="753"/>
      <point x="501" y="810"/>
      <point x="433" y="810" type="curve" smooth="yes"/>
      <point x="315" y="810"/>
      <point x="279" y="653"/>
      <point x="279" y="440" type="curve" smooth="yes"/>
      <point x="279" y="0" type="line"/>
      <point x="120" y="0" type="line"/>
      <point x="120" y="920" type="line"/>
      <point x="229" y="920" type="line"/>
      <point x="269" y="730" type="line"/>
      <point x="199" y="550" type="line"/>
      <point x="199" y="706"/>
      <point x="296" y="940"/>
      <point x="493" y="940" type="curve" smooth="yes"/>
      <point x="640" y="940"/>
      <point x="698" y="806"/>
    </contour>
    <contour>
      <point x="1117" y="600" type="curve" smooth="yes"/>
      <point x="1117" y="0" type="line"/>
      <point x="958" y="0" type="line"/>
      <point x="958" y="650" type="line" smooth="yes"/>
      <point x="958" y="753"/>
      <point x="930" y="810"/>
      <point x="862" y="810" type="curve" smooth="yes"/>
      <point x="734" y="810"/>
      <point x="698" y="653"/>
      <point x="698" y="440" type="curve"/>
      <point x="608" y="550" type="line"/>
      <point x="608" y="706"/>
      <point x="715" y="940"/>
      <point x="912" y="940" type="curve" smooth="yes"/>
      <point x="1079" y="940"/>
      <point x="1117" y="806"/>
    </contour>
  </outline>
</glyph>
<glyph name="n" format="2">
  <advance width="1200"/>
  <unicode hex="006E"/>
  <anchor x="626" y="0" name="Anchor-2"/>
  <anchor x="636" y="920" name="Anchor-0"/>
  <outline>
    <contour>
      <point x="210" y="780" type="line"/>
      <point x="40" y="780" type="line"/>
      <point x="40" y="920" type="line"/>
      <point x="210" y="920" type="line"/>
    </contour>
    <contour>
      <point x="1038" y="570" type="curve" smooth="yes"/>
      <point x="1038" y="0" type="line"/>
      <point x="874" y="0" type="line"/>
      <point x="874" y="580" type="line" smooth="yes"/>
      <point x="874" y="733"/>
      <point x="811" y="810"/>
      <point x="683" y="810" type="curve" smooth="yes"/>
      <point x="515" y="810"/>
      <point x="374" y="653"/>
      <point x="374" y="440" type="curve" smooth="yes"/>
      <point x="374" y="0" type="line"/>
      <point x="210" y="0" type="line"/>
      <point x="210" y="920" type="line"/>
      <point x="334" y="920" type="line"/>
      <point x="374" y="730" type="line"/>
      <point x="294" y="550" type="line"/>
      <point x="294" y="706"/>
      <point x="446" y="940"/>
      <point x="713" y="940" type="curve" smooth="yes"/>
      <point x="925" y="940"/>
      <point x="1038" y="806"/>
    </contour>
  </outline>
</glyph>
<glyph name="o" format="2">
  <advance width="1200"/>
  <unicode hex="006F"/>
  <anchor x="593" y="0" name="Anchor-2"/>
  <anchor x="594" y="920" name="Anchor-0"/>
  <outline>
    <contour>
      <point x="594" y="-20" type="curve" smooth="yes"/>
      <point x="318" y="-20"/>
      <point x="126" y="144"/>
      <point x="126" y="460" type="curve" smooth="yes"/>
      <point x="126" y="766"/>
      <point x="337" y="940"/>
      <point x="594" y="940" type="curve" smooth="yes"/>
      <point x="851" y="940"/>
      <point x="1074" y="766"/>
      <point x="1074" y="460" type="curve" smooth="yes"/>
      <point x="1074" y="144"/>
      <point x="870" y="-20"/>
    </contour>
    <contour>
      <point x="594" y="805" type="curve" smooth="yes"/>
      <point x="426" y="805"/>
      <point x="300" y="673"/>
      <point x="300" y="460" type="curve" smooth="yes"/>
      <point x="300" y="237"/>
      <point x="406" y="115"/>
      <point x="594" y="115" type="curve" smooth="yes"/>
      <point x="782" y="115"/>
      <point x="900" y="237"/>
      <point x="900" y="460" type="curve" smooth="yes"/>
      <point x="900" y="673"/>
      <point x="762" y="805"/>
    </contour>
  </outline>
</glyph>
<glyph name="p" format="2">
  <advance width="1200"/>
  <unicode hex="0070"/>
  <anchor x="776" y="0" name="Anchor-2"/>
  <anchor x="706" y="920" name="Anchor-0"/>
  <outline>
    <contour>
      <point x="654" y="115" type="curve" smooth="yes"/>
      <point x="792" y="115"/>
      <point x="939" y="227"/>
      <point x="939" y="460" type="curve" smooth="yes"/>
      <point x="939" y="703"/>
      <point x="812" y="790"/>
      <point x="654" y="790" type="curve" smooth="yes"/>
      <point x="476" y="790"/>
      <point x="370" y="653"/>
      <point x="370" y="460" type="curve" smooth="yes"/>
      <point x="370" y="277"/>
      <point x="496" y="115"/>
    </contour>
    <contour>
      <point x="694" y="940" type="curve" smooth="yes"/>
      <point x="910" y="940"/>
      <point x="1099" y="786"/>
      <point x="1099" y="460" type="curve" smooth="yes"/>
      <point x="1099" y="144"/>
      <point x="891" y="-20"/>
      <point x="694" y="-20" type="curve" smooth="yes"/>
      <point x="467" y="-20"/>
      <point x="300" y="164"/>
      <point x="300" y="480" type="curve" smooth="yes"/>
      <point x="300" y="766"/>
      <point x="458" y="940"/>
    </contour>
    <contour>
      <point x="321" y="920" type="line"/>
      <point x="371" y="682" type="line"/>
      <point x="371" y="-210" type="line"/>
      <point x="601" y="-210" type="line"/>
      <point x="601" y="-330" type="line"/>
      <point x="52" y="-330" type="line"/>
      <point x="52" y="-210" type="line"/>
      <point x="212" y="-210" type="line"/>
      <point x="212" y="780" type="line"/>
      <point x="42" y="780" type="line"/>
      <point x="42" y="920" type="line"/>
    </contour>
  </outline>
</glyph>
<glyph name="q" format="2">
  <advance width="1200"/>
  <unicode hex="0071"/>
  <anchor x="456" y="0" name="Anchor-2"/>
  <anchor x="536" y="920" name="Anchor-0"/>
  <outline>
    <contour>
      <point x="588" y="805" type="curve" smooth="yes"/>
      <point x="420" y="805"/>
      <point x="273" y="653"/>
      <point x="273" y="440" type="curve" smooth="yes"/>
      <point x="273" y="237"/>
      <point x="400" y="130"/>
      <point x="568" y="130" type="curve" smooth="yes"/>
      <point x="736" y="130"/>
      <point x="882" y="237"/>
      <point x="882" y="460" type="curve" smooth="yes"/>
      <point x="882" y="673"/>
      <point x="766" y="805"/>
    </contour>
    <contour>
      <point x="538" y="-20" type="curve" smooth="yes"/>
      <point x="312" y="-20"/>
      <point x="103" y="144"/>
      <point x="103" y="440" type="curve" smooth="yes"/>
      <point x="103" y="736"/>
      <point x="341" y="940"/>
      <point x="578" y="940" type="curve" smooth="yes"/>
      <point x="845" y="940"/>
      <point x="962" y="746"/>
      <point x="962" y="480" type="curve" smooth="yes"/>
      <point x="962" y="204"/>
      <point x="794" y="-20"/>
    </contour>
    <contour>
      <point x="1041" y="920" type="line"/>
      <point x="1041" y="-210" type="line"/>
      <point x="1211" y="-210" type="line"/>
      <point x="1211" y="-330" type="line"/>
      <point x="672" y="-330" type="line"/>
      <point x="672" y="-210" type="line"/>
      <point x="882" y="-210" type="line"/>
      <point x="882" y="780" type="line"/>
      <point x="913" y="920" type="line"/>
    </contour>
  </outline>
</glyph>
<glyph name="r" format="2">
  <advance width="1200"/>
  <unicode hex="0072"/>
  <anchor x="436" y="0" name="Anchor-2"/>
  <anchor x="606" y="920" name="Anchor-0"/>
  <outline>
    <contour>
      <point x="1107" y="540" type="line"/>
      <point x="988" y="530" type="line"/>
      <point x="948" y="850" type="line"/>
      <point x="1107" y="900" type="line"/>
    </contour>
    <contour>
      <point x="973" y="790" type="line"/>
      <point x="735" y="790"/>
      <point x="519" y="703"/>
      <point x="519" y="450" type="curve" smooth="yes"/>
      <point x="519" y="130" type="line"/>
      <point x="819" y="130" type="line"/>
      <point x="819" y="0" type="line"/>
      <point x="130" y="0" type="line"/>
      <point x="130" y="130" type="line"/>
      <point x="350" y="130" type="line"/>
      <point x="350" y="790" type="line"/>
      <point x="110" y="790" type="line"/>
      <point x="110" y="920" type="line"/>
      <point x="489" y="920" type="line"/>
      <point x="519" y="690" type="line"/>
      <point x="439" y="540" type="line"/>
      <point x="439" y="726"/>
      <point x="641" y="940"/>
      <point x="968" y="940" type="curve"/>
    </contour>
    <contour>
      <point x="973" y="790" type="curve"/>
      <point x="968" y="940" type="line"/>
      <point x="1035" y="940"/>
      <point x="1085" y="912"/>
      <point x="1107" y="900" type="curve"/>
      <point x="1022" y="773" type="line"/>
      <point x="1010" y="780"/>
      <point x="1029" y="790"/>
    </contour>
  </outline>
</glyph>
<glyph name="s" format="2">
  <advance width="1200"/>
  <unicode hex="0073"/>
  <anchor x="596" y="0" name="Anchor-3"/>
  <anchor x="596" y="0" name="Anchor-2"/>
  <anchor x="596" y="920" name="Anchor-0"/>
  <outline>
    <contour>
      <point x="1003" y="789" type="curve"/>
      <point x="892" y="680" type="line"/>
      <point x="812" y="753"/>
      <point x="716" y="794"/>
      <point x="588" y="794" type="curve" smooth="yes"/>
      <point x="407" y="794"/>
      <point x="347" y="742"/>
      <point x="347" y="678" type="curve" smooth="yes"/>
      <point x="347" y="584"/>
      <point x="505" y="569"/>
      <point x="644" y="539" type="curve" smooth="yes"/>
      <point x="880" y="488"/>
      <point x="1039" y="444"/>
      <point x="1039" y="256" type="curve" smooth="yes"/>
      <point x="1039" y="46"/>
      <point x="842" y="-29"/>
      <point x="620" y="-29" type="curve" smooth="yes"/>
      <point x="403" y="-29"/>
      <point x="220" y="47"/>
      <point x="120" y="151" type="curve"/>
      <point x="210" y="267" type="line"/>
      <point x="300" y="190"/>
      <point x="443" y="116"/>
      <point x="615" y="116" type="curve" smooth="yes"/>
      <point x="767" y="116"/>
      <point x="877" y="137"/>
      <point x="877" y="246" type="curve" smooth="yes"/>
      <point x="877" y="342"/>
      <point x="759" y="344"/>
      <point x="582" y="391" type="curve" smooth="yes"/>
      <point x="403" y="439"/>
      <point x="199" y="464"/>
      <point x="199" y="680" type="curve" smooth="yes"/>
      <point x="199" y="816"/>
      <point x="327" y="940"/>
      <point x="603" y="940" type="curve" smooth="yes"/>
      <point x="799" y="940"/>
      <point x="931" y="859"/>
    </contour>
  </outline>
</glyph>
<glyph name="t" format="2">
  <advance width="1200"/>
  <unicode hex="0074"/>
  <anchor x="628" y="0" name="Anchor-3"/>
  <anchor x="706" y="0" name="Anchor-2"/>
  <anchor x="724" y="1020" name="Anchor-1"/>
  <anchor x="476" y="1130" name="Anchor-0"/>
  <outline>
    <contour>
      <point x="729" y="140" type="line"/>
      <point x="857" y="140"/>
      <point x="963" y="202"/>
      <point x="1005" y="242" type="curve"/>
      <point x="1091" y="126" type="line"/>
      <point x="1016" y="56"/>
      <point x="896" y="-10"/>
      <point x="719" y="-10" type="curve"/>
    </contour>
    <contour>
      <point x="519" y="1170" type="line"/>
      <point x="519" y="920" type="line"/>
      <point x="1019" y="920" type="line"/>
      <point x="1019" y="770" type="line"/>
      <point x="518" y="790" type="line"/>
      <point x="518" y="430" type="line" smooth="yes"/>
      <point x="518" y="217"/>
      <point x="601" y="140"/>
      <point x="729" y="140" type="curve"/>
      <point x="719" y="-10" type="line"/>
      <point x="462" y="-10"/>
      <point x="350" y="154"/>
      <point x="350" y="390" type="curve" smooth="yes"/>
      <point x="350" y="779" type="line"/>
      <point x="150" y="779" type="line"/>
      <point x="150" y="920" type="line"/>
      <point x="350" y="920" type="line"/>
      <point x="430" y="1170" type="line"/>
    </contour>
  </outline>
</glyph>
<glyph name="u" format="2">
  <advance width="1200"/>
  <unicode hex="0075"/>
  <anchor x="1026" y="0" name="Anchor-3"/>
  <anchor x="526" y="0" name="Anchor-2"/>
  <anchor x="566" y="920" name="Anchor-0"/>
  <outline>
    <contour>
      <point x="980" y="130" type="line"/>
      <point x="1140" y="130" type="line"/>
      <point x="1140" y="0" type="line"/>
      <point x="980" y="0" type="line"/>
    </contour>
    <contour>
      <point x="152" y="350" type="curve" smooth="yes"/>
      <point x="152" y="920" type="line"/>
      <point x="316" y="920" type="line"/>
      <point x="316" y="340" type="line" smooth="yes"/>
      <point x="316" y="187"/>
      <point x="384" y="110"/>
      <point x="512" y="110" type="curve" smooth="yes"/>
      <point x="680" y="110"/>
      <point x="816" y="267"/>
      <point x="816" y="530" type="curve" smooth="yes"/>
      <point x="816" y="920" type="line"/>
      <point x="980" y="920" type="line"/>
      <point x="980" y="0" type="line"/>
      <point x="856" y="0" type="line"/>
      <point x="816" y="190" type="line"/>
      <point x="896" y="370" type="line"/>
      <point x="896" y="214"/>
      <point x="744" y="-20"/>
      <point x="477" y="-20" type="curve" smooth="yes"/>
      <point x="235" y="-20"/>
      <point x="152" y="114"/>
    </contour>
  </outline>
</glyph>
<glyph name="w" format="2">
  <advance width="1200"/>
  <unicode hex="0077"/>
  <anchor x="596" y="920" name="Anchor-0"/>
  <anchor x="597" y="0" name="Anchor-2"/>
  <outline>
    <contour>
      <point x="221" y="920" type="line"/>
      <point x="351" y="176" type="line"/>
      <point x="321" y="166" type="line"/>
      <point x="540" y="720" type="line"/>
      <point x="660" y="720" type="line"/>
      <point x="878" y="166" type="line"/>
      <point x="848" y="176" type="line"/>
      <point x="979" y="920" type="line"/>
      <point x="1155" y="920" type="line"/>
      <point x="935" y="0" type="line"/>
      <point x="802" y="0" type="line"/>
      <point x="570" y="610" type="line"/>
      <point x="630" y="610" type="line"/>
      <point x="398" y="0" type="line"/>
      <point x="265" y="0" type="line"/>
      <point x="45" y="920" type="line"/>
    </contour>
  </outline>
</glyph>
<glyph name="x" format="2">
  <advance width="1200"/>
  <unicode hex="0078"/>
  <anchor x="596" y="920" name="Anchor-0"/>
  <anchor x="597" y="0" name="Anchor-2"/>
  <outline>
    <contour>
      <point x="606" y="569" type="line"/>
      <point x="859" y="920" type="line"/>
      <point x="1081" y="920" type="line"/>
      <point x="707" y="475" type="line"/>
      <point x="1131" y="0" type="line"/>
      <point x="912" y="0" type="line"/>
      <point x="610" y="380" type="line"/>
      <point x="308" y="0" type="line"/>
      <point x="87" y="0" type="line"/>
      <point x="512" y="475" type="line"/>
      <point x="138" y="920" type="line"/>
      <point x="357" y="920" type="line"/>
    </contour>
  </outline>
</glyph>
<glyph name="y" format="2">
  <advance width="1200"/>
  <unicode hex="0079"/>
  <anchor x="306" y="-400" name="Anchor-2"/>
  <anchor x="596" y="920" name="Anchor-0"/>
  <outline>
    <contour>
      <point x="300" y="-245" type="curve"/>
      <point x="300" y="-400" type="line"/>
      <point x="133" y="-400"/>
      <point x="50" y="-349"/>
      <point x="-35" y="-279" type="curve"/>
      <point x="61" y="-140" type="line"/>
      <point x="113" y="-180"/>
      <point x="192" y="-245"/>
    </contour>
    <contour>
      <point x="524" y="25" type="curve"/>
      <point x="87" y="920" type="line"/>
      <point x="279" y="920" type="line"/>
      <point x="656" y="98" type="line"/>
      <point x="591" y="98" type="line"/>
      <point x="936" y="920" type="line"/>
      <point x="1123" y="920" type="line"/>
      <point x="710" y="30" type="line" smooth="yes"/>
      <point x="610" y="-186"/>
      <point x="527" y="-400"/>
      <point x="300" y="-400" type="curve"/>
      <point x="300" y="-245" type="line"/>
      <point x="412" y="-245"/>
      <point x="464" y="-111"/>
    </contour>
  </outline>
</glyph>
<glyph name="z" format="2">
  <advance width="1200"/>
  <unicode hex="007A"/>
  <anchor x="596" y="920" name="Anchor-0"/>
  <anchor x="597" y="0" name="Anchor-2"/>
  <outline>
    <contour>
      <point x="972" y="410" type="line"/>
      <point x="1080" y="410" type="line"/>
      <point x="1060" y="0" type="line"/>
      <point x="170" y="0" type="line"/>
      <point x="160" y="100" type="line"/>
      <point x="777" y="780" type="line"/>
      <point x="319" y="780" type="line"/>
      <point x="289" y="570" type="line"/>
      <point x="180" y="570" type="line"/>
      <point x="180" y="920" type="line"/>
      <point x="1000" y="920" type="line"/>
      <point x="1010" y="820" type="line"/>
      <point x="383" y="140" type="line"/>
      <point x="919" y="140" type="line"/>
    </contour>
  </outline>
</glyph>
<glyph name="braceleft" format="2">
  <advance width="1200"/>
  <unicode hex="007B"/>
  <outline>
    <contour>
      <point x="590" y="1110" type="curve" smooth="yes"/>
      <point x="620" y="974" type="line" smooth="yes"/>
      <point x="657.489" y="804.049"/>
      <point x="552" y="714"/>
      <point x="384" y="664" type="curve"/>
      <point x="384" y="684" type="line"/>
      <point x="542" y="634"/>
      <point x="645.524" y="558.411"/>
      <point x="620" y="384" type="curve" smooth="yes"/>
      <point x="590" y="179" type="line" smooth="yes"/>
      <point x="582.529" y="127.947"/>
      <point x="606" y="79"/>
      <point x="716" y="79" type="curve" smooth="yes"/>
      <point x="966" y="79" type="line"/>
      <point x="966" y="-51" type="line"/>
      <point x="726" y="-51" type="line" smooth="yes"/>
      <point x="548" y="-51"/>
      <point x="394.044" y="-15.6725"/>
      <point x="420" y="179" type="curve" smooth="yes"/>
      <point x="450" y="404" type="line" smooth="yes"/>
      <point x="469.93" y="553.476"/>
      <point x="364" y="600"/>
      <point x="304" y="600" type="curve" smooth="yes"/>
      <point x="234" y="600" type="line"/>
      <point x="234" y="750" type="line"/>
      <point x="304" y="750" type="line" smooth="yes"/>
      <point x="364" y="750"/>
      <point x="476.633" y="796.632"/>
      <point x="450" y="944" type="curve" smooth="yes"/>
      <point x="420" y="1110" type="line" smooth="yes"/>
      <point x="385.317" y="1301.91"/>
      <point x="548" y="1350"/>
      <point x="726" y="1350" type="curve" smooth="yes"/>
      <point x="966" y="1350" type="line"/>
      <point x="966" y="1220" type="line"/>
      <point x="716" y="1220" type="line" smooth="yes"/>
      <point x="606" y="1220"/>
      <point x="579.015" y="1159.8"/>
    </contour>
  </outline>
</glyph>
<glyph name="braceright" format="2">
  <advance width="1200"/>
  <unicode hex="007D"/>
  <outline>
    <contour>
      <point x="610" y="189" type="curve" smooth="yes"/>
      <point x="580" y="376" type="line" smooth="yes"/>
      <point x="552.135" y="549.69"/>
      <point x="648" y="636"/>
      <point x="816" y="686" type="curve"/>
      <point x="816" y="666" type="line"/>
      <point x="658" y="716"/>
      <point x="546.556" y="794.32"/>
      <point x="580" y="966" type="curve" smooth="yes"/>
      <point x="610" y="1120" type="line" smooth="yes"/>
      <point x="619.796" y="1170.29"/>
      <point x="594" y="1220"/>
      <point x="484" y="1220" type="curve" smooth="yes"/>
      <point x="234" y="1220" type="line"/>
      <point x="234" y="1350" type="line"/>
      <point x="474" y="1350" type="line" smooth="yes"/>
      <point x="652" y="1350"/>
      <point x="813.181" y="1312.45"/>
      <point x="780" y="1120" type="curve" smooth="yes"/>
      <point x="750" y="946" type="line" smooth="yes"/>
      <point x="724.521" y="798.221"/>
      <point x="836" y="750"/>
      <point x="896" y="750" type="curve" smooth="yes"/>
      <point x="966" y="750" type="line"/>
      <point x="966" y="600" type="line"/>
      <point x="896" y="600" type="line" smooth="yes"/>
      <point x="836" y="600"/>
      <point x="729.362" y="555.285"/>
      <point x="750" y="406" type="curve" smooth="yes"/>
      <point x="780" y="189" type="line" smooth="yes"/>
      <point x="806.879" y="-5.42231"/>
      <point x="652" y="-51"/>
      <point x="474" y="-51" type="curve" smooth="yes"/>
      <point x="234" y="-51" type="line"/>
      <point x="234" y="79" type="line"/>
      <point x="484" y="79" type="line" smooth="yes"/>
      <point x="594" y="79"/>
      <point x="618.158" y="138.148"/>
    </contour>
  </outline>
</glyph>
<glyph name="asciitilde" format="2">
  <advance width="1200"/>
  <unicode hex="007E"/>
  <outline>
    <contour>
      <point x="158" y="539" type="line"/>
      <point x="158" y="727"/>
      <point x="247" y="837"/>
      <point x="389" y="837" type="curve" smooth="yes"/>
      <point x="526" y="837"/>
      <point x="583" y="772"/>
      <point x="641" y="725" type="curve" smooth="yes"/>
      <point x="700" y="676"/>
      <point x="745" y="643"/>
      <point x="801" y="643" type="curve" smooth="yes"/>
      <point x="869" y="643"/>
      <point x="912" y="698"/>
      <point x="912" y="811" type="curve"/>
      <point x="1042" y="811" type="line"/>
      <point x="1042" y="622"/>
      <point x="953" y="513"/>
      <point x="811" y="513" type="curve" smooth="yes"/>
      <point x="674" y="513"/>
      <point x="617" y="578"/>
      <point x="559" y="625" type="curve" smooth="yes"/>
      <point x="500" y="674"/>
      <point x="455" y="707"/>
      <point x="399" y="707" type="curve" smooth="yes"/>
      <point x="331" y="707"/>
      <point x="288" y="652"/>
      <point x="288" y="539" type="curve"/>
    </contour>
  </outline>
</glyph>
<glyph name="cent" format="2">
  <advance width="1200"/>
  <unicode hex="00A2"/>
  <outline>
    <contour>
      <point x="1038" y="797" type="curve"/>
      <point x="963" y="680" type="line"/>
      <point x="913" y="733"/>
      <point x="777" y="800"/>
      <point x="650" y="800" type="curve"/>
      <point x="660" y="940" type="line"/>
      <point x="816" y="940"/>
      <point x="958" y="880"/>
    </contour>
    <contour>
      <point x="690" y="40" type="line"/>
      <point x="730" y="-260" type="line"/>
      <point x="550" y="-260" type="line"/>
      <point x="590" y="40" type="line"/>
    </contour>
    <contour>
      <point x="590" y="880" type="line"/>
      <point x="550" y="1180" type="line"/>
      <point x="730" y="1180" type="line"/>
      <point x="690" y="880" type="line"/>
    </contour>
    <contour>
      <point x="650" y="800" type="line"/>
      <point x="457" y="800"/>
      <point x="307" y="671"/>
      <point x="307" y="448" type="curve" smooth="yes"/>
      <point x="307" y="225"/>
      <point x="436" y="125"/>
      <point x="654" y="125" type="curve"/>
      <point x="644" y="-20" type="line"/>
      <point x="313" y="-20"/>
      <point x="135" y="164"/>
      <point x="135" y="430" type="curve" smooth="yes"/>
      <point x="135" y="736"/>
      <point x="348" y="940"/>
      <point x="660" y="940" type="curve"/>
    </contour>
    <contour>
      <point x="1042" y="103" type="line"/>
      <point x="962" y="30"/>
      <point x="780" y="-20"/>
      <point x="644" y="-20" type="curve"/>
      <point x="654" y="125" type="line"/>
      <point x="761" y="125"/>
      <point x="917" y="177"/>
      <point x="967" y="220" type="curve"/>
    </contour>
  </outline>
</glyph>
<glyph name="sterling" format="2">
  <advance width="1200"/>
  <unicode hex="00A3"/>
  <outline>
    <contour>
      <point x="99" y="690" type="line"/>
      <point x="751" y="690" type="line"/>
      <point x="751" y="560" type="line"/>
      <point x="99" y="560" type="line"/>
    </contour>
    <contour>
      <point x="1070" y="950" type="curve"/>
      <point x="910" y="950" type="line"/>
      <point x="890" y="1083"/>
      <point x="804" y="1176"/>
      <point x="666" y="1176" type="curve" smooth="yes"/>
      <point x="518" y="1176"/>
      <point x="412" y="1082"/>
      <point x="411" y="870" type="curve"/>
      <point x="411" y="620"/>
      <point x="480" y="380"/>
      <point x="360" y="130" type="curve"/>
      <point x="1079" y="130" type="line"/>
      <point x="1079" y="0" type="line"/>
      <point x="110" y="0" type="line"/>
      <point x="110" y="130" type="line"/>
      <point x="200" y="130" type="line"/>
      <point x="320" y="380"/>
      <point x="251" y="620"/>
      <point x="251" y="870" type="curve"/>
      <point x="251" y="1125"/>
      <point x="395" y="1320"/>
      <point x="661" y="1320" type="curve" smooth="yes"/>
      <point x="907" y="1320"/>
      <point x="1060" y="1156"/>
    </contour>
  </outline>
</glyph>
<glyph name="currency" format="2">
  <advance width="1200"/>
  <unicode hex="00A4"/>
  <outline>
    <contour>
      <point x="885" y="243" type="line"/>
      <point x="1126" y="59" type="line"/>
      <point x="998" y="-69" type="line"/>
      <point x="814" y="172" type="line"/>
    </contour>
    <contour>
      <point x="303" y="677" type="line"/>
      <point x="62" y="861" type="line"/>
      <point x="190" y="989" type="line"/>
      <point x="374" y="748" type="line"/>
    </contour>
    <contour>
      <point x="814" y="749" type="line"/>
      <point x="998" y="989" type="line"/>
      <point x="1126" y="862" type="line"/>
      <point x="885" y="678" type="line"/>
    </contour>
    <contour>
      <point x="374" y="172" type="line"/>
      <point x="190" y="-69" type="line"/>
      <point x="63" y="59" type="line"/>
      <point x="303" y="243" type="line"/>
    </contour>
    <contour>
      <point x="594" y="20" type="curve" smooth="yes"/>
      <point x="328" y="20"/>
      <point x="166" y="174"/>
      <point x="166" y="460" type="curve" smooth="yes"/>
      <point x="166" y="736"/>
      <point x="347" y="900"/>
      <point x="594" y="900" type="curve" smooth="yes"/>
      <point x="841" y="900"/>
      <point x="1034" y="736"/>
      <point x="1034" y="460" type="curve" smooth="yes"/>
      <point x="1034" y="174"/>
      <point x="870" y="20"/>
    </contour>
    <contour>
      <point x="594" y="765" type="curve" smooth="yes"/>
      <point x="436" y="765"/>
      <point x="340" y="643"/>
      <point x="340" y="460" type="curve" smooth="yes"/>
      <point x="340" y="267"/>
      <point x="416" y="155"/>
      <point x="594" y="155" type="curve" smooth="yes"/>
      <point x="772" y="155"/>
      <point x="860" y="267"/>
      <point x="860" y="460" type="curve" smooth="yes"/>
      <point x="860" y="643"/>
      <point x="752" y="765"/>
    </contour>
  </outline>
</glyph>
<glyph name="yen" format="2">
  <advance width="1200"/>
  <unicode hex="00A5"/>
  <outline>
    <contour>
      <point x="30" y="1300" type="line"/>
      <point x="508" y="1300" type="line"/>
      <point x="508" y="1170" type="line"/>
      <point x="30" y="1170" type="line"/>
    </contour>
    <contour>
      <point x="710" y="1300" type="line"/>
      <point x="1170" y="1300" type="line"/>
      <point x="1170" y="1170" type="line"/>
      <point x="710" y="1170" type="line"/>
    </contour>
    <contour>
      <point x="510" y="0" type="line"/>
      <point x="510" y="560" type="line"/>
      <point x="87" y="1300" type="line"/>
      <point x="254" y="1300" type="line"/>
      <point x="619" y="630" type="line"/>
      <point x="570" y="630" type="line"/>
      <point x="948" y="1300" type="line"/>
      <point x="1115" y="1300" type="line"/>
      <point x="679" y="560" type="line"/>
      <point x="679" y="0" type="line"/>
    </contour>
    <contour>
      <point x="510" y="530" type="line"/>
      <point x="210" y="520" type="line"/>
      <point x="210" y="670" type="line"/>
      <point x="510" y="630" type="line"/>
    </contour>
    <contour>
      <point x="510" y="240" type="line"/>
      <point x="210" y="200" type="line"/>
      <point x="210" y="350" type="line"/>
      <point x="510" y="340" type="line"/>
    </contour>
    <contour>
      <point x="679" y="340" type="line"/>
      <point x="979" y="350" type="line"/>
      <point x="979" y="200" type="line"/>
      <point x="679" y="240" type="line"/>
    </contour>
    <contour>
      <point x="679" y="630" type="line"/>
      <point x="979" y="670" type="line"/>
      <point x="979" y="520" type="line"/>
      <point x="679" y="530" type="line"/>
    </contour>
  </outline>
</glyph>
<glyph name="section" format="2">
  <advance width="1200"/>
  <unicode hex="00A7"/>
  <outline>
    <contour>
      <point x="989" y="1159" type="curve"/>
      <point x="878" y="1050" type="line"/>
      <point x="798" y="1123"/>
      <point x="702" y="1164"/>
      <point x="574" y="1164" type="curve" smooth="yes"/>
      <point x="423" y="1164"/>
      <point x="353" y="1102"/>
      <point x="353" y="1028" type="curve" smooth="yes"/>
      <point x="353" y="924"/>
      <point x="493" y="850"/>
      <point x="630" y="809" type="curve" smooth="yes"/>
      <point x="866" y="738"/>
      <point x="1025" y="684"/>
      <point x="1025" y="486" type="curve" smooth="yes"/>
      <point x="1025" y="276"/>
      <point x="828" y="171"/>
      <point x="606" y="171" type="curve"/>
      <point x="606" y="261" type="line"/>
      <point x="758" y="261"/>
      <point x="863" y="347"/>
      <point x="863" y="456" type="curve" smooth="yes"/>
      <point x="863" y="582"/>
      <point x="745" y="614"/>
      <point x="568" y="661" type="curve" smooth="yes"/>
      <point x="389" y="709"/>
      <point x="185" y="794"/>
      <point x="185" y="1010" type="curve" smooth="yes"/>
      <point x="185" y="1156"/>
      <point x="313" y="1310"/>
      <point x="589" y="1310" type="curve" smooth="yes"/>
      <point x="785" y="1310"/>
      <point x="917" y="1229"/>
    </contour>
    <contour>
      <point x="574" y="664" type="line"/>
      <point x="393" y="664"/>
      <point x="333" y="552"/>
      <point x="333" y="488" type="curve" smooth="yes"/>
      <point x="333" y="344"/>
      <point x="491" y="299"/>
      <point x="630" y="269" type="curve" smooth="yes"/>
      <point x="866" y="218"/>
      <point x="1025" y="134"/>
      <point x="1025" y="-74" type="curve" smooth="yes"/>
      <point x="1025" y="-284"/>
      <point x="828" y="-399"/>
      <point x="606" y="-399" type="curve" smooth="yes"/>
      <point x="389" y="-399"/>
      <point x="206" y="-323"/>
      <point x="106" y="-219" type="curve"/>
      <point x="201" y="-108" type="line"/>
      <point x="291" y="-185"/>
      <point x="434" y="-259"/>
      <point x="606" y="-259" type="curve" smooth="yes"/>
      <point x="758" y="-259"/>
      <point x="863" y="-193"/>
      <point x="863" y="-84" type="curve" smooth="yes"/>
      <point x="863" y="32"/>
      <point x="745" y="74"/>
      <point x="568" y="121" type="curve" smooth="yes"/>
      <point x="389" y="169"/>
      <point x="175" y="254"/>
      <point x="175" y="470" type="curve" smooth="yes"/>
      <point x="175" y="606"/>
      <point x="313" y="745"/>
      <point x="589" y="745" type="curve"/>
    </contour>
  </outline>
</glyph>
<glyph name="dieresis" format="2">
  <advance width="1200"/>
  <unicode hex="00A8"/>
  <outline>
    <contour>
      <point x="708" y="1240" type="curve" smooth="yes"/>
      <point x="708" y="1306"/>
      <point x="754" y="1352"/>
      <point x="820" y="1352" type="curve" smooth="yes"/>
      <point x="886" y="1352"/>
      <point x="932" y="1306"/>
      <point x="932" y="1240" type="curve" smooth="yes"/>
      <point x="932" y="1174"/>
      <point x="890" y="1128"/>
      <point x="824" y="1128" type="curve" smooth="yes"/>
      <point x="758" y="1128"/>
      <point x="708" y="1174"/>
    </contour>
    <contour>
      <point x="268" y="1240" type="curve" smooth="yes"/>
      <point x="268" y="1306"/>
      <point x="314" y="1352"/>
      <point x="380" y="1352" type="curve" smooth="yes"/>
      <point x="446" y="1352"/>
      <point x="492" y="1306"/>
      <point x="492" y="1240" type="curve" smooth="yes"/>
      <point x="492" y="1174"/>
      <point x="450" y="1128"/>
      <point x="384" y="1128" type="curve" smooth="yes"/>
      <point x="318" y="1128"/>
      <point x="268" y="1174"/>
    </contour>
  </outline>
</glyph>
<glyph name="copyright" format="2">
  <advance width="1200"/>
  <unicode hex="00A9"/>
  <outline>
    <contour>
      <point x="853" y="576" type="curve"/>
      <point x="758" y="524" type="line"/>
      <point x="733" y="601"/>
      <point x="681" y="648"/>
      <point x="612" y="648" type="curve"/>
      <point x="619" y="746" type="line"/>
      <point x="738" y="746"/>
      <point x="837" y="644"/>
    </contour>
    <contour>
      <point x="612" y="648" type="line"/>
      <point x="507" y="648"/>
      <point x="441" y="588"/>
      <point x="441" y="472" type="curve" smooth="yes"/>
      <point x="441" y="356"/>
      <point x="511" y="286"/>
      <point x="614" y="286" type="curve"/>
      <point x="607" y="184" type="line"/>
      <point x="415" y="184"/>
      <point x="321" y="313"/>
      <point x="321" y="459" type="curve" smooth="yes"/>
      <point x="321" y="633"/>
      <point x="431" y="746"/>
      <point x="619" y="746" type="curve"/>
    </contour>
    <contour>
      <point x="866" y="330" type="line"/>
      <point x="820" y="269"/>
      <point x="732" y="184"/>
      <point x="607" y="184" type="curve"/>
      <point x="614" y="286" type="line"/>
      <point x="699" y="286"/>
      <point x="758" y="352"/>
      <point x="783" y="392" type="curve"/>
    </contour>
    <contour>
      <point x="594" y="-20" type="curve" smooth="yes"/>
      <point x="318" y="-20"/>
      <point x="96" y="144"/>
      <point x="96" y="460" type="curve" smooth="yes"/>
      <point x="96" y="766"/>
      <point x="337" y="940"/>
      <point x="594" y="940" type="curve" smooth="yes"/>
      <point x="851" y="940"/>
      <point x="1104" y="766"/>
      <point x="1104" y="460" type="curve" smooth="yes"/>
      <point x="1104" y="144"/>
      <point x="870" y="-20"/>
    </contour>
    <contour>
      <point x="594" y="835" type="curve" smooth="yes"/>
      <point x="386" y="835"/>
      <point x="210" y="713"/>
      <point x="210" y="460" type="curve" smooth="yes"/>
      <point x="210" y="197"/>
      <point x="366" y="85"/>
      <point x="594" y="85" type="curve" smooth="yes"/>
      <point x="822" y="85"/>
      <point x="990" y="197"/>
      <point x="990" y="460" type="curve" smooth="yes"/>
      <point x="990" y="713"/>
      <point x="802" y="835"/>
    </contour>
  </outline>
</glyph>
<glyph name="ordfeminine" format="2">
  <advance width="1200"/>
  <unicode hex="00AA"/>
  <outline>
    <contour>
      <point x="883" y="1104" type="curve" smooth="yes"/>
      <point x="883" y="656" type="line"/>
      <point x="733" y="656" type="line"/>
      <point x="733" y="1104" type="line" smooth="yes"/>
      <point x="733" y="1169"/>
      <point x="717" y="1203"/>
      <point x="640" y="1203" type="curve" smooth="yes"/>
      <point x="567" y="1203"/>
      <point x="458" y="1161"/>
      <point x="382" y="1107" type="curve"/>
      <point x="312" y="1202" type="line"/>
      <point x="396" y="1269"/>
      <point x="523" y="1321"/>
      <point x="640" y="1321" type="curve" smooth="yes"/>
      <point x="806" y="1321"/>
      <point x="883" y="1214"/>
    </contour>
    <contour>
      <point x="414" y="831" type="curve" smooth="yes"/>
      <point x="414" y="785"/>
      <point x="459" y="764"/>
      <point x="501" y="764" type="curve" smooth="yes"/>
      <point x="578" y="764"/>
      <point x="704" y="818"/>
      <point x="774" y="883" type="curve"/>
      <point x="816" y="820" type="line"/>
      <point x="725" y="739"/>
      <point x="625" y="649"/>
      <point x="464" y="649" type="curve" smooth="yes"/>
      <point x="354" y="649"/>
      <point x="265" y="715"/>
      <point x="265" y="817" type="curve" smooth="yes"/>
      <point x="265" y="994"/>
      <point x="498" y="1033"/>
      <point x="752" y="1090" type="curve"/>
      <point x="780" y="992" type="line"/>
      <point x="545" y="939"/>
      <point x="414" y="902"/>
    </contour>
  </outline>
</glyph>
<glyph name="guillemotleft" format="2">
  <advance width="1200"/>
  <unicode hex="00AB"/>
  <outline>
    <contour>
      <point x="589" y="525" type="line"/>
      <point x="921" y="920" type="line"/>
      <point x="1011" y="840" type="line"/>
      <point x="769" y="525" type="line"/>
      <point x="1011" y="210" type="line"/>
      <point x="921" y="130" type="line"/>
    </contour>
    <contour>
      <point x="189" y="525" type="line"/>
      <point x="521" y="920" type="line"/>
      <point x="611" y="840" type="line"/>
      <point x="369" y="525" type="line"/>
      <point x="611" y="210" type="line"/>
      <point x="521" y="130" type="line"/>
    </contour>
  </outline>
</glyph>
<glyph name="logicalnot" format="2">
  <advance width="1200"/>
  <unicode hex="00AC"/>
  <outline>
    <contour>
      <point x="269" y="740" type="line"/>
      <point x="931" y="740" type="line"/>
      <point x="931" y="430" type="line"/>
      <point x="791" y="430" type="line"/>
      <point x="791" y="610" type="line"/>
      <point x="269" y="610" type="line"/>
    </contour>
  </outline>
</glyph>
<glyph name="registered" format="2">
  <advance width="1200"/>
  <unicode hex="00AE"/>
  <outline>
    <contour>
      <point x="685" y="406" type="line"/>
      <point x="815" y="236" type="line"/>
      <point x="702" y="186" type="line"/>
      <point x="572" y="406" type="line"/>
    </contour>
    <contour>
      <point x="392" y="196" type="line"/>
      <point x="392" y="714" type="line"/>
      <point x="597" y="714" type="line" smooth="yes"/>
      <point x="737" y="714"/>
      <point x="818" y="671"/>
      <point x="818" y="542" type="curve" smooth="yes"/>
      <point x="818" y="420"/>
      <point x="724" y="376"/>
      <point x="597" y="376" type="curve" smooth="yes"/>
      <point x="503" y="376" type="line"/>
      <point x="503" y="196" type="line"/>
    </contour>
    <contour>
      <point x="503" y="467" type="line"/>
      <point x="597" y="467" type="line" smooth="yes"/>
      <point x="670" y="467"/>
      <point x="706" y="486"/>
      <point x="706" y="542" type="curve" smooth="yes"/>
      <point x="706" y="605"/>
      <point x="674" y="624"/>
      <point x="597" y="624" type="curve" smooth="yes"/>
      <point x="503" y="624" type="line"/>
    </contour>
    <contour>
      <point x="594" y="-20" type="curve" smooth="yes"/>
      <point x="318" y="-20"/>
      <point x="96" y="144"/>
      <point x="96" y="460" type="curve" smooth="yes"/>
      <point x="96" y="766"/>
      <point x="337" y="940"/>
      <point x="594" y="940" type="curve" smooth="yes"/>
      <point x="851" y="940"/>
      <point x="1104" y="766"/>
      <point x="1104" y="460" type="curve" smooth="yes"/>
      <point x="1104" y="144"/>
      <point x="870" y="-20"/>
    </contour>
    <contour>
      <point x="594" y="835" type="curve" smooth="yes"/>
      <point x="386" y="835"/>
      <point x="210" y="713"/>
      <point x="210" y="460" type="curve" smooth="yes"/>
      <point x="210" y="197"/>
      <point x="366" y="85"/>
      <point x="594" y="85" type="curve" smooth="yes"/>
      <point x="822" y="85"/>
      <point x="990" y="197"/>
      <point x="990" y="460" type="curve" smooth="yes"/>
      <point x="990" y="713"/>
      <point x="802" y="835"/>
    </contour>
  </outline>
</glyph>
<glyph name="plusminus" format="2">
  <advance width="1200"/>
  <unicode hex="00B1"/>
  <outline>
    <contour>
      <point x="229" y="130" type="line"/>
      <point x="971" y="130" type="line"/>
      <point x="971" y="0" type="line"/>
      <point x="229" y="0" type="line"/>
    </contour>
    <contour>
      <point x="539" y="1030" type="line"/>
      <point x="661" y="1030" type="line"/>
      <point x="661" y="320" type="line"/>
      <point x="539" y="320" type="line"/>
    </contour>
    <contour>
      <point x="229" y="730" type="line"/>
      <point x="971" y="730" type="line"/>
      <point x="971" y="620" type="line"/>
      <point x="229" y="620" type="line"/>
    </contour>
  </outline>
</glyph>
<glyph name="acute" format="2">
  <advance width="1200"/>
  <unicode hex="00B4"/>
  <outline>
    <contour>
      <point x="442" y="1095" type="line"/>
      <point x="608" y="1391" type="line"/>
      <point x="780" y="1291" type="line"/>
      <point x="542" y="1025" type="line"/>
    </contour>
  </outline>
</glyph>
<glyph name="mu" format="2">
  <advance width="1200"/>
  <unicode hex="00B5"/>
  <outline>
    <contour>
      <point x="152" y="920" type="line"/>
      <point x="316" y="920" type="line"/>
      <point x="316" y="-400" type="line"/>
      <point x="152" y="-400" type="line"/>
    </contour>
    <contour>
      <point x="980" y="130" type="line"/>
      <point x="1140" y="130" type="line"/>
      <point x="1140" y="0" type="line"/>
      <point x="980" y="0" type="line"/>
    </contour>
    <contour>
      <point x="202" y="350" type="curve" smooth="yes"/>
      <point x="202" y="920" type="line"/>
      <point x="316" y="920" type="line"/>
      <point x="316" y="340" type="line" smooth="yes"/>
      <point x="316" y="187"/>
      <point x="384" y="110"/>
      <point x="512" y="110" type="curve" smooth="yes"/>
      <point x="680" y="110"/>
      <point x="816" y="267"/>
      <point x="816" y="530" type="curve" smooth="yes"/>
      <point x="816" y="920" type="line"/>
      <point x="980" y="920" type="line"/>
      <point x="980" y="0" type="line"/>
      <point x="856" y="0" type="line"/>
      <point x="816" y="190" type="line"/>
      <point x="896" y="370" type="line"/>
      <point x="896" y="214"/>
      <point x="774" y="-20"/>
      <point x="507" y="-20" type="curve" smooth="yes"/>
      <point x="315" y="-20"/>
      <point x="202" y="114"/>
    </contour>
  </outline>
</glyph>
<glyph name="paragraph" format="2">
  <advance width="1200"/>
  <unicode hex="00B6"/>
  <outline>
    <contour>
      <point x="812" y="-210" type="line"/>
      <point x="812" y="1190" type="line"/>
      <point x="951" y="1190" type="line"/>
      <point x="951" y="-210" type="line"/>
    </contour>
    <contour>
      <point x="532" y="-210" type="line"/>
      <point x="532" y="530" type="line"/>
      <point x="459" y="530" type="line" smooth="yes"/>
      <point x="292" y="530"/>
      <point x="100" y="664"/>
      <point x="100" y="910" type="curve" smooth="yes"/>
      <point x="100" y="1166"/>
      <point x="273" y="1300"/>
      <point x="559" y="1300" type="curve" smooth="yes"/>
      <point x="1121" y="1300" type="line"/>
      <point x="1121" y="1160" type="line"/>
      <point x="671" y="1190" type="line"/>
      <point x="671" y="-210" type="line"/>
    </contour>
  </outline>
</glyph>
<glyph name="periodcentered" format="2">
  <advance width="1200"/>
  <unicode hex="00B7"/>
  <outline>
    <contour>
      <point x="488" y="676" type="curve" smooth="yes"/>
      <point x="488" y="742"/>
      <point x="534" y="788"/>
      <point x="600" y="788" type="curve" smooth="yes"/>
      <point x="666" y="788"/>
      <point x="712" y="742"/>
      <point x="712" y="676" type="curve" smooth="yes"/>
      <point x="712" y="610"/>
      <point x="670" y="564"/>
      <point x="604" y="564" type="curve" smooth="yes"/>
      <point x="538" y="564"/>
      <point x="488" y="610"/>
    </contour>
  </outline>
</glyph>
<glyph name="cedilla" format="2">
  <advance width="1200"/>
  <unicode hex="00B8"/>
  <outline>
    <contour>
      <point x="557" y="-490" type="curve" smooth="yes"/>
      <point x="473" y="-490"/>
      <point x="415" y="-474"/>
      <point x="359" y="-434" type="curve"/>
      <point x="405" y="-334" type="line"/>
      <point x="461" y="-366"/>
      <point x="505" y="-372"/>
      <point x="557" y="-372" type="curve" smooth="yes"/>
      <point x="651" y="-372"/>
      <point x="697" y="-354"/>
      <point x="697" y="-302" type="curve" smooth="yes"/>
      <point x="697" y="-254"/>
      <point x="635" y="-230"/>
      <point x="497" y="-230" type="curve"/>
      <point x="473" y="-176" type="line"/>
      <point x="643" y="70" type="line"/>
      <point x="785" y="70" type="line"/>
      <point x="595" y="-194" type="line"/>
      <point x="537" y="-224" type="line"/>
      <point x="557" y="-184"/>
      <point x="615" y="-154"/>
      <point x="665" y="-154" type="curve" smooth="yes"/>
      <point x="751" y="-154"/>
      <point x="841" y="-202"/>
      <point x="841" y="-302" type="curve" smooth="yes"/>
      <point x="841" y="-430"/>
      <point x="711" y="-490"/>
    </contour>
  </outline>
</glyph>
<glyph name="ordmasculine" format="2">
  <advance width="1200"/>
  <unicode hex="00BA"/>
  <outline>
    <contour>
      <point x="596" y="648" type="curve" smooth="yes"/>
      <point x="403" y="648"/>
      <point x="268" y="763"/>
      <point x="268" y="984" type="curve" smooth="yes"/>
      <point x="268" y="1198"/>
      <point x="416" y="1320"/>
      <point x="596" y="1320" type="curve" smooth="yes"/>
      <point x="776" y="1320"/>
      <point x="932" y="1198"/>
      <point x="932" y="984" type="curve" smooth="yes"/>
      <point x="932" y="763"/>
      <point x="789" y="648"/>
    </contour>
    <contour>
      <point x="596" y="1206" type="curve" smooth="yes"/>
      <point x="498" y="1206"/>
      <point x="410" y="1133"/>
      <point x="410" y="984" type="curve" smooth="yes"/>
      <point x="410" y="828"/>
      <point x="484" y="762"/>
      <point x="596" y="762" type="curve" smooth="yes"/>
      <point x="708" y="762"/>
      <point x="790" y="828"/>
      <point x="790" y="984" type="curve" smooth="yes"/>
      <point x="790" y="1133"/>
      <point x="694" y="1206"/>
    </contour>
  </outline>
</glyph>
<glyph name="AE" format="2">
  <advance width="1200"/>
  <unicode hex="00C6"/>
  <outline>
    <contour>
      <point x="131" y="1300" type="line"/>
      <point x="480" y="1300" type="line"/>
      <point x="480" y="1190" type="line"/>
      <point x="131" y="1170" type="line"/>
    </contour>
    <contour>
      <point x="139" y="-20" type="line"/>
      <point x="-33" y="-20" type="line"/>
      <point x="480" y="1300" type="line"/>
      <point x="680" y="1300" type="line"/>
      <point x="600" y="1230" type="line"/>
    </contour>
    <contour>
      <point x="219" y="500" type="line"/>
      <point x="732" y="500" type="line"/>
      <point x="732" y="370" type="line"/>
      <point x="219" y="370" type="line"/>
    </contour>
    <contour>
      <point x="1011" y="740" type="line"/>
      <point x="1011" y="605" type="line"/>
      <point x="759" y="615" type="line"/>
      <point x="759" y="130" type="line"/>
      <point x="988" y="130" type="line"/>
      <point x="1021" y="450" type="line"/>
      <point x="1140" y="450" type="line"/>
      <point x="1140" y="0" type="line"/>
      <point x="450" y="0" type="line"/>
      <point x="450" y="130" type="line"/>
      <point x="590" y="130" type="line"/>
      <point x="590" y="1300" type="line"/>
      <point x="1100" y="1300" type="line"/>
      <point x="1140" y="900" type="line"/>
      <point x="1021" y="900" type="line"/>
      <point x="951" y="1170" type="line"/>
      <point x="759" y="1170" type="line"/>
      <point x="759" y="730" type="line"/>
    </contour>
  </outline>
</glyph>
<glyph name="Oslash" format="2">
  <advance width="1200"/>
  <unicode hex="00D8"/>
  <outline>
    <contour>
      <point x="899.5" y="1415" type="line"/>
      <point x="1031.5" y="1355" type="line"/>
      <point x="261.5" y="-105" type="line"/>
      <point x="129.5" y="-45" type="line"/>
    </contour>
    <component base="O" xOffset="0.5"/>
  </outline>
</glyph>
<glyph name="Thorn" format="2">
  <advance width="1200"/>
  <unicode hex="00DE"/>
  <outline>
    <contour>
      <point x="100" y="0" type="line"/>
      <point x="100" y="130" type="line"/>
      <point x="270" y="130" type="line"/>
      <point x="270" y="1170" type="line"/>
      <point x="100" y="1170" type="line"/>
      <point x="100" y="1300" type="line"/>
      <point x="429" y="1300" type="line"/>
      <point x="429" y="1050" type="line"/>
      <point x="682" y="1050" type="line" smooth="yes"/>
      <point x="968" y="1050"/>
      <point x="1121" y="926"/>
      <point x="1121" y="690" type="curve" smooth="yes"/>
      <point x="1121" y="464"/>
      <point x="949" y="340"/>
      <point x="682" y="340" type="curve" smooth="yes"/>
      <point x="429" y="340" type="line"/>
      <point x="429" y="130" type="line"/>
      <point x="669" y="130" type="line"/>
      <point x="669" y="0" type="line"/>
    </contour>
    <contour>
      <point x="429" y="470" type="line"/>
      <point x="682" y="470" type="line" smooth="yes"/>
      <point x="880" y="470"/>
      <point x="961" y="567"/>
      <point x="961" y="690" type="curve" smooth="yes"/>
      <point x="961" y="823"/>
      <point x="900" y="920"/>
      <point x="682" y="920" type="curve" smooth="yes"/>
      <point x="429" y="920" type="line"/>
    </contour>
  </outline>
</glyph>
<glyph name="germandbls" format="2">
  <advance width="1200"/>
  <unicode hex="00DF"/>
  <outline>
    <contour>
      <point x="70" y="0" type="line"/>
      <point x="70" y="130" type="line"/>
      <point x="200" y="130" type="line"/>
      <point x="199" y="1000" type="line" smooth="yes"/>
      <point x="199" y="1246"/>
      <point x="302" y="1440"/>
      <point x="609" y="1440" type="curve"/>
      <point x="609" y="1300" type="line"/>
      <point x="421" y="1300"/>
      <point x="359" y="1153"/>
      <point x="359" y="1000" type="curve" smooth="yes"/>
      <point x="359" y="130" type="line"/>
      <point x="500" y="130" type="line"/>
      <point x="500" y="0" type="line"/>
    </contour>
    <contour>
      <point x="609" y="1440" type="line"/>
      <point x="827" y="1440"/>
      <point x="927" y="1331"/>
      <point x="927" y="1189" type="curve" smooth="yes"/>
      <point x="927" y="1052"/>
      <point x="857" y="1000"/>
      <point x="805" y="947" type="curve" smooth="yes"/>
      <point x="756" y="898"/>
      <point x="713" y="873"/>
      <point x="713" y="817" type="curve" smooth="yes"/>
      <point x="713" y="749"/>
      <point x="782" y="742"/>
      <point x="881" y="696" type="curve" smooth="yes"/>
      <point x="1028" y="628"/>
      <point x="1119" y="552"/>
      <point x="1119" y="346" type="curve" smooth="yes"/>
      <point x="1119" y="151"/>
      <point x="999" y="1"/>
      <point x="781" y="1" type="curve" smooth="yes"/>
      <point x="727" y="1"/>
      <point x="646" y="11"/>
      <point x="580" y="43" type="curve"/>
      <point x="630" y="178" type="line"/>
      <point x="681" y="152"/>
      <point x="725" y="145"/>
      <point x="763" y="145" type="curve" smooth="yes"/>
      <point x="893" y="145"/>
      <point x="947" y="243"/>
      <point x="947" y="354" type="curve" smooth="yes"/>
      <point x="947" y="487"/>
      <point x="885" y="539"/>
      <point x="771" y="576" type="curve" smooth="yes"/>
      <point x="660" y="612"/>
      <point x="543" y="665"/>
      <point x="543" y="787" type="curve" smooth="yes"/>
      <point x="543" y="914"/>
      <point x="648" y="981"/>
      <point x="695" y="1039" type="curve" smooth="yes"/>
      <point x="744" y="1098"/>
      <point x="767" y="1133"/>
      <point x="767" y="1189" type="curve" smooth="yes"/>
      <point x="767" y="1257"/>
      <point x="702" y="1300"/>
      <point x="609" y="1300" type="curve"/>
    </contour>
  </outline>
</glyph>
<glyph name="ae" format="2">
  <advance width="1200"/>
  <unicode hex="00E6"/>
  <outline>
    <contour>
      <point x="696" y="630" type="curve" smooth="yes"/>
      <point x="626" y="155" type="line"/>
      <point x="537" y="120" type="line"/>
      <point x="537" y="610" type="line" smooth="yes"/>
      <point x="537" y="703"/>
      <point x="519" y="800"/>
      <point x="431" y="800" type="curve" smooth="yes"/>
      <point x="363" y="800"/>
      <point x="310" y="750"/>
      <point x="235" y="667" type="curve"/>
      <point x="136" y="770" type="line"/>
      <point x="246" y="896"/>
      <point x="339" y="940"/>
      <point x="446" y="940" type="curve" smooth="yes"/>
      <point x="633" y="940"/>
      <point x="696" y="787"/>
    </contour>
    <contour>
      <point x="248" y="216" type="curve" smooth="yes"/>
      <point x="248" y="150"/>
      <point x="289" y="115"/>
      <point x="337" y="115" type="curve" smooth="yes"/>
      <point x="425" y="115"/>
      <point x="497" y="177"/>
      <point x="587" y="300" type="curve"/>
      <point x="657" y="210" type="line"/>
      <point x="587" y="74"/>
      <point x="464" y="-20"/>
      <point x="317" y="-20" type="curve" smooth="yes"/>
      <point x="161" y="-20"/>
      <point x="78" y="74"/>
      <point x="78" y="200" type="curve" smooth="yes"/>
      <point x="78" y="423"/>
      <point x="283" y="508"/>
      <point x="536" y="619" type="curve"/>
      <point x="576" y="528" type="line"/>
      <point x="350" y="423"/>
      <point x="248" y="310"/>
    </contour>
    <contour>
      <point x="1121" y="79" type="line"/>
      <point x="1061" y="23"/>
      <point x="990" y="-20"/>
      <point x="894" y="-20" type="curve"/>
      <point x="874" y="122" type="line"/>
      <point x="931" y="122"/>
      <point x="994" y="154"/>
      <point x="1043" y="192" type="curve"/>
    </contour>
    <contour>
      <point x="894" y="-20" type="line"/>
      <point x="638" y="-20"/>
      <point x="577" y="194"/>
      <point x="577" y="480" type="curve" smooth="yes"/>
      <point x="577" y="756"/>
      <point x="672" y="940"/>
      <point x="889" y="940" type="curve" smooth="yes"/>
      <point x="1076" y="940"/>
      <point x="1109" y="785"/>
      <point x="1109" y="602" type="curve" smooth="yes"/>
      <point x="1109" y="534"/>
      <point x="1098" y="487"/>
      <point x="1082" y="437" type="curve"/>
      <point x="673" y="407" type="line"/>
      <point x="673" y="517" type="line"/>
      <point x="950" y="557" type="line"/>
      <point x="983" y="717"/>
      <point x="939" y="805"/>
      <point x="859" y="805" type="curve" smooth="yes"/>
      <point x="731" y="805"/>
      <point x="693" y="653"/>
      <point x="693" y="460" type="curve" smooth="yes"/>
      <point x="693" y="217"/>
      <point x="726" y="122"/>
      <point x="874" y="122" type="curve"/>
    </contour>
  </outline>
</glyph>
<glyph name="eth" format="2">
  <advance width="1200"/>
  <unicode hex="00F0"/>
  <outline>
    <contour>
      <point x="590" y="-20" type="curve" smooth="yes"/>
      <point x="302" y="-20"/>
      <point x="114" y="180"/>
      <point x="114" y="460" type="curve" smooth="yes"/>
      <point x="114" y="722"/>
      <point x="298" y="940"/>
      <point x="548" y="940" type="curve" smooth="yes"/>
      <point x="718" y="940"/>
      <point x="808" y="866"/>
      <point x="912" y="742" type="curve"/>
      <point x="820" y="772" type="line"/>
      <point x="732" y="958"/>
      <point x="578" y="1142"/>
      <point x="350" y="1348" type="curve"/>
      <point x="456" y="1450" type="line"/>
      <point x="884" y="1022"/>
      <point x="1066" y="728"/>
      <point x="1066" y="460" type="curve" smooth="yes"/>
      <point x="1066" y="180"/>
      <point x="878" y="-20"/>
    </contour>
    <contour>
      <point x="590" y="134" type="curve" smooth="yes"/>
      <point x="774" y="134"/>
      <point x="904" y="272"/>
      <point x="904" y="460" type="curve" smooth="yes"/>
      <point x="904" y="650"/>
      <point x="770" y="816"/>
      <point x="590" y="816" type="curve" smooth="yes"/>
      <point x="410" y="816"/>
      <point x="276" y="650"/>
      <point x="276" y="460" type="curve" smooth="yes"/>
      <point x="276" y="272"/>
      <point x="406" y="134"/>
    </contour>
    <contour>
      <point x="382" y="1006" type="line"/>
      <point x="346" y="1100" type="line"/>
      <point x="906" y="1314" type="line"/>
      <point x="942" y="1220" type="line"/>
    </contour>
  </outline>
</glyph>
<glyph name="divide" format="2">
  <advance width="1200"/>
  <unicode hex="00F7"/>
  <outline>
    <contour>
      <point x="229" y="730" type="line"/>
      <point x="971" y="730" type="line"/>
      <point x="971" y="620" type="line"/>
      <point x="229" y="620" type="line"/>
    </contour>
    <component base="period" xScale="0.75" yScale="0.75" xOffset="150" yOffset="852"/>
    <component base="period" xScale="0.75" yScale="0.75" xOffset="150" yOffset="302"/>
  </outline>
</glyph>
<glyph name="dcroat" format="2">
  <advance width="1200"/>
  <unicode hex="0111"/>
  <outline>
    <contour>
      <point x="699" y="1160" type="line"/>
      <point x="1201" y="1160" type="line"/>
      <point x="1201" y="1030" type="line"/>
      <point x="699" y="1030" type="line"/>
    </contour>
    <contour>
      <point x="598" y="805" type="curve" smooth="yes"/>
      <point x="430" y="805"/>
      <point x="278" y="673"/>
      <point x="278" y="460" type="curve" smooth="yes"/>
      <point x="278" y="237"/>
      <point x="410" y="125"/>
      <point x="598" y="125" type="curve" smooth="yes"/>
      <point x="766" y="125"/>
      <point x="902" y="237"/>
      <point x="902" y="460" type="curve" smooth="yes"/>
      <point x="902" y="673"/>
      <point x="776" y="805"/>
    </contour>
    <contour>
      <point x="558" y="-20" type="curve" smooth="yes"/>
      <point x="332" y="-20"/>
      <point x="113" y="134"/>
      <point x="113" y="460" type="curve" smooth="yes"/>
      <point x="113" y="756"/>
      <point x="341" y="940"/>
      <point x="578" y="940" type="curve" smooth="yes"/>
      <point x="845" y="940"/>
      <point x="982" y="746"/>
      <point x="982" y="460" type="curve" smooth="yes"/>
      <point x="982" y="164"/>
      <point x="844" y="-20"/>
    </contour>
    <contour>
      <point x="901" y="190" type="line"/>
      <point x="901" y="1330" type="line"/>
      <point x="1060" y="1330" type="line"/>
      <point x="1060" y="0" type="line"/>
      <point x="941" y="0" type="line"/>
    </contour>
  </outline>
</glyph>
<glyph name="Hbar" format="2">
  <advance width="1200"/>
  <unicode hex="0126"/>
  <outline>
    <contour>
      <point x="851" y="610" type="line"/>
      <point x="349" y="610" type="line"/>
      <point x="349" y="130" type="line"/>
      <point x="508" y="130" type="line"/>
      <point x="508" y="0" type="line"/>
      <point x="40" y="0" type="line"/>
      <point x="40" y="130" type="line"/>
      <point x="190" y="130" type="line"/>
      <point x="190" y="1170" type="line"/>
      <point x="40" y="1170" type="line"/>
      <point x="40" y="1300" type="line"/>
      <point x="508" y="1300" type="line"/>
      <point x="508" y="1170" type="line"/>
      <point x="349" y="1170" type="line"/>
      <point x="349" y="740" type="line"/>
      <point x="851" y="740" type="line"/>
      <point x="851" y="1170" type="line"/>
      <point x="692" y="1170" type="line"/>
      <point x="692" y="1300" type="line"/>
      <point x="1160" y="1300" type="line"/>
      <point x="1160" y="1170" type="line"/>
      <point x="1010" y="1170" type="line"/>
      <point x="1010" y="130" type="line"/>
      <point x="1160" y="130" type="line"/>
      <point x="1160" y="0" type="line"/>
      <point x="692" y="0" type="line"/>
      <point x="692" y="130" type="line"/>
      <point x="851" y="130" type="line"/>
    </contour>
    <contour>
      <point x="39" y="1020" type="line"/>
      <point x="1161" y="1020" type="line"/>
      <point x="1161" y="890" type="line"/>
      <point x="39" y="890" type="line"/>
    </contour>
  </outline>
</glyph>
<glyph name="hbar" format="2">
  <advance width="1200"/>
  <unicode hex="0127"/>
  <outline>
    <contour>
      <point x="59" y="1160" type="line"/>
      <point x="561" y="1160" type="line"/>
      <point x="561" y="1030" type="line"/>
      <point x="59" y="1030" type="line"/>
    </contour>
    <component base="h.alt"/>
  </outline>
</glyph>
<glyph name="dotlessi" format="2">
  <advance width="1200"/>
  <unicode hex="0131"/>
  <anchor x="597" y="0" name="Anchor-2"/>
  <anchor x="596" y="920" name="Anchor-0"/>
  <outline>
    <contour>
      <point x="200" y="0" type="line"/>
      <point x="200" y="130" type="line"/>
      <point x="560" y="130" type="line"/>
      <point x="560" y="780" type="line"/>
      <point x="260" y="780" type="line"/>
      <point x="260" y="920" type="line"/>
      <point x="739" y="920" type="line"/>
      <point x="739" y="130" type="line"/>
      <point x="1100" y="130" type="line"/>
      <point x="1100" y="0" type="line"/>
    </contour>
  </outline>
</glyph>
<glyph name="IJ" format="2">
  <advance width="1200"/>
  <unicode hex="0132"/>
  <outline>
    <contour>
      <point x="90" y="0" type="line"/>
      <point x="90" y="130" type="line"/>
      <point x="245" y="130" type="line"/>
      <point x="245" y="1170" type="line"/>
      <point x="100" y="1170" type="line"/>
      <point x="100" y="1300" type="line"/>
      <point x="560" y="1300" type="line"/>
      <point x="560" y="1170" type="line"/>
      <point x="415" y="1170" type="line"/>
      <point x="415" y="130" type="line"/>
      <point x="570" y="130" type="line"/>
      <point x="570" y="0" type="line"/>
    </contour>
    <contour>
      <point x="684" y="124" type="line"/>
      <point x="832" y="124"/>
      <point x="949" y="217"/>
      <point x="949" y="430" type="curve" smooth="yes"/>
      <point x="950" y="1170" type="line"/>
      <point x="681" y="1170" type="line"/>
      <point x="681" y="1300" type="line"/>
      <point x="1110" y="1300" type="line"/>
      <point x="1109" y="430" type="line" smooth="yes"/>
      <point x="1109" y="174"/>
      <point x="955" y="-20"/>
      <point x="689" y="-20" type="curve"/>
    </contour>
  </outline>
</glyph>
<glyph name="ij" format="2">
  <advance width="1200"/>
  <unicode hex="0133"/>
  <outline>
    <contour>
      <point x="250" y="1255" type="curve" smooth="yes"/>
      <point x="250" y="1328"/>
      <point x="301" y="1380"/>
      <point x="374" y="1380" type="curve" smooth="yes"/>
      <point x="447" y="1380"/>
      <point x="499" y="1328"/>
      <point x="499" y="1255" type="curve" smooth="yes"/>
      <point x="499" y="1182"/>
      <point x="452" y="1130"/>
      <point x="379" y="1130" type="curve" smooth="yes"/>
      <point x="306" y="1130"/>
      <point x="250" y="1182"/>
    </contour>
    <contour>
      <point x="80" y="0" type="line"/>
      <point x="80" y="130" type="line"/>
      <point x="290" y="130" type="line"/>
      <point x="290" y="780" type="line"/>
      <point x="90" y="780" type="line"/>
      <point x="90" y="920" type="line"/>
      <point x="469" y="920" type="line"/>
      <point x="469" y="130" type="line"/>
      <point x="680" y="130" type="line"/>
      <point x="680" y="0" type="line"/>
    </contour>
    <contour>
      <point x="600" y="-290" type="curve"/>
      <point x="600" y="-430" type="line"/>
      <point x="413" y="-430"/>
      <point x="290" y="-331"/>
      <point x="215" y="-231" type="curve"/>
      <point x="341" y="-150" type="line"/>
      <point x="383" y="-200"/>
      <point x="472" y="-290"/>
    </contour>
    <contour>
      <point x="800" y="1255" type="curve" smooth="yes"/>
      <point x="800" y="1328"/>
      <point x="851" y="1380"/>
      <point x="924" y="1380" type="curve" smooth="yes"/>
      <point x="997" y="1380"/>
      <point x="1049" y="1328"/>
      <point x="1049" y="1255" type="curve" smooth="yes"/>
      <point x="1049" y="1182"/>
      <point x="1002" y="1130"/>
      <point x="929" y="1130" type="curve" smooth="yes"/>
      <point x="856" y="1130"/>
      <point x="800" y="1182"/>
    </contour>
    <contour>
      <point x="1009" y="920" type="line"/>
      <point x="1010" y="10" type="line" smooth="yes"/>
      <point x="1010" y="-236"/>
      <point x="907" y="-430"/>
      <point x="600" y="-430" type="curve"/>
      <point x="600" y="-290" type="line"/>
      <point x="828" y="-290"/>
      <point x="840" y="-143"/>
      <point x="840" y="10" type="curve" smooth="yes"/>
      <point x="840" y="780" type="line"/>
      <point x="650" y="780" type="line"/>
      <point x="650" y="920" type="line"/>
    </contour>
  </outline>
</glyph>
<glyph name="kgreenlandic" format="2">
  <advance width="1200"/>
  <unicode hex="0138"/>
  <anchor x="626" y="0" name="Anchor-2"/>
  <anchor x="636" y="920" name="Anchor-0"/>
  <outline>
    <contour>
      <point x="980" y="0" type="line"/>
      <point x="550" y="470" type="line"/>
      <point x="670" y="550" type="line"/>
      <point x="1210" y="0" type="line"/>
    </contour>
    <contour>
      <point x="912" y="920" type="line"/>
      <point x="1132" y="920" type="line"/>
      <point x="380" y="220" type="line"/>
      <point x="380" y="0" type="line"/>
      <point x="220" y="0" type="line"/>
      <point x="220" y="780" type="line"/>
      <point x="50" y="780" type="line"/>
      <point x="50" y="920" type="line"/>
      <point x="380" y="920" type="line"/>
      <point x="380" y="404" type="line"/>
    </contour>
  </outline>
</glyph>
<glyph name="lslash" format="2">
  <advance width="1200"/>
  <unicode hex="0142"/>
  <outline>
    <contour>
      <point x="345" y="620" type="line"/>
      <point x="305" y="735" type="line"/>
      <point x="865" y="975" type="line"/>
      <point x="905" y="860" type="line"/>
    </contour>
    <component base="l"/>
  </outline>
</glyph>
<glyph name="Eng" format="2">
  <advance width="1200"/>
  <unicode hex="014A"/>
  <outline>
    <contour>
      <point x="1038" y="0" type="line"/>
      <point x="1038" y="-246"/>
      <point x="941" y="-440"/>
      <point x="634" y="-440" type="curve"/>
      <point x="634" y="-300" type="line"/>
      <point x="862" y="-300"/>
      <point x="874" y="-153"/>
      <point x="874" y="0" type="curve"/>
    </contour>
    <contour>
      <point x="210" y="1160" type="line"/>
      <point x="40" y="1160" type="line"/>
      <point x="40" y="1300" type="line"/>
      <point x="210" y="1300" type="line"/>
    </contour>
    <contour>
      <point x="1038" y="950" type="curve" smooth="yes"/>
      <point x="1038" y="0" type="line"/>
      <point x="874" y="0" type="line"/>
      <point x="874" y="960" type="line" smooth="yes"/>
      <point x="874" y="1113"/>
      <point x="811" y="1190"/>
      <point x="683" y="1190" type="curve" smooth="yes"/>
      <point x="515" y="1190"/>
      <point x="374" y="1033"/>
      <point x="374" y="820" type="curve" smooth="yes"/>
      <point x="374" y="0" type="line"/>
      <point x="210" y="0" type="line"/>
      <point x="210" y="1300" type="line"/>
      <point x="334" y="1300" type="line"/>
      <point x="374" y="1110" type="line"/>
      <point x="294" y="930" type="line"/>
      <point x="294" y="1086"/>
      <point x="446" y="1320"/>
      <point x="713" y="1320" type="curve" smooth="yes"/>
      <point x="925" y="1320"/>
      <point x="1038" y="1186"/>
    </contour>
  </outline>
</glyph>
<glyph name="eng" format="2">
  <advance width="1200"/>
  <unicode hex="014B"/>
  <outline>
    <contour>
      <point x="1038" y="0" type="line"/>
      <point x="1038" y="-246"/>
      <point x="941" y="-440"/>
      <point x="634" y="-440" type="curve"/>
      <point x="634" y="-300" type="line"/>
      <point x="862" y="-300"/>
      <point x="874" y="-153"/>
      <point x="874" y="0" type="curve"/>
    </contour>
    <contour>
      <point x="210" y="780" type="line"/>
      <point x="40" y="780" type="line"/>
      <point x="40" y="920" type="line"/>
      <point x="210" y="920" type="line"/>
    </contour>
    <contour>
      <point x="1038" y="570" type="curve" smooth="yes"/>
      <point x="1038" y="0" type="line"/>
      <point x="874" y="0" type="line"/>
      <point x="874" y="580" type="line" smooth="yes"/>
      <point x="874" y="733"/>
      <point x="811" y="810"/>
      <point x="683" y="810" type="curve" smooth="yes"/>
      <point x="515" y="810"/>
      <point x="374" y="653"/>
      <point x="374" y="440" type="curve" smooth="yes"/>
      <point x="374" y="0" type="line"/>
      <point x="210" y="0" type="line"/>
      <point x="210" y="920" type="line"/>
      <point x="334" y="920" type="line"/>
      <point x="374" y="730" type="line"/>
      <point x="294" y="550" type="line"/>
      <point x="294" y="706"/>
      <point x="446" y="940"/>
      <point x="713" y="940" type="curve" smooth="yes"/>
      <point x="925" y="940"/>
      <point x="1038" y="806"/>
    </contour>
  </outline>
</glyph>
<glyph name="OE" format="2">
  <advance width="1200"/>
  <unicode hex="0152"/>
  <outline>
    <contour>
      <point x="590" y="1300" type="curve"/>
      <point x="590" y="1160" type="line"/>
      <point x="402" y="1160"/>
      <point x="260" y="1003"/>
      <point x="260" y="650" type="curve" smooth="yes"/>
      <point x="260" y="287"/>
      <point x="382" y="140"/>
      <point x="590" y="140" type="curve"/>
      <point x="590" y="0" type="line"/>
      <point x="274" y="0"/>
      <point x="100" y="214"/>
      <point x="100" y="650" type="curve" smooth="yes"/>
      <point x="100" y="1076"/>
      <point x="293" y="1300"/>
    </contour>
    <contour>
      <point x="1011" y="740" type="line"/>
      <point x="1011" y="605" type="line"/>
      <point x="759" y="615" type="line"/>
      <point x="759" y="130" type="line"/>
      <point x="988" y="130" type="line"/>
      <point x="1021" y="450" type="line"/>
      <point x="1140" y="450" type="line"/>
      <point x="1140" y="0" type="line"/>
      <point x="590" y="0" type="line"/>
      <point x="590" y="1300" type="line"/>
      <point x="1100" y="1300" type="line"/>
      <point x="1140" y="900" type="line"/>
      <point x="1021" y="900" type="line"/>
      <point x="951" y="1170" type="line"/>
      <point x="759" y="1170" type="line"/>
      <point x="759" y="730" type="line"/>
    </contour>
  </outline>
</glyph>
<glyph name="oe" format="2">
  <advance width="1200"/>
  <unicode hex="0153"/>
  <outline>
    <contour>
      <point x="379" y="-20" type="curve" smooth="yes"/>
      <point x="173" y="-20"/>
      <point x="91" y="144"/>
      <point x="91" y="460" type="curve" smooth="yes"/>
      <point x="91" y="766"/>
      <point x="192" y="940"/>
      <point x="379" y="940" type="curve" smooth="yes"/>
      <point x="596" y="940"/>
      <point x="649" y="766"/>
      <point x="649" y="460" type="curve" smooth="yes"/>
      <point x="649" y="144"/>
      <point x="615" y="-20"/>
    </contour>
    <contour>
      <point x="399" y="805" type="curve" smooth="yes"/>
      <point x="301" y="805"/>
      <point x="265" y="673"/>
      <point x="265" y="460" type="curve" smooth="yes"/>
      <point x="265" y="237"/>
      <point x="281" y="115"/>
      <point x="399" y="115" type="curve" smooth="yes"/>
      <point x="527" y="115"/>
      <point x="535" y="237"/>
      <point x="535" y="460" type="curve" smooth="yes"/>
      <point x="535" y="673"/>
      <point x="507" y="805"/>
    </contour>
    <contour>
      <point x="1121" y="79" type="line"/>
      <point x="1061" y="23"/>
      <point x="990" y="-20"/>
      <point x="894" y="-20" type="curve"/>
      <point x="874" y="122" type="line"/>
      <point x="931" y="122"/>
      <point x="994" y="154"/>
      <point x="1043" y="192" type="curve"/>
    </contour>
    <contour>
      <point x="894" y="-20" type="line"/>
      <point x="638" y="-20"/>
      <point x="577" y="194"/>
      <point x="577" y="480" type="curve" smooth="yes"/>
      <point x="577" y="756"/>
      <point x="672" y="940"/>
      <point x="889" y="940" type="curve" smooth="yes"/>
      <point x="1076" y="940"/>
      <point x="1109" y="785"/>
      <point x="1109" y="602" type="curve" smooth="yes"/>
      <point x="1109" y="534"/>
      <point x="1098" y="487"/>
      <point x="1082" y="437" type="curve"/>
      <point x="673" y="407" type="line"/>
      <point x="673" y="517" type="line"/>
      <point x="950" y="557" type="line"/>
      <point x="983" y="717"/>
      <point x="939" y="805"/>
      <point x="859" y="805" type="curve" smooth="yes"/>
      <point x="731" y="805"/>
      <point x="693" y="653"/>
      <point x="693" y="460" type="curve" smooth="yes"/>
      <point x="693" y="217"/>
      <point x="726" y="122"/>
      <point x="874" y="122" type="curve"/>
    </contour>
  </outline>
</glyph>
<glyph name="longs" format="2">
  <advance width="1200"/>
  <unicode hex="017F"/>
  <outline>
    <contour>
      <point x="819" y="1300" type="curve"/>
      <point x="839" y="1440" type="line"/>
      <point x="1026" y="1440"/>
      <point x="1149" y="1371"/>
      <point x="1224" y="1301" type="curve"/>
      <point x="1108" y="1190" type="line"/>
      <point x="1066" y="1220"/>
      <point x="947" y="1300"/>
    </contour>
    <contour>
      <point x="210" y="0" type="line"/>
      <point x="210" y="130" type="line"/>
      <point x="430" y="130" type="line"/>
      <point x="430" y="790" type="line"/>
      <point x="210" y="790" type="line"/>
      <point x="210" y="920" type="line"/>
      <point x="429" y="920" type="line"/>
      <point x="429" y="1000" type="line" smooth="yes"/>
      <point x="429" y="1246"/>
      <point x="532" y="1440"/>
      <point x="839" y="1440" type="curve"/>
      <point x="819" y="1300" type="line"/>
      <point x="621" y="1300"/>
      <point x="599" y="1153"/>
      <point x="599" y="1000" type="curve" smooth="yes"/>
      <point x="599" y="130" type="line"/>
      <point x="1000" y="130" type="line"/>
      <point x="1000" y="0" type="line"/>
    </contour>
  </outline>
</glyph>
<glyph name="florin" format="2">
  <advance width="1200"/>
  <unicode hex="0192"/>
  <outline>
    <contour>
      <point x="290" y="-280" type="curve"/>
      <point x="290" y="-420" type="line"/>
      <point x="103" y="-420"/>
      <point x="30" y="-321"/>
      <point x="-45" y="-221" type="curve"/>
      <point x="81" y="-140" type="line"/>
      <point x="123" y="-190"/>
      <point x="162" y="-280"/>
    </contour>
    <contour>
      <point x="649" y="130" type="line"/>
      <point x="650" y="20" type="line" smooth="yes"/>
      <point x="650" y="-226"/>
      <point x="567" y="-420"/>
      <point x="290" y="-420" type="curve"/>
      <point x="290" y="-280" type="line"/>
      <point x="448" y="-280"/>
      <point x="480" y="-133"/>
      <point x="480" y="20" type="curve" smooth="yes"/>
      <point x="480" y="130" type="line"/>
    </contour>
    <contour>
      <point x="819" y="1300" type="curve"/>
      <point x="839" y="1440" type="line"/>
      <point x="1026" y="1440"/>
      <point x="1149" y="1371"/>
      <point x="1224" y="1301" type="curve"/>
      <point x="1108" y="1190" type="line"/>
      <point x="1066" y="1220"/>
      <point x="947" y="1300"/>
    </contour>
    <contour>
      <point x="480" y="130" type="line"/>
      <point x="480" y="790" type="line"/>
      <point x="260" y="790" type="line"/>
      <point x="260" y="920" type="line"/>
      <point x="479" y="920" type="line"/>
      <point x="479" y="1000" type="line" smooth="yes"/>
      <point x="479" y="1246"/>
      <point x="532" y="1440"/>
      <point x="839" y="1440" type="curve"/>
      <point x="819" y="1300" type="line"/>
      <point x="661" y="1300"/>
      <point x="649" y="1153"/>
      <point x="649" y="1000" type="curve" smooth="yes"/>
      <point x="649" y="920" type="line"/>
      <point x="1050" y="920" type="line"/>
      <point x="1050" y="770" type="line"/>
      <point x="649" y="790" type="line"/>
      <point x="649" y="130" type="line"/>
    </contour>
  </outline>
</glyph>
<glyph name="uni0237" format="2">
  <advance width="1200"/>
  <unicode hex="0237"/>
  <anchor x="596" y="920" name="Anchor-0"/>
  <outline>
    <contour>
      <point x="500" y="-290" type="curve"/>
      <point x="500" y="-430" type="line"/>
      <point x="313" y="-430"/>
      <point x="190" y="-331"/>
      <point x="115" y="-231" type="curve"/>
      <point x="241" y="-150" type="line"/>
      <point x="283" y="-200"/>
      <point x="372" y="-290"/>
    </contour>
    <contour>
      <point x="909" y="920" type="line"/>
      <point x="910" y="10" type="line" smooth="yes"/>
      <point x="910" y="-236"/>
      <point x="807" y="-430"/>
      <point x="500" y="-430" type="curve"/>
      <point x="500" y="-290" type="line"/>
      <point x="728" y="-290"/>
      <point x="740" y="-143"/>
      <point x="740" y="10" type="curve" smooth="yes"/>
      <point x="740" y="780" type="line"/>
      <point x="320" y="780" type="line"/>
      <point x="320" y="920" type="line"/>
    </contour>
  </outline>
</glyph>
<glyph name="uni02BC" format="2">
  <advance width="1200"/>
  <unicode hex="02BC"/>
  <anchor x="206" y="920" name="_Anchor-1"/>
  <outline>
    <contour>
      <point x="470" y="726" type="line"/>
      <point x="510" y="1336" type="line"/>
      <point x="720" y="1336" type="line"/>
      <point x="590" y="726" type="line"/>
    </contour>
  </outline>
</glyph>
<glyph name="circumflex" format="2">
  <advance width="1200"/>
  <unicode hex="02C6"/>
  <outline>
    <contour>
      <point x="408" y="1021" type="line"/>
      <point x="316" y="1101" type="line"/>
      <point x="606" y="1380" type="line"/>
      <point x="884" y="1101" type="line"/>
      <point x="794" y="1021" type="line"/>
      <point x="576" y="1210" type="line"/>
      <point x="636" y="1210" type="line"/>
    </contour>
  </outline>
</glyph>
<glyph name="uni02CA" format="2">
  <advance width="1200"/>
  <unicode hex="02CA"/>
  <outline>
    <contour>
      <point x="471" y="1085" type="line"/>
      <point x="647" y="1391" type="line"/>
      <point x="809" y="1301" type="line"/>
      <point x="561" y="1025" type="line"/>
    </contour>
  </outline>
</glyph>
<glyph name="acutecomb" format="2">
  <advance width="1200"/>
  <unicode hex="0301"/>
  <anchor x="-604" y="920" name="_Anchor-0"/>
  <outline>
    <contour>
      <point x="-768" y="1085" type="line"/>
      <point x="-592" y="1391" type="line"/>
      <point x="-430" y="1301" type="line"/>
      <point x="-678" y="1025" type="line"/>
    </contour>
  </outline>
</glyph>
<glyph name="tildecomb" format="2">
  <advance width="1200"/>
  <unicode hex="0303"/>
  <anchor x="-604" y="920" name="_Anchor-0"/>
  <outline>
    <contour>
      <point x="-942" y="1100" type="line"/>
      <point x="-942" y="1268"/>
      <point x="-863" y="1338"/>
      <point x="-761" y="1338" type="curve" smooth="yes"/>
      <point x="-674" y="1338"/>
      <point x="-617" y="1303"/>
      <point x="-559" y="1256" type="curve" smooth="yes"/>
      <point x="-500" y="1207"/>
      <point x="-475" y="1204"/>
      <point x="-449" y="1204" type="curve" smooth="yes"/>
      <point x="-411" y="1204"/>
      <point x="-388" y="1239"/>
      <point x="-388" y="1312" type="curve"/>
      <point x="-258" y="1312" type="line"/>
      <point x="-258" y="1143"/>
      <point x="-337" y="1074"/>
      <point x="-439" y="1074" type="curve" smooth="yes"/>
      <point x="-526" y="1074"/>
      <point x="-583" y="1109"/>
      <point x="-641" y="1156" type="curve" smooth="yes"/>
      <point x="-700" y="1205"/>
      <point x="-725" y="1208"/>
      <point x="-751" y="1208" type="curve" smooth="yes"/>
      <point x="-789" y="1208"/>
      <point x="-812" y="1173"/>
      <point x="-812" y="1100" type="curve"/>
    </contour>
  </outline>
</glyph>
<glyph name="uni0307" format="2">
  <advance width="1200"/>
  <unicode hex="0307"/>
  <anchor x="-604" y="920" name="_Anchor-0"/>
  <outline>
    <contour>
      <point x="-712" y="1160" type="curve" smooth="yes"/>
      <point x="-712" y="1226"/>
      <point x="-666" y="1272"/>
      <point x="-600" y="1272" type="curve" smooth="yes"/>
      <point x="-534" y="1272"/>
      <point x="-488" y="1226"/>
      <point x="-488" y="1160" type="curve" smooth="yes"/>
      <point x="-488" y="1094"/>
      <point x="-530" y="1048"/>
      <point x="-596" y="1048" type="curve" smooth="yes"/>
      <point x="-662" y="1048"/>
      <point x="-712" y="1094"/>
    </contour>
  </outline>
</glyph>
<glyph name="uni030B" format="2">
  <advance width="1200"/>
  <unicode hex="030B"/>
  <anchor x="-604" y="920" name="_Anchor-0"/>
  <outline>
    <contour>
      <point x="-519" y="1095" type="line"/>
      <point x="-353" y="1391" type="line"/>
      <point x="-181" y="1291" type="line"/>
      <point x="-419" y="1025" type="line"/>
    </contour>
    <contour>
      <point x="-919" y="1095" type="line"/>
      <point x="-753" y="1391" type="line"/>
      <point x="-581" y="1291" type="line"/>
      <point x="-819" y="1025" type="line"/>
    </contour>
  </outline>
</glyph>
<glyph name="uni030C" format="2">
  <advance width="1200"/>
  <unicode hex="030C"/>
  <anchor x="-604" y="920" name="_Anchor-0"/>
  <outline>
    <contour>
      <point x="-408" y="1380" type="line"/>
      <point x="-316" y="1300" type="line"/>
      <point x="-606" y="1021" type="line"/>
      <point x="-884" y="1300" type="line"/>
      <point x="-794" y="1380" type="line"/>
      <point x="-576" y="1191" type="line"/>
      <point x="-636" y="1191" type="line"/>
    </contour>
  </outline>
</glyph>
<glyph name="uni0312" format="2">
  <advance width="1200"/>
  <unicode hex="0312"/>
  <outline>
    <contour>
      <point x="-501" y="1264" type="line"/>
      <point x="-531" y="806" type="line"/>
      <point x="-689" y="806" type="line"/>
      <point x="-591" y="1264" type="line"/>
    </contour>
  </outline>
</glyph>
<glyph name="uni0326" format="2">
  <advance width="1200"/>
  <unicode hex="0326"/>
  <anchor x="-600" y="0" name="_Anchor-3"/>
  <outline>
    <contour>
      <point x="-709" y="-618" type="line"/>
      <point x="-679" y="-160" type="line"/>
      <point x="-521" y="-160" type="line"/>
      <point x="-619" y="-618" type="line"/>
    </contour>
  </outline>
</glyph>
<glyph name="uni0328" format="2">
  <advance width="1200"/>
  <unicode hex="0328"/>
  <anchor x="-550" y="0" name="_Anchor-3"/>
  <outline>
    <contour>
      <point x="-435" y="-250" type="curve"/>
      <point x="-359" y="-360" type="line"/>
      <point x="-409" y="-400"/>
      <point x="-479" y="-440"/>
      <point x="-585" y="-440" type="curve" smooth="yes"/>
      <point x="-723" y="-440"/>
      <point x="-811" y="-358"/>
      <point x="-811" y="-240" type="curve" smooth="yes"/>
      <point x="-811" y="-122"/>
      <point x="-687" y="-2"/>
      <point x="-527" y="70" type="curve"/>
      <point x="-465" y="0" type="line"/>
      <point x="-569" y="-44"/>
      <point x="-651" y="-126"/>
      <point x="-651" y="-210" type="curve" smooth="yes"/>
      <point x="-651" y="-272"/>
      <point x="-615" y="-300"/>
      <point x="-555" y="-300" type="curve" smooth="yes"/>
      <point x="-503" y="-300"/>
      <point x="-463" y="-276"/>
    </contour>
  </outline>
</glyph>
<glyph name="uni0394" format="2">
  <advance width="1200"/>
  <unicode hex="0394"/>
  <outline>
    <contour>
      <point x="239" y="0" type="line"/>
      <point x="67" y="0" type="line"/>
      <point x="510" y="1300" type="line"/>
      <point x="710" y="1300" type="line"/>
      <point x="1133" y="0" type="line"/>
      <point x="961" y="0" type="line"/>
      <point x="590" y="1230" type="line"/>
      <point x="630" y="1230" type="line"/>
    </contour>
    <contour>
      <point x="205" y="130" type="line"/>
      <point x="1002" y="130" type="line"/>
      <point x="1002" y="0" type="line"/>
      <point x="205" y="0" type="line"/>
    </contour>
  </outline>
</glyph>
<glyph name="uni03A9" format="2">
  <advance width="1200"/>
  <unicode hex="03A9"/>
  <outline>
    <contour>
      <point x="479" y="0" type="line"/>
      <point x="79" y="0" type="line"/>
      <point x="79" y="130" type="line"/>
      <point x="330" y="130" type="line"/>
      <point x="330" y="252.943" type="line"/>
      <point x="251.82" y="317.11"/>
      <point x="100" y="465.474"/>
      <point x="100" y="750" type="curve" smooth="yes"/>
      <point x="100" y="1126"/>
      <point x="302" y="1320"/>
      <point x="599" y="1320" type="curve" smooth="yes"/>
      <point x="896" y="1320"/>
      <point x="1099" y="1126"/>
      <point x="1099" y="750" type="curve" smooth="yes"/>
      <point x="1099" y="465.057"/>
      <point x="946.76" y="316.484"/>
      <point x="868" y="252.305" type="curve"/>
      <point x="868" y="130" type="line"/>
      <point x="1119" y="130" type="line"/>
      <point x="1119" y="0" type="line"/>
      <point x="719" y="0" type="line"/>
      <point x="719" y="254.23" type="line"/>
      <point x="807.828" y="316.216"/>
      <point x="939" y="555.116"/>
      <point x="939" y="750" type="curve" smooth="yes"/>
      <point x="939" y="1053"/>
      <point x="787" y="1180"/>
      <point x="599" y="1180" type="curve" smooth="yes"/>
      <point x="411" y="1180"/>
      <point x="260" y="1053"/>
      <point x="260" y="750" type="curve" smooth="yes"/>
      <point x="260" y="555.352"/>
      <point x="390.662" y="316.503"/>
      <point x="478.999" y="254.455" type="curve"/>
      <point x="479" y="0.224609" type="line"/>
    </contour>
  </outline>
</glyph>
<glyph name="pi" format="2">
  <advance width="1200"/>
  <unicode hex="03C0"/>
  <outline>
    <contour>
      <point x="100" y="570" type="line"/>
      <point x="100" y="920" type="line"/>
      <point x="239" y="780" type="line"/>
      <point x="209" y="570" type="line"/>
    </contour>
    <contour>
      <point x="330" y="860" type="line"/>
      <point x="490" y="860" type="line"/>
      <point x="490" y="0" type="line"/>
      <point x="330" y="0" type="line"/>
    </contour>
    <contour>
      <point x="100" y="920" type="line"/>
      <point x="1070" y="920" type="line"/>
      <point x="1070" y="770" type="line"/>
      <point x="100" y="770" type="line"/>
    </contour>
    <contour>
      <point x="760" y="860" type="line"/>
      <point x="920" y="860" type="line"/>
      <point x="920" y="282" type="line" smooth="yes"/>
      <point x="920" y="150"/>
      <point x="966" y="142"/>
      <point x="1026" y="142" type="curve"/>
      <point x="1026" y="-18" type="line"/>
      <point x="858" y="-18"/>
      <point x="760" y="24"/>
      <point x="760" y="242" type="curve" smooth="yes"/>
    </contour>
  </outline>
</glyph>
<glyph name="uni1E9E" format="2">
  <advance width="1200"/>
  <unicode hex="1E9E"/>
  <outline>
    <contour>
      <point x="70" y="0" type="line"/>
      <point x="70" y="130" type="line"/>
      <point x="200" y="130" type="line"/>
      <point x="199" y="880" type="line" smooth="yes"/>
      <point x="199" y="1126"/>
      <point x="332" y="1320"/>
      <point x="639" y="1320" type="curve"/>
      <point x="639" y="1180" type="line"/>
      <point x="451" y="1180"/>
      <point x="359" y="1033"/>
      <point x="359" y="880" type="curve" smooth="yes"/>
      <point x="359" y="130" type="line"/>
      <point x="500" y="130" type="line"/>
      <point x="500" y="0" type="line"/>
    </contour>
    <contour>
      <point x="639" y="1320" type="line"/>
      <point x="867" y="1320"/>
      <point x="1007" y="1211"/>
      <point x="1087" y="1079" type="curve"/>
      <point x="763" y="727" type="line"/>
      <point x="895.509" y="702.588"/>
      <point x="1119" y="617.982"/>
      <point x="1119" y="346" type="curve" smooth="yes"/>
      <point x="1119" y="151"/>
      <point x="999" y="-19"/>
      <point x="781" y="-19" type="curve" smooth="yes"/>
      <point x="727" y="-19"/>
      <point x="646" y="-9"/>
      <point x="580" y="23" type="curve"/>
      <point x="630" y="158" type="line"/>
      <point x="681" y="132"/>
      <point x="725" y="125"/>
      <point x="763" y="125" type="curve" smooth="yes"/>
      <point x="893" y="125"/>
      <point x="947" y="243"/>
      <point x="947" y="354" type="curve" smooth="yes"/>
      <point x="947" y="570.65"/>
      <point x="712.111" y="599.184"/>
      <point x="563" y="677" type="curve"/>
      <point x="897" y="1079" type="line"/>
      <point x="847" y="1137"/>
      <point x="752" y="1180"/>
      <point x="639" y="1180" type="curve"/>
    </contour>
  </outline>
</glyph>
<glyph name="figuredash" format="2">
  <advance width="1200"/>
  <unicode hex="2012"/>
  <outline>
    <contour>
      <point x="189" y="740" type="line"/>
      <point x="1011" y="740" type="line"/>
      <point x="1011" y="610" type="line"/>
      <point x="189" y="610" type="line"/>
    </contour>
  </outline>
</glyph>
<glyph name="endash" format="2">
  <advance width="1200"/>
  <unicode hex="2013"/>
  <outline>
    <contour>
      <point x="109" y="740" type="line"/>
      <point x="1091" y="740" type="line"/>
      <point x="1091" y="610" type="line"/>
      <point x="109" y="610" type="line"/>
    </contour>
  </outline>
</glyph>
<glyph name="emdash" format="2">
  <advance width="1200"/>
  <unicode hex="2014"/>
  <outline>
    <contour>
      <point x="29" y="740" type="line"/>
      <point x="1171" y="740" type="line"/>
      <point x="1171" y="610" type="line"/>
      <point x="29" y="610" type="line"/>
    </contour>
  </outline>
</glyph>
<glyph name="uni2015" format="2">
  <advance width="1200"/>
  <unicode hex="2015"/>
  <outline>
    <contour>
      <point x="-51" y="740" type="line"/>
      <point x="1251" y="740" type="line"/>
      <point x="1251" y="610" type="line"/>
      <point x="-51" y="610" type="line"/>
    </contour>
  </outline>
</glyph>
<glyph name="quotereversed" format="2">
  <advance width="1200"/>
  <unicode hex="201B"/>
  <outline>
    <contour>
      <point x="740" y="690" type="line"/>
      <point x="620" y="690" type="line"/>
      <point x="490" y="1300" type="line"/>
      <point x="700" y="1300" type="line"/>
    </contour>
  </outline>
</glyph>
<glyph name="quotedblright" format="2">
  <advance width="1200"/>
  <unicode hex="201D"/>
  <outline>
    <contour>
      <point x="720" y="730" type="line"/>
      <point x="760" y="1340" type="line"/>
      <point x="970" y="1340" type="line"/>
      <point x="840" y="730" type="line"/>
    </contour>
    <contour>
      <point x="260" y="730" type="line"/>
      <point x="300" y="1340" type="line"/>
      <point x="510" y="1340" type="line"/>
      <point x="380" y="730" type="line"/>
    </contour>
  </outline>
</glyph>
<glyph name="dagger" format="2">
  <advance width="1200"/>
  <unicode hex="2020"/>
  <outline>
    <contour>
      <point x="529" y="1300" type="line"/>
      <point x="671" y="1300" type="line"/>
      <point x="671" y="0" type="line"/>
      <point x="529" y="0" type="line"/>
    </contour>
    <contour>
      <point x="119" y="1000" type="line"/>
      <point x="1081" y="1000" type="line"/>
      <point x="1081" y="880" type="line"/>
      <point x="119" y="880" type="line"/>
    </contour>
  </outline>
</glyph>
<glyph name="perthousand" format="2">
  <advance width="1200"/>
  <unicode hex="2030"/>
  <outline>
    <contour>
      <point x="1028" y="230" type="curve" smooth="yes"/>
      <point x="1028" y="313"/>
      <point x="992" y="365"/>
      <point x="944" y="365" type="curve" smooth="yes"/>
      <point x="886" y="365"/>
      <point x="850" y="313"/>
      <point x="850" y="230" type="curve" smooth="yes"/>
      <point x="850" y="147"/>
      <point x="876" y="95"/>
      <point x="934" y="95" type="curve" smooth="yes"/>
      <point x="992" y="95"/>
      <point x="1028" y="147"/>
    </contour>
    <contour>
      <point x="754" y="230" type="curve" smooth="yes"/>
      <point x="754" y="376"/>
      <point x="807" y="480"/>
      <point x="944" y="480" type="curve" smooth="yes"/>
      <point x="1081" y="480"/>
      <point x="1154" y="376"/>
      <point x="1154" y="230" type="curve" smooth="yes"/>
      <point x="1154" y="74"/>
      <point x="1091" y="-20"/>
      <point x="954" y="-20" type="curve" smooth="yes"/>
      <point x="817" y="-20"/>
      <point x="754" y="74"/>
    </contour>
    <contour>
      <point x="698" y="230" type="curve" smooth="yes"/>
      <point x="698" y="313"/>
      <point x="662" y="365"/>
      <point x="614" y="365" type="curve" smooth="yes"/>
      <point x="556" y="365"/>
      <point x="520" y="313"/>
      <point x="520" y="230" type="curve" smooth="yes"/>
      <point x="520" y="147"/>
      <point x="546" y="95"/>
      <point x="604" y="95" type="curve" smooth="yes"/>
      <point x="662" y="95"/>
      <point x="698" y="147"/>
    </contour>
    <contour>
      <point x="394" y="230" type="curve" smooth="yes"/>
      <point x="394" y="376"/>
      <point x="467" y="480"/>
      <point x="594" y="480" type="curve" smooth="yes"/>
      <point x="741" y="480"/>
      <point x="794" y="376"/>
      <point x="794" y="230" type="curve" smooth="yes"/>
      <point x="794" y="74"/>
      <point x="751" y="-20"/>
      <point x="604" y="-20" type="curve" smooth="yes"/>
      <point x="477" y="-20"/>
      <point x="394" y="74"/>
    </contour>
    <contour>
      <point x="400" y="1070" type="curve" smooth="yes"/>
      <point x="400" y="1153"/>
      <point x="374" y="1205"/>
      <point x="296" y="1205" type="curve" smooth="yes"/>
      <point x="218" y="1205"/>
      <point x="182" y="1153"/>
      <point x="182" y="1070" type="curve" smooth="yes"/>
      <point x="182" y="987"/>
      <point x="218" y="945"/>
      <point x="286" y="945" type="curve" smooth="yes"/>
      <point x="354" y="945"/>
      <point x="400" y="987"/>
    </contour>
    <contour>
      <point x="46" y="1070" type="curve" smooth="yes"/>
      <point x="46" y="1216"/>
      <point x="129" y="1320"/>
      <point x="286" y="1320" type="curve" smooth="yes"/>
      <point x="412" y="1320"/>
      <point x="519" y="1246"/>
      <point x="675" y="1246" type="curve" smooth="yes"/>
      <point x="835" y="1246"/>
      <point x="910" y="1282"/>
      <point x="1014" y="1370" type="curve"/>
      <point x="1096" y="1290" type="line"/>
      <point x="96" y="130" type="line"/>
      <point x="4" y="200" type="line"/>
      <point x="959" y="1274" type="line"/>
      <point x="949" y="1226" type="line"/>
      <point x="880" y="1167"/>
      <point x="812" y="1141"/>
      <point x="669" y="1141" type="curve" smooth="yes"/>
      <point x="545" y="1141"/>
      <point x="461" y="1178"/>
      <point x="439" y="1204" type="curve"/>
      <point x="471" y="1201" type="line"/>
      <point x="504" y="1164"/>
      <point x="536" y="1126"/>
      <point x="536" y="1040" type="curve" smooth="yes"/>
      <point x="536" y="924"/>
      <point x="443" y="820"/>
      <point x="296" y="820" type="curve" smooth="yes"/>
      <point x="159" y="820"/>
      <point x="46" y="894"/>
    </contour>
  </outline>
</glyph>
<glyph name="guilsinglleft" format="2">
  <advance width="1200"/>
  <unicode hex="2039"/>
  <outline>
    <contour>
      <point x="389" y="525" type="line"/>
      <point x="721" y="920" type="line"/>
      <point x="811" y="840" type="line"/>
      <point x="569" y="525" type="line"/>
      <point x="811" y="210" type="line"/>
      <point x="721" y="130" type="line"/>
    </contour>
  </outline>
</glyph>
<glyph name="uni203D" format="2">
  <advance width="1200"/>
  <unicode hex="203D"/>
  <outline>
    <contour>
      <point x="238" y="933" type="curve"/>
      <point x="123" y="999" type="line"/>
      <point x="223" y="1149"/>
      <point x="446" y="1320"/>
      <point x="742" y="1320" type="curve"/>
      <point x="692" y="1180" type="line"/>
      <point x="524" y="1180"/>
      <point x="350" y="1076"/>
    </contour>
    <contour>
      <point x="451" y="130" type="curve" smooth="yes"/>
      <point x="451" y="218"/>
      <point x="512" y="280"/>
      <point x="600" y="280" type="curve" smooth="yes"/>
      <point x="688" y="280"/>
      <point x="749" y="218"/>
      <point x="749" y="130" type="curve" smooth="yes"/>
      <point x="749" y="42"/>
      <point x="693" y="-20"/>
      <point x="605" y="-20" type="curve" smooth="yes"/>
      <point x="517" y="-20"/>
      <point x="451" y="42"/>
    </contour>
    <contour>
      <point x="871" y="1040" type="curve" smooth="yes"/>
      <point x="871" y="1143"/>
      <point x="800" y="1180"/>
      <point x="692" y="1180" type="curve"/>
      <point x="742" y="1320" type="line"/>
      <point x="968" y="1320"/>
      <point x="1071" y="1236"/>
      <point x="1071" y="1060" type="curve" smooth="yes"/>
      <point x="1071" y="896"/>
      <point x="956" y="771"/>
      <point x="794" y="669" type="curve" smooth="yes"/>
      <point x="682" y="598"/>
      <point x="634" y="566"/>
      <point x="591" y="461" type="curve"/>
      <point x="551" y="602" type="line"/>
      <point x="562" y="656"/>
      <point x="574" y="682"/>
      <point x="676" y="750" type="curve" smooth="yes"/>
      <point x="801" y="834"/>
      <point x="871" y="930"/>
    </contour>
    <contour>
      <point x="550" y="430" type="line"/>
      <point x="490" y="980" type="line"/>
      <point x="710" y="1040" type="line"/>
      <point x="650" y="430" type="line"/>
    </contour>
  </outline>
</glyph>
<glyph name="fraction" format="2">
  <advance width="1200"/>
  <unicode hex="2044"/>
  <outline>
    <contour>
      <point x="980" y="1300" type="line"/>
      <point x="350" y="130" type="line"/>
      <point x="220" y="130" type="line"/>
      <point x="850" y="1300" type="line"/>
    </contour>
  </outline>
</glyph>
<glyph name="uni2070" format="2">
  <advance width="1200"/>
  <unicode hex="2070"/>
  <outline>
    <contour>
      <point x="596" y="590" type="curve" smooth="yes"/>
      <point x="363" y="590"/>
      <point x="218" y="735"/>
      <point x="218" y="956" type="curve" smooth="yes"/>
      <point x="218" y="1170"/>
      <point x="376" y="1320"/>
      <point x="596" y="1320" type="curve" smooth="yes"/>
      <point x="816" y="1320"/>
      <point x="982" y="1170"/>
      <point x="982" y="956" type="curve" smooth="yes"/>
      <point x="982" y="735"/>
      <point x="829" y="590"/>
    </contour>
    <contour>
      <point x="596" y="1206" type="curve" smooth="yes"/>
      <point x="458" y="1206"/>
      <point x="360" y="1105"/>
      <point x="360" y="956" type="curve" smooth="yes"/>
      <point x="360" y="800"/>
      <point x="444" y="704"/>
      <point x="596" y="704" type="curve" smooth="yes"/>
      <point x="748" y="704"/>
      <point x="840" y="800"/>
      <point x="840" y="956" type="curve" smooth="yes"/>
      <point x="840" y="1105"/>
      <point x="734" y="1206"/>
    </contour>
  </outline>
</glyph>
<glyph name="uni2071" format="2">
  <advance width="1200"/>
  <unicode hex="2071"/>
  <outline>
    <contour>
      <point x="282" y="610" type="line"/>
      <point x="282" y="720" type="line"/>
      <point x="587" y="720" type="line"/>
      <point x="587" y="1200" type="line"/>
      <point x="358" y="1200" type="line"/>
      <point x="358" y="1300" type="line"/>
      <point x="710" y="1300" type="line"/>
      <point x="710" y="720" type="line"/>
      <point x="928" y="720" type="line"/>
      <point x="928" y="610" type="line"/>
    </contour>
  </outline>
</glyph>
<glyph name="uni2072" format="2">
  <advance width="1200"/>
  <unicode hex="2072"/>
  <outline>
    <contour>
      <point x="289" y="1125" type="line"/>
      <point x="387" y="1261"/>
      <point x="517" y="1320"/>
      <point x="659" y="1320" type="curve" smooth="yes"/>
      <point x="808" y="1320"/>
      <point x="909" y="1249"/>
      <point x="909" y="1135" type="curve" smooth="yes"/>
      <point x="909" y="983"/>
      <point x="766" y="920"/>
      <point x="629" y="861" type="curve" smooth="yes"/>
      <point x="515" y="812"/>
      <point x="452" y="787"/>
      <point x="428" y="736" type="curve"/>
      <point x="898" y="736" type="line"/>
      <point x="898" y="610" type="line"/>
      <point x="308" y="610" type="line"/>
      <point x="250" y="695" type="line"/>
      <point x="292" y="810"/>
      <point x="418" y="888"/>
      <point x="586" y="957" type="curve" smooth="yes"/>
      <point x="723" y="1014"/>
      <point x="776" y="1063"/>
      <point x="776" y="1130" type="curve" smooth="yes"/>
      <point x="776" y="1192"/>
      <point x="726" y="1227"/>
      <point x="644" y="1227" type="curve" smooth="yes"/>
      <point x="556" y="1227"/>
      <point x="457" y="1161"/>
      <point x="374" y="1062" type="curve"/>
    </contour>
  </outline>
</glyph>
<glyph name="uni2073" format="2">
  <advance width="1200"/>
  <unicode hex="2073"/>
  <outline>
    <contour>
      <point x="374" y="1121" type="curve"/>
      <point x="296" y="1192" type="line"/>
      <point x="354" y="1259"/>
      <point x="494" y="1321"/>
      <point x="613" y="1321" type="curve" smooth="yes"/>
      <point x="768" y="1321"/>
      <point x="877" y="1253"/>
      <point x="877" y="1147" type="curve" smooth="yes"/>
      <point x="877" y="1046"/>
      <point x="782" y="1003"/>
      <point x="714" y="983" type="curve"/>
      <point x="782" y="973"/>
      <point x="917" y="930"/>
      <point x="917" y="799" type="curve" smooth="yes"/>
      <point x="917" y="673"/>
      <point x="798" y="590"/>
      <point x="593" y="590" type="curve" smooth="yes"/>
      <point x="424" y="590"/>
      <point x="314" y="677"/>
      <point x="266" y="744" type="curve"/>
      <point x="364" y="805" type="line"/>
      <point x="413" y="748"/>
      <point x="502" y="698"/>
      <point x="593" y="698" type="curve" smooth="yes"/>
      <point x="719" y="698"/>
      <point x="794" y="743"/>
      <point x="794" y="805" type="curve" smooth="yes"/>
      <point x="794" y="893"/>
      <point x="698" y="924"/>
      <point x="601" y="924" type="curve" smooth="yes"/>
      <point x="459" y="924" type="line"/>
      <point x="459" y="1032" type="line"/>
      <point x="561" y="1032" type="line" smooth="yes"/>
      <point x="658" y="1032"/>
      <point x="744" y="1064"/>
      <point x="744" y="1122" type="curve" smooth="yes"/>
      <point x="744" y="1174"/>
      <point x="699" y="1213"/>
      <point x="593" y="1213" type="curve" smooth="yes"/>
      <point x="492" y="1213"/>
      <point x="413" y="1158"/>
    </contour>
  </outline>
</glyph>
<glyph name="uni2074" format="2">
  <advance width="1200"/>
  <unicode hex="2074"/>
  <outline>
    <contour>
      <point x="704" y="610" type="line"/>
      <point x="704" y="1040" type="line"/>
      <point x="828" y="1110" type="line"/>
      <point x="828" y="610" type="line"/>
    </contour>
    <contour>
      <point x="329" y="900" type="line"/>
      <point x="1010" y="900" type="line"/>
      <point x="1010" y="790" type="line"/>
      <point x="280" y="790" type="line"/>
      <point x="200" y="920" type="line"/>
      <point x="599" y="1360" type="line"/>
      <point x="749" y="1360" type="line"/>
    </contour>
  </outline>
</glyph>
<glyph name="uni2075" format="2">
  <advance width="1200"/>
  <unicode hex="2075"/>
  <outline>
    <contour>
      <point x="867" y="1300" type="line"/>
      <point x="867" y="1190" type="line"/>
      <point x="410" y="1190" type="line"/>
      <point x="400" y="1037" type="line"/>
      <point x="603" y="1037" type="line" smooth="yes"/>
      <point x="813" y="1037"/>
      <point x="917" y="990"/>
      <point x="917" y="829" type="curve" smooth="yes"/>
      <point x="917" y="683"/>
      <point x="798" y="590"/>
      <point x="593" y="590" type="curve" smooth="yes"/>
      <point x="424" y="590"/>
      <point x="314" y="677"/>
      <point x="266" y="744" type="curve"/>
      <point x="364" y="805" type="line"/>
      <point x="413" y="748"/>
      <point x="502" y="698"/>
      <point x="593" y="698" type="curve" smooth="yes"/>
      <point x="719" y="698"/>
      <point x="794" y="733"/>
      <point x="794" y="825" type="curve" smooth="yes"/>
      <point x="794" y="923"/>
      <point x="698" y="934"/>
      <point x="601" y="934" type="curve" smooth="yes"/>
      <point x="360" y="934" type="line"/>
      <point x="290" y="1004" type="line"/>
      <point x="310" y="1300" type="line"/>
    </contour>
  </outline>
</glyph>
<glyph name="uni2076" format="2">
  <advance width="1200"/>
  <unicode hex="2076"/>
  <outline>
    <contour>
      <point x="895" y="1195" type="line"/>
      <point x="573" y="1245"/>
      <point x="354" y="1145"/>
      <point x="354" y="910" type="curve"/>
      <point x="324" y="902" type="line"/>
      <point x="374" y="995"/>
      <point x="506" y="1070"/>
      <point x="688" y="1070" type="curve" smooth="yes"/>
      <point x="854" y="1070"/>
      <point x="1004" y="1005"/>
      <point x="1004" y="845" type="curve" smooth="yes"/>
      <point x="1004" y="685"/>
      <point x="832" y="590"/>
      <point x="620" y="590" type="curve" smooth="yes"/>
      <point x="394" y="590"/>
      <point x="246" y="708"/>
      <point x="246" y="903" type="curve" smooth="yes"/>
      <point x="246" y="1219"/>
      <point x="531" y="1360"/>
      <point x="916" y="1300" type="curve"/>
    </contour>
    <contour>
      <point x="884" y="843" type="curve" smooth="yes"/>
      <point x="884" y="944"/>
      <point x="788" y="967"/>
      <point x="662" y="967" type="curve" smooth="yes"/>
      <point x="522" y="967"/>
      <point x="379" y="895"/>
      <point x="379" y="835" type="curve" smooth="yes"/>
      <point x="379" y="757"/>
      <point x="471" y="695"/>
      <point x="635" y="695" type="curve" smooth="yes"/>
      <point x="776" y="695"/>
      <point x="884" y="755"/>
    </contour>
  </outline>
</glyph>
<glyph name="uni2077" format="2">
  <advance width="1200"/>
  <unicode hex="2077"/>
  <outline>
    <contour>
      <point x="974" y="1300" type="line"/>
      <point x="1009" y="1198" type="line"/>
      <point x="801" y="1038"/>
      <point x="643" y="862"/>
      <point x="591" y="580" type="curve"/>
      <point x="486" y="602" type="line"/>
      <point x="546" y="884"/>
      <point x="649" y="1042"/>
      <point x="857" y="1202" type="curve"/>
      <point x="363" y="1202" type="line"/>
      <point x="310" y="1050" type="line"/>
      <point x="231" y="1050" type="line"/>
      <point x="261" y="1300" type="line"/>
    </contour>
  </outline>
</glyph>
<glyph name="uni2078" format="2">
  <advance width="1200"/>
  <unicode hex="2078"/>
  <outline>
    <contour>
      <point x="595" y="963" type="curve" smooth="yes"/>
      <point x="368" y="963"/>
      <point x="280" y="1036"/>
      <point x="280" y="1140" type="curve" smooth="yes"/>
      <point x="280" y="1252"/>
      <point x="382" y="1320"/>
      <point x="595" y="1320" type="curve" smooth="yes"/>
      <point x="808" y="1320"/>
      <point x="917" y="1252"/>
      <point x="917" y="1140" type="curve" smooth="yes"/>
      <point x="917" y="1028"/>
      <point x="822" y="963"/>
    </contour>
    <contour>
      <point x="595" y="1227" type="curve" smooth="yes"/>
      <point x="449" y="1227"/>
      <point x="397" y="1183"/>
      <point x="397" y="1133" type="curve" smooth="yes"/>
      <point x="397" y="1088"/>
      <point x="449" y="1027"/>
      <point x="595" y="1027" type="curve" smooth="yes"/>
      <point x="749" y="1027"/>
      <point x="801" y="1081"/>
      <point x="801" y="1133" type="curve" smooth="yes"/>
      <point x="801" y="1183"/>
      <point x="749" y="1227"/>
    </contour>
    <contour>
      <point x="595" y="590" type="curve" smooth="yes"/>
      <point x="338" y="590"/>
      <point x="220" y="656"/>
      <point x="220" y="800" type="curve" smooth="yes"/>
      <point x="220" y="934"/>
      <point x="352" y="997"/>
      <point x="595" y="997" type="curve" smooth="yes"/>
      <point x="838" y="997"/>
      <point x="970" y="934"/>
      <point x="970" y="800" type="curve" smooth="yes"/>
      <point x="970" y="656"/>
      <point x="852" y="590"/>
    </contour>
    <contour>
      <point x="595" y="925" type="curve" smooth="yes"/>
      <point x="429" y="925"/>
      <point x="344" y="895"/>
      <point x="344" y="815" type="curve" smooth="yes"/>
      <point x="344" y="728"/>
      <point x="414" y="691"/>
      <point x="595" y="691" type="curve" smooth="yes"/>
      <point x="776" y="691"/>
      <point x="846" y="728"/>
      <point x="846" y="815" type="curve" smooth="yes"/>
      <point x="846" y="895"/>
      <point x="761" y="925"/>
    </contour>
  </outline>
</glyph>
<glyph name="uni2079" format="2">
  <advance width="1200"/>
  <unicode hex="2079"/>
  <outline>
    <contour>
      <point x="355" y="715" type="line"/>
      <point x="677" y="665"/>
      <point x="896" y="765"/>
      <point x="896" y="1000" type="curve"/>
      <point x="926" y="1008" type="line"/>
      <point x="876" y="915"/>
      <point x="744" y="840"/>
      <point x="562" y="840" type="curve" smooth="yes"/>
      <point x="396" y="840"/>
      <point x="246" y="905"/>
      <point x="246" y="1065" type="curve" smooth="yes"/>
      <point x="246" y="1225"/>
      <point x="418" y="1320"/>
      <point x="630" y="1320" type="curve" smooth="yes"/>
      <point x="856" y="1320"/>
      <point x="1004" y="1202"/>
      <point x="1004" y="1007" type="curve" smooth="yes"/>
      <point x="1004" y="691"/>
      <point x="719" y="550"/>
      <point x="334" y="610" type="curve"/>
    </contour>
    <contour>
      <point x="366" y="1067" type="curve" smooth="yes"/>
      <point x="366" y="966"/>
      <point x="462" y="943"/>
      <point x="588" y="943" type="curve" smooth="yes"/>
      <point x="728" y="943"/>
      <point x="871" y="1015"/>
      <point x="871" y="1075" type="curve" smooth="yes"/>
      <point x="871" y="1153"/>
      <point x="779" y="1215"/>
      <point x="615" y="1215" type="curve" smooth="yes"/>
      <point x="474" y="1215"/>
      <point x="366" y="1155"/>
    </contour>
  </outline>
</glyph>
